<?xml version="1.0" standalone="no"?>
<!DOCTYPE svg PUBLIC "-//W3C//DTD SVG 1.1//EN" "http://www.w3.org/Graphics/SVG/1.1/DTD/svg11.dtd" >
<svg xmlns="http://www.w3.org/2000/svg" xmlns:xlink="http://www.w3.org/1999/xlink" version="1.1">
<metadata>
Created by FontForge 20170731 at Tue Feb  4 04:12:20 2014
 By Aleksey,,,
Copyright (c) 2013 by Type Dynamic. All rights reserved.
</metadata>
<defs>
<font id="Larsseit-ExtraBoldItalic" horiz-adv-x="565" >
  <font-face 
    font-family="Larsseit ExtraBold"
    font-weight="800"
    font-style="italic"
    font-stretch="normal"
    units-per-em="1000"
    panose-1="0 0 0 0 0 0 0 0 0 0"
    ascent="800"
    descent="-200"
    x-height="510"
    cap-height="700"
    bbox="-207 -327 3416 1004"
    underline-thickness="50"
    underline-position="-200"
    slope="-12"
    unicode-range="U+0020-FB01"
  />
<missing-glyph horiz-adv-x="586" 
d="M9 0l123 700h476l-123 -700h-476zM317 411l180 213h-274zM436 149l65 367l-149 -180zM386 76l-90 203l-167 -203h257zM260 353l-80 184l-63 -357z" />
    <glyph glyph-name="fi" unicode="fi" horiz-adv-x="660" 
d="M376 743q33 0 60 -8l-25 -144q-21 10 -43 10q-52 0 -65 -60l-5 -31h99l-26 -148h-99l-64 -362h-163l64 362h-73l26 148h73l6 35q33 198 235 198zM479 510h163l-90 -510h-163zM530 718q32 26 71 26t62 -26q23 -27 16 -65q-8 -40 -39 -65q-32 -26 -71 -26t-62 26t-15 65
q8 41 38 65z" />
    <glyph glyph-name="f_j" unicode="fj" horiz-adv-x="660" 
d="M376 743q33 0 60 -8l-25 -144q-21 10 -43 10q-52 0 -65 -60l-5 -31h99l-26 -148h-99l-64 -362h-163l64 362h-73l26 148h73l6 35q33 198 235 198zM479 510h163l-90 -508q-40 -228 -226 -228q-59 0 -94 11l25 145q24 -9 61 -9q57 0 72 86zM530 718q32 26 71 26t62 -26
q23 -27 16 -65q-8 -40 -39 -65q-32 -26 -71 -26t-62 26t-15 65q8 41 38 65z" />
    <glyph glyph-name=".notdef" horiz-adv-x="586" 
d="M9 0l123 700h476l-123 -700h-476zM317 411l180 213h-274zM436 149l65 367l-149 -180zM386 76l-90 203l-167 -203h257zM260 353l-80 184l-63 -357z" />
    <glyph glyph-name=".null" horiz-adv-x="0" 
 />
    <glyph glyph-name="nonmarkingreturn" horiz-adv-x="333" 
 />
    <glyph glyph-name="space" unicode=" " horiz-adv-x="190" 
 />
    <glyph glyph-name="exclam" unicode="!" horiz-adv-x="289" 
d="M152 700h163l-85 -477h-163zM139 171q35 0 57 -21t22 -54q0 -45 -34 -76q-32 -31 -77 -31q-35 0 -57 21t-22 54q0 44 34 75q35 32 77 32z" />
    <glyph glyph-name="quotedbl" unicode="&#x22;" horiz-adv-x="390" 
d="M109 741h145l-72 -231h-104zM314 741h145l-72 -231h-104z" />
    <glyph glyph-name="numbersign" unicode="#" horiz-adv-x="695" 
d="M558 278h82l-27 -151h-108l-44 -127h-167l44 127h-102l-44 -127h-167l44 127h-75l27 151h101l54 152h-83l27 151h109l42 119h167l-42 -119h102l42 119h167l-42 -119h74l-27 -151h-100zM445 430h-102l-54 -152h102z" />
    <glyph glyph-name="dollar" unicode="$" horiz-adv-x="577" 
d="M334 813h116l-20 -111q68 -21 105 -74.5t31 -131.5h-174q4 30 -11 47.5t-42 17.5q-29 0 -48.5 -16.5t-19.5 -42.5t21 -42t76 -35q87 -30 126 -79t39 -121q0 -102 -63 -164t-166 -72l-17 -102h-116l19 109q-83 21 -125.5 82t-31.5 142h174q-7 -82 70 -82q35 0 56 17.5
t21 45.5q0 46 -90 76q-172 58 -172 203q0 89 62 154q62 64 162 76z" />
    <glyph glyph-name="percent" unicode="%" horiz-adv-x="918" 
d="M261 590q-25 0 -44.5 -21t-19.5 -48q0 -21 11.5 -34t31.5 -13q26 0 44.5 21t18.5 50q0 21 -11 33t-31 12zM278 713q68 0 113 -46q45 -47 45 -113q0 -90 -63 -147q-62 -56 -148 -56q-69 0 -116 45q-45 46 -45 113q0 89 63 146q64 58 151 58zM624 700h167l-466 -700h-168z
M709 226q-25 0 -44.5 -21t-19.5 -48q0 -21 11.5 -34t31.5 -13q26 0 44.5 21t18.5 50q0 21 -11 33t-31 12zM726 349q68 0 113 -46q45 -47 45 -113q0 -90 -63 -147q-62 -56 -148 -56q-69 0 -116 45q-45 47 -45 113q0 89 63 146q64 58 151 58z" />
    <glyph glyph-name="ampersand" unicode="&#x26;" horiz-adv-x="713" 
d="M373 713q90 0 146 -46q58 -46 58 -122q0 -73 -40 -114q-40 -43 -121 -83l-5 -3l63 -81q22 40 32 99h165q-17 -88 -41 -136q-20 -42 -58 -91l105 -136h-204l-25 32q-84 -45 -183 -45q-114 0 -178.5 50.5t-64.5 132.5q0 76 37 120q38 45 119 86l4 2l-10 14q-44 59 -44 118
q0 95 68 149t177 54zM275 132q48 0 84 16l-95 124q-36 -18 -51 -36.5t-15 -47.5q0 -56 77 -56zM297 515q0 -21 24 -52l8 -10l2 1q11 9 25 12q2 2 11 6.5t11 6.5q29 24 28 49q0 18 -13 29t-34 11q-27 0 -44.5 -14.5t-17.5 -38.5z" />
    <glyph glyph-name="quotesingle" unicode="'" horiz-adv-x="185" 
d="M109 741h145l-72 -231h-104z" />
    <glyph glyph-name="parenleft" unicode="(" horiz-adv-x="313" 
d="M273 749l112 -81q-201 -196 -201 -445q0 -120 65 -255l-118 -69q-100 169 -100 327q0 151 62 285t180 238z" />
    <glyph glyph-name="parenright" unicode=")" horiz-adv-x="313" 
d="M78 680l118 69q100 -169 100 -327q0 -151 -62 -285t-180 -238l-112 81q201 197 201 445q0 120 -65 255z" />
    <glyph glyph-name="asterisk" unicode="*" horiz-adv-x="363" 
d="M204 739h111l-23 -98l98 37l15 -107l-100 -24l47 -79l-93 -60l-41 80l-65 -80l-80 65l72 74l-86 30l49 98l85 -34z" />
    <glyph glyph-name="plus" unicode="+" horiz-adv-x="472" 
d="M217 556h143l-24 -135h135l-25 -143h-135l-24 -134h-143l24 134h-134l25 143h134z" />
    <glyph glyph-name="comma" unicode="," horiz-adv-x="237" 
d="M101 169q34 0 55 -20.5t21 -56.5q0 -52 -38 -114t-91 -112l-41 15q30 52 47 115q-28 4 -45 22.5t-17 45.5q0 41 33 73q34 32 76 32z" />
    <glyph glyph-name="hyphen" unicode="-" horiz-adv-x="365" 
d="M44 331h315l-25 -143h-315z" />
    <glyph glyph-name="period" unicode="." horiz-adv-x="237" 
d="M100 171q35 0 57 -21t22 -54q0 -45 -34 -76t-77 -31q-35 0 -57 20.5t-22 52.5q0 46 33 77q35 32 78 32z" />
    <glyph glyph-name="slash" unicode="/" horiz-adv-x="421" 
d="M328 700h169l-365 -700h-168z" />
    <glyph glyph-name="zero" unicode="0" horiz-adv-x="584" 
d="M569 439q0 -259 -145 -387q-76 -65 -176 -65t-156 73t-56 201q0 259 144 386q75 66 176 66q100 0 156.5 -73.5t56.5 -200.5zM338 552q-37 0 -69 -53q-61 -103 -61 -251q0 -100 59 -100q35 0 67 50q30 49 46.5 117.5t16.5 131.5q0 105 -59 105z" />
    <glyph glyph-name="one" unicode="1" horiz-adv-x="417" 
d="M307 700h125l-123 -700h-173l78 447h-148l26 145q88 0 139.5 25.5t75.5 82.5z" />
    <glyph glyph-name="two" unicode="2" horiz-adv-x="505" 
d="M321 713q95 0 149 -51q55 -51 54 -130q0 -62 -31 -115.5t-101 -119.5l-141 -136h205l-29 -161h-444l21 125l247 234q50 45 73 78q23 32 23 72q0 43 -40 43q-59 0 -69 -73h-173q17 107 84 170q68 64 172 64z" />
    <glyph glyph-name="three" unicode="3" horiz-adv-x="557" 
d="M354 713q94 0 149 -53q54 -53 54 -134q0 -57 -28.5 -104t-78.5 -72q34 -12 56.5 -43.5t22.5 -79.5q0 -113 -78 -177q-77 -63 -193 -63q-111 0 -172 64t-47 173h172q-6 -36 11.5 -56t53.5 -20q34 0 56.5 24.5t22.5 60.5q0 55 -76 55h-55l26 147h53q33 0 55 19.5t22 53.5
q0 44 -43 44q-27 0 -45.5 -18.5t-24.5 -51.5h-172q16 112 84 171.5t175 59.5z" />
    <glyph glyph-name="four" unicode="4" horiz-adv-x="600" 
d="M350 700h221l-77 -435h82l-27 -154h-82l-19 -111h-173l19 111h-297l25 139zM324 263l40 231l-21 -36l-137 -195h118z" />
    <glyph glyph-name="five" unicode="5" horiz-adv-x="550" 
d="M150 700h428l-29 -161h-255l-16 -91q33 12 83 12q80 0 128.5 -46.5t48.5 -131.5q0 -129 -73 -212q-72 -83 -207 -83q-110 0 -170 62q-60 63 -44 165h172q-5 -32 10.5 -49t48.5 -17q38 0 61.5 29t23.5 73q0 64 -59 64q-35 0 -69 -20h-154z" />
    <glyph glyph-name="six" unicode="6" horiz-adv-x="571" 
d="M367 713q99 0 158 -63q58 -62 43 -163h-175q8 65 -52 65q-79 0 -107 -141q51 36 122 36q82 0 130.5 -53t48.5 -140q0 -115 -79 -191t-199 -76q-113 0 -167 70q-51 67 -51 192q0 132 44 246q36 98 107.5 157.5t176.5 60.5zM297 306q-40 0 -65.5 -25.5t-26.5 -66.5v-4
q0 -29 17 -47t46 -18q36 0 63 29q27 30 27 68q0 28 -17 46t-44 18z" />
    <glyph glyph-name="seven" unicode="7" horiz-adv-x="524" 
d="M112 700h447l-24 -139l-326 -561h-197l315 539h-243z" />
    <glyph glyph-name="eight" unicode="8" horiz-adv-x="566" 
d="M359 713q89 0 145 -54q55 -54 55 -133q0 -51 -25.5 -98t-69.5 -78q61 -40 61 -119q0 -106 -85 -175q-86 -69 -197 -69q-92 0 -154 56q-61 55 -61 139q0 126 114 189q-45 40 -45 112q0 96 79 163t183 67zM337 554q-30 0 -50.5 -22t-20.5 -55q0 -21 13 -34t36 -13
q31 0 51 21.5t20 53.5q0 22 -13.5 35.5t-35.5 13.5zM290 285q-36 0 -61 -24t-25 -61q0 -54 61 -54q37 0 61 22.5t24 60.5q0 26 -16.5 41t-43.5 15z" />
    <glyph glyph-name="nine" unicode="9" horiz-adv-x="571" 
d="M254 -13q-100 0 -158 63q-58 62 -43 163h175q-8 -65 52 -65q78 0 107 141q-53 -36 -122 -36q-82 0 -130.5 53t-48.5 140q0 114 79 190q80 77 199 77q113 0 167 -70q51 -67 51 -192q0 -132 -45 -247q-35 -97 -106.5 -156.5t-176.5 -60.5zM324 394q40 0 66 26.5t26 69.5
q0 29 -17 47t-46 18q-36 0 -63 -30q-27 -29 -27 -67q0 -28 17 -46t44 -18z" />
    <glyph glyph-name="colon" unicode=":" horiz-adv-x="237" 
d="M162 521q35 0 57 -21t22 -54q0 -45 -34 -76q-32 -31 -77 -31q-35 0 -57 21t-22 54q0 44 34 75q35 32 77 32zM100 171q35 0 57 -21t22 -54q0 -45 -34 -76q-32 -31 -77 -31q-35 0 -57 21t-22 54q0 44 34 75q35 32 77 32z" />
    <glyph glyph-name="semicolon" unicode=";" horiz-adv-x="237" 
d="M162 521q35 0 57 -21t22 -54q0 -45 -34 -76q-32 -31 -77 -31q-35 0 -57 21t-22 54q0 44 34 75q35 32 77 32zM100 169q34 0 55.5 -21t21.5 -56q0 -52 -38 -114q-36 -60 -91 -112l-41 15q30 52 47 115q-28 4 -45 22.5t-17 45.5q0 41 33 73q34 32 75 32z" />
    <glyph glyph-name="less" unicode="&#x3c;" horiz-adv-x="303" 
d="M164 446h164l-175 -203l104 -188h-141l-110 197l3 17z" />
    <glyph glyph-name="equal" unicode="=" horiz-adv-x="472" 
d="M81 524h412l-24 -139h-412zM44 314h412l-24 -139h-412z" />
    <glyph glyph-name="greater" unicode="&#x3e;" horiz-adv-x="303" 
d="M41 446h141l110 -197l-3 -17l-155 -177h-164l175 203z" />
    <glyph glyph-name="question" unicode="?" horiz-adv-x="464" 
d="M298 713q86 0 142 -47q57 -46 57 -122q0 -102 -66 -164q-15 -14 -52.5 -42.5t-56.5 -50t-23 -45.5l-3 -19h-163l4 24q12 80 84 136q5 4 28 20.5t30 22.5t23.5 21.5t22.5 26.5t12 27.5t6 33.5q0 50 -54 50q-33 0 -57 -21t-30 -57h-153q14 96 81.5 151t167.5 55zM205 171
q35 0 57 -21t22 -54q0 -45 -34 -76t-77 -31q-35 0 -57 20.5t-22 52.5q0 46 33 77q35 32 78 32z" />
    <glyph glyph-name="at" unicode="@" horiz-adv-x="841" 
d="M429 336q-40 0 -67 -30t-27 -72q0 -30 17.5 -48t44.5 -18q31 0 58.5 23t33.5 59l1 6q6 35 -13 57.5t-48 22.5zM490 633q155 0 242 -89q89 -89 87 -230q0 -68 -22 -127q-22 -62 -70 -102t-109 -40q-45 0 -72 14t-50 44q-46 -58 -130 -58q-78 0 -123 50t-45 127
q0 94 66 165t151 71q79 0 109 -58l19 49h111l-46 -260q-14 -61 28 -61q44 0 70 53q26 55 26 132q1 107 -64 174q-64 66 -186 66q-154 0 -261 -105q-106 -105 -106 -260q-1 -111 63.5 -174.5t184.5 -63.5q82 0 151 30l17 -76q-72 -34 -173 -34q-153 0 -240 89q-86 88 -88 229
q0 190 129 317q130 128 331 128z" />
    <glyph glyph-name="A" unicode="A" horiz-adv-x="746" 
d="M357 700h194l141 -700h-183l-24 132h-256l-70 -132h-188zM426 455l-6 41l-20 -41l-92 -176h150z" />
    <glyph glyph-name="B" unicode="B" horiz-adv-x="617" 
d="M146 700h229q97 0 159 -50t62 -128q0 -107 -79 -174q64 -34 64 -114q0 -105 -77 -170q-76 -64 -186 -64h-295zM348 277h-104l-20 -116h104q34 0 53.5 18.5t19.5 53.5q0 44 -53 44zM362 539h-71l-21 -115h71q34 0 54 19t20 52q0 44 -53 44z" />
    <glyph glyph-name="C" unicode="C" horiz-adv-x="744" 
d="M460 713q129 0 206 -71q76 -70 90 -181h-189q-9 47 -38.5 69t-86.5 22q-95 0 -154 -77q-58 -76 -58 -181q0 -67 38.5 -106.5t104.5 -39.5q117 0 168 100h180q-103 -261 -360 -261q-140 0 -226 86q-85 85 -85 219q0 177 115 298q115 123 295 123z" />
    <glyph glyph-name="D" unicode="D" horiz-adv-x="736" 
d="M146 700h260q146 0 233 -84q87 -82 87 -213q0 -181 -119 -292t-304 -111h-280zM388 539h-97l-67 -378h97q104 0 164 66q61 67 61 174q0 67 -40 102.5t-118 35.5z" />
    <glyph glyph-name="E" unicode="E" horiz-adv-x="525" 
d="M146 700h417l-28 -161h-244l-18 -100h207l-28 -161h-207l-21 -117h244l-28 -161h-417z" />
    <glyph glyph-name="F" unicode="F" horiz-adv-x="501" 
d="M146 700h413l-28 -161h-240l-20 -109h203l-28 -161h-203l-47 -269h-173z" />
    <glyph glyph-name="G" unicode="G" horiz-adv-x="772" 
d="M460 713q129 0 206 -71q76 -70 90 -181h-189q-9 47 -38.5 69t-86.5 22q-95 0 -154 -77q-58 -76 -58 -181q0 -67 38.5 -106.5t104.5 -39.5q58 0 99 22.5t56 61.5h-130l28 161h319l-13 -72q-28 -160 -121 -247t-250 -87q-140 0 -226 86q-85 85 -85 219q0 177 115 298
q115 123 295 123z" />
    <glyph glyph-name="H" unicode="H" horiz-adv-x="723" 
d="M566 700h173l-123 -700h-173l49 282h-247l-49 -282h-173l123 700h173l-45 -257h247z" />
    <glyph glyph-name="I" unicode="I" horiz-adv-x="303" 
d="M146 700h173l-123 -700h-173z" />
    <glyph glyph-name="J" unicode="J" horiz-adv-x="554" 
d="M415 700h173l-84 -476q-40 -229 -252 -229q-112 0 -170 72q-59 72 -48 179h173q-12 -89 55 -89q59 0 72 79z" />
    <glyph glyph-name="K" unicode="K" horiz-adv-x="692" 
d="M519 700h218l-267 -324l166 -376h-186l-111 248l-122 -127l-21 -121h-173l123 700h173l-54 -310z" />
    <glyph glyph-name="L" unicode="L" horiz-adv-x="537" 
d="M146 700h173l-95 -539h275l-28 -161h-448z" />
    <glyph glyph-name="M" unicode="M" horiz-adv-x="901" 
d="M704 700h213l-123 -700h-173l68 385l-33 -69l-173 -316h-149l-63 316l-7 69l-68 -385h-173l123 700h195l97 -403l7 -38l18 38z" />
    <glyph glyph-name="N" unicode="N" horiz-adv-x="736" 
d="M579 700h173l-123 -700h-152l-189 360l-20 46l-72 -406h-173l123 700h153l187 -363l21 -47z" />
    <glyph glyph-name="O" unicode="O" horiz-adv-x="802" 
d="M464 713q148 0 238 -90q91 -88 91 -225q0 -121 -58.5 -216t-153 -145t-205.5 -50q-148 0 -237 88q-89 89 -89 223q0 184 121 299q122 116 293 116zM456 552q-98 0 -162 -72q-64 -70 -64 -176q0 -72 41 -114t114 -42q96 0 162 71q66 72 66 177q0 72 -41.5 114t-115.5 42z
" />
    <glyph glyph-name="P" unicode="P" horiz-adv-x="587" 
d="M146 700h230q105 0 169 -61q65 -60 63 -150q0 -115 -86 -187t-209 -72h-77l-40 -230h-173zM358 539h-67l-26 -148h67q43 0 69.5 24.5t26.5 66.5q0 57 -70 57z" />
    <glyph glyph-name="Q" unicode="Q" horiz-adv-x="802" 
d="M464 713q148 0 238 -90q91 -88 91 -225q0 -186 -132 -305l118 -197h-209l-67 109q-65 -18 -127 -18q-148 0 -237 88q-89 89 -89 223q0 184 121 299q122 116 293 116zM456 552q-98 0 -162 -72q-64 -70 -64 -176q0 -72 41 -114t114 -42q2 0 26 2l21 110h145q36 58 36 136
q0 72 -41.5 114t-115.5 42z" />
    <glyph glyph-name="R" unicode="R" horiz-adv-x="604" 
d="M146 700h225q106 0 168 -58q64 -58 64 -148q0 -74 -39.5 -131t-109.5 -88l93 -275h-182l-81 246h-45l-43 -246h-173zM353 539h-62l-25 -142h62q42 0 68.5 23.5t26.5 64.5q0 54 -70 54z" />
    <glyph glyph-name="S" unicode="S" 
d="M358 713q96 0 157 -58q62 -57 53 -159h-174q4 30 -11 47.5t-42 17.5q-29 0 -48.5 -16.5t-19.5 -42.5t21 -42t76 -35q87 -30 126 -79t39 -121q0 -112 -75 -175q-74 -63 -191 -63q-118 0 -183 68q-64 67 -51 165h174q-7 -82 70 -82q35 0 56 17.5t21 45.5q0 46 -90 76
q-172 58 -172 203q0 100 75 166q74 67 189 67z" />
    <glyph glyph-name="T" unicode="T" horiz-adv-x="621" 
d="M93 700h597l-28 -161h-212l-95 -539h-173l95 539h-212z" />
    <glyph glyph-name="U" unicode="U" horiz-adv-x="697" 
d="M574 700h173l-76 -431q-24 -133 -109.5 -207.5t-221.5 -74.5q-139 0 -205 88q-66 89 -41 229l70 396h173l-73 -415q-26 -137 94 -137q117 0 143 137z" />
    <glyph glyph-name="V" unicode="V" horiz-adv-x="715" 
d="M600 700h188l-390 -700h-165l-144 700h178l79 -411l6 -50l25 50z" />
    <glyph glyph-name="W" unicode="W" horiz-adv-x="1013" 
d="M895 700h187l-328 -700h-187l-35 339v49l-17 -49l-153 -339h-187l-82 700h177l40 -399v-51l17 51l175 399h161l35 -399l-2 -51l19 51z" />
    <glyph glyph-name="X" unicode="X" horiz-adv-x="717" 
d="M562 700h219l-287 -360l159 -340h-190l-102 227l-174 -227h-218l294 373l-155 327h188l101 -215z" />
    <glyph glyph-name="Y" unicode="Y" horiz-adv-x="697" 
d="M560 700h212l-334 -444l-45 -256h-173l45 256l-178 444h188l82 -211l14 -47l32 47z" />
    <glyph glyph-name="Z" unicode="Z" horiz-adv-x="609" 
d="M125 700h510l-25 -141l-347 -398h292l-28 -161h-525l25 141l347 398h-277z" />
    <glyph glyph-name="bracketleft" unicode="[" horiz-adv-x="360" 
d="M148 716h265l-26 -147h-111l-88 -499h111l-26 -147h-265z" />
    <glyph glyph-name="backslash" unicode="\" horiz-adv-x="421" 
d="M87 700h153l135 -700h-153z" />
    <glyph glyph-name="bracketright" unicode="]" horiz-adv-x="360" 
d="M103 716h265l-140 -793h-264l25 147h111l88 499h-111z" />
    <glyph glyph-name="asciicircum" unicode="^" horiz-adv-x="540" 
d="M47 462l311 301l205 -301h-164l-75 110l-113 -110h-164z" />
    <glyph glyph-name="underscore" unicode="_" horiz-adv-x="635" 
d="M-9 0h585l-25 -143h-585z" />
    <glyph glyph-name="grave" unicode="`" horiz-adv-x="315" 
d="M80 732h184l84 -158h-130z" />
    <glyph glyph-name="a" unicode="a" horiz-adv-x="633" 
d="M313 521q106 0 139 -81l24 70h138l-90 -510h-138l-2 58q-57 -69 -165 -69q-85 0 -139 64q-53 65 -53 160q0 122 81 215t205 93zM323 368q-52 0 -89 -40q-37 -38 -37 -96q0 -39 25 -64.5t61 -25.5q42 0 80 29q40 30 47 81l1 6q8 49 -18 79.5t-70 30.5z" />
    <glyph glyph-name="b" unicode="b" horiz-adv-x="633" 
d="M138 730h163l-47 -263q54 54 151 54q85 0 138 -65q54 -64 54 -159q0 -122 -81 -215t-205 -93q-106 0 -139 81l-25 -70h-138zM341 368q-42 0 -81 -30q-39 -29 -46 -80l-1 -6q-8 -49 18 -79.5t70 -30.5q51 0 89 39q37 40 37 97q0 39 -25 64.5t-61 25.5z" />
    <glyph glyph-name="c" unicode="c" horiz-adv-x="567" 
d="M326 521q97 0 158 -55q62 -55 58 -152h-155q-8 59 -73 59q-50 0 -84 -45q-33 -44 -33 -100q0 -41 22.5 -66t60.5 -25q30 0 54 16.5t34 42.5h157q-36 -107 -102 -157t-166 -50q-101 0 -166 63q-64 63 -64 163q0 128 83 217q84 89 216 89z" />
    <glyph glyph-name="d" unicode="d" horiz-adv-x="633" 
d="M482 730h163l-129 -730h-138l-3 58q-57 -69 -165 -69q-85 0 -139 64q-53 65 -53 160q0 122 81 215t205 93q91 0 130 -63zM314 368q-52 0 -89 -40q-37 -38 -37 -96q0 -39 25 -64.5t61 -25.5q42 0 80 29q40 30 47 81l1 6q8 49 -18 79.5t-70 30.5z" />
    <glyph glyph-name="e" unicode="e" horiz-adv-x="563" 
d="M319 521q109 0 169 -71q60 -70 37 -209l-5 -30h-330q-1 -3 -1 -13q0 -33 21.5 -53.5t59.5 -20.5q61 0 82 41h161q-81 -176 -262 -176q-101 0 -163 62q-61 62 -61 164q0 128 80 217q81 89 212 89zM307 392q-39 0 -65.5 -21.5t-33.5 -60.5h166q5 37 -13 59.5t-54 22.5z" />
    <glyph glyph-name="f" unicode="f" horiz-adv-x="377" 
d="M383 743q36 0 63 -8l-25 -144q-21 10 -43 10q-62 0 -75 -60l-5 -31h109l-26 -148h-109l-64 -362h-163l64 362h-73l26 148h73l6 35q35 198 242 198z" />
    <glyph glyph-name="g" unicode="g" horiz-adv-x="623" 
d="M317 368q-40 0 -71.5 -28.5t-40.5 -74.5q-8 -46 14 -74.5t62 -28.5q44 0 79.5 26.5t44.5 70.5l1 7q6 49 -19 75.5t-70 26.5zM307 521q101 0 139 -75l24 64h138l-90 -511q-18 -107 -98 -166t-198 -59q-114 0 -176 53.5t-57 157.5h157q0 -64 92 -64q47 0 80 25.5t39 64.5
l10 55q-25 -25 -65 -41t-85 -16q-96 0 -149 71q-52 71 -32 185q19 113 97 185q79 71 174 71z" />
    <glyph glyph-name="h" unicode="h" horiz-adv-x="567" 
d="M147 730h163l-47 -267q55 58 131 58q79 0 112.5 -49.5t18.5 -139.5l-59 -332h-163l52 292q12 70 -37 70q-32 0 -56.5 -24t-33.5 -71l-47 -267h-163z" />
    <glyph glyph-name="i" unicode="i" horiz-adv-x="289" 
d="M108 510h163l-90 -510h-163zM159 718q32 26 71 26t62 -26q23 -27 16 -65q-8 -40 -39 -65q-32 -26 -71 -26t-62 26t-15 65q8 41 38 65z" />
    <glyph glyph-name="j" unicode="j" horiz-adv-x="289" 
d="M108 510h163l-90 -508q-40 -228 -226 -228q-59 0 -94 11l25 145q24 -9 61 -9q57 0 72 86zM159 718q32 26 71 26t62 -26q23 -27 16 -65q-8 -40 -39 -65q-32 -26 -71 -26t-62 26t-15 65q8 41 38 65z" />
    <glyph glyph-name="k" unicode="k" horiz-adv-x="571" 
d="M147 730h163l-71 -403l149 183h192l-175 -216l112 -294h-186l-63 168l-70 -76l-17 -92h-163z" />
    <glyph glyph-name="l" unicode="l" horiz-adv-x="289" 
d="M147 730h163l-129 -730h-163z" />
    <glyph glyph-name="m" unicode="m" horiz-adv-x="848" 
d="M676 521q79 0 112 -49.5t17 -139.5l-58 -332h-163l51 292q12 70 -35 70q-32 0 -56.5 -24t-32.5 -71v2l-47 -269h-163l51 292q12 70 -36 70q-32 0 -56 -24t-32 -71l-47 -267h-163l90 510h138l1 -64q55 75 145 75q104 0 128 -84q27 38 68 61t88 23z" />
    <glyph glyph-name="n" unicode="n" horiz-adv-x="567" 
d="M393 521q80 0 113.5 -49.5t17.5 -139.5l-58 -332h-163l51 292q12 70 -36 70q-33 0 -57.5 -24t-32.5 -71l-47 -267h-163l90 510h138l1 -64q55 75 146 75z" />
    <glyph glyph-name="o" unicode="o" horiz-adv-x="610" 
d="M342 521q107 0 174 -64t67 -164q0 -139 -94 -221q-94 -83 -221 -83q-107 0 -174 64t-67 164q0 139 93 221q95 83 222 83zM326 373q-51 0 -90 -43q-38 -44 -38 -102q0 -41 23 -66t63 -25q52 0 89 43q39 44 39 102q0 41 -23 66t-63 25z" />
    <glyph glyph-name="p" unicode="p" horiz-adv-x="633" 
d="M414 521q85 0 138 -65q54 -64 54 -159q0 -122 -81 -215t-205 -93q-90 0 -129 63l-48 -267h-163l128 725h138l3 -58q57 69 165 69zM350 368q-42 0 -81 -30q-39 -29 -46 -80l-1 -6q-8 -49 18 -79.5t70 -30.5q52 0 89 39q37 40 37 97q0 39 -25 64.5t-61 25.5z" />
    <glyph glyph-name="q" unicode="q" horiz-adv-x="633" 
d="M313 520q106 0 139 -81l25 71h138l-128 -725h-163l46 257q-54 -54 -151 -54q-85 0 -139 64q-53 65 -53 160q0 122 81 215t205 93zM323 367q-52 0 -89 -40q-37 -38 -37 -96q0 -39 25 -64.5t61 -25.5q42 0 80 29q40 30 47 81l1 6q8 49 -18 79.5t-70 30.5z" />
    <glyph glyph-name="r" unicode="r" horiz-adv-x="391" 
d="M410 515l-29 -164q-58 0 -105 -29q-44 -26 -53 -82l-42 -240h-163l90 510h138l2 -77q46 82 162 82z" />
    <glyph glyph-name="s" unicode="s" horiz-adv-x="475" 
d="M287 521q90 0 141 -45q51 -44 41 -117h-165q8 42 -29 42q-18 0 -30 -12t-12 -32q0 -18 15 -27t56 -16q75 -12 108 -45.5t33 -92.5q0 -92 -66 -140q-67 -47 -168 -47q-102 0 -152 44t-39 121h165q-6 -45 41 -45q21 0 34 11t13 31q0 17 -14.5 27t-54.5 16q-143 23 -143 142
q0 86 67 135q68 50 159 50z" />
    <glyph glyph-name="t" unicode="t" horiz-adv-x="401" 
d="M157 630h164l-23 -120h106l-26 -148h-107l-30 -156q-6 -36 6 -51t45 -15q28 0 48 6l-25 -142q-35 -11 -89 -11q-95 0 -133.5 41t-21.5 130l37 198h-75l26 148h76z" />
    <glyph glyph-name="u" unicode="u" 
d="M400 510h163l-89 -510h-138l-2 64q-56 -75 -144 -75q-79 0 -112.5 49.5t-17.5 139.5l58 332h163l-51 -292q-12 -70 36 -70q32 0 55.5 24t31.5 71z" />
    <glyph glyph-name="v" unicode="v" horiz-adv-x="527" 
d="M390 510h176l-266 -510h-167l-86 510h176l26 -273v-49l19 49z" />
    <glyph glyph-name="w" unicode="w" horiz-adv-x="791" 
d="M653 510h175l-238 -510h-172l-26 252l-123 -252h-162l-58 510h175l8 -271l-1 -59l21 59l114 271h145l18 -271l1 -59l19 59z" />
    <glyph glyph-name="x" unicode="x" horiz-adv-x="550" 
d="M390 510h188l-191 -253l104 -257h-189l-50 135l-98 -135h-188l193 257l-101 253h188l49 -128z" />
    <glyph glyph-name="y" unicode="y" horiz-adv-x="533" 
d="M396 510h176l-376 -725h-169l111 221l-85 504h176l26 -273l1 -49l18 49z" />
    <glyph glyph-name="z" unicode="z" horiz-adv-x="492" 
d="M81 510h416l-21 -121l-244 -248h210l-25 -141h-427l21 121l244 248h-199z" />
    <glyph glyph-name="braceleft" unicode="{" horiz-adv-x="352" 
d="M381 716h20l-26 -147h-13q-30 0 -51.5 -22t-27.5 -57l-11 -65q-8 -43 -32 -73t-59 -40q31 -10 45 -40t6 -72l-12 -65q-11 -65 54 -65h13l-26 -147h-20q-93 0 -140 59q-46 58 -31 145l10 58q14 72 -53 72h-9l25 141h9q64 0 78 72l7 41q19 109 75 157t169 48z" />
    <glyph glyph-name="bar" unicode="|" horiz-adv-x="261" 
d="M144 726h151l-140 -793h-151z" />
    <glyph glyph-name="braceright" unicode="}" horiz-adv-x="352" 
d="M99 716h20q93 0 140 -59q46 -58 31 -145l-10 -58q-14 -72 53 -72h9l-25 -141h-9q-64 0 -78 -72l-7 -41q-19 -109 -75 -157t-169 -48h-20l26 147h13q30 0 51.5 22t27.5 57l11 65q8 43 32 73t59 40q-31 10 -45 40t-6 72l12 65q11 65 -54 65h-13z" />
    <glyph glyph-name="asciitilde" unicode="~" horiz-adv-x="566" 
d="M222 468q32 0 60 -13.5t43 -33.5q40 -46 80 -46q42 0 72 77l107 -44q-36 -86 -83 -127.5t-114 -41.5t-107 46q-39 47 -77 47q-42 0 -74 -77l-107 44q36 86 84 127.5t116 41.5z" />
    <glyph glyph-name="exclamdown" unicode="&#xa1;" horiz-adv-x="289" 
d="M150 -190h-163l85 477h163zM163 339q-35 0 -57 21t-22 54q0 44 33 75q35 32 78 32q35 0 57 -21t22 -54q0 -45 -34 -76t-77 -31z" />
    <glyph glyph-name="cent" unicode="&#xa2;" horiz-adv-x="567" 
d="M299 623h116l-20 -111q70 -18 110 -69.5t37 -128.5h-155q-8 59 -73 59q-50 0 -84 -45q-33 -44 -33 -100q0 -41 22.5 -66t60.5 -25q30 0 54 16.5t34 42.5h157q-65 -185 -221 -204l-19 -105h-116l20 111q-74 19 -118 77.5t-44 139.5q0 117 70 202q70 84 183 101z" />
    <glyph glyph-name="sterling" unicode="&#xa3;" horiz-adv-x="553" 
d="M285 392h120l-20 -116h-83q-3 -54 -31 -94l-13 -19h78q30 0 45.5 15t21.5 49h147q-12 -110 -75.5 -168.5t-166.5 -58.5h-332l6 34l58 59q86 87 90 183h-103l20 116h68q-9 44 -9 77q0 105 71 174q71 70 181 70q96 0 152 -63q56 -62 45 -158h-155q5 32 -8.5 52.5
t-41.5 20.5q-35 0 -55.5 -26.5t-20.5 -70.5q0 -30 11 -76z" />
    <glyph glyph-name="currency" unicode="&#xa4;" horiz-adv-x="674" 
d="M462 457l141 116l95 -118l-140 -115q6 -23 6 -47q0 -78 -41 -139l92 -113l-118 -95l-94 117q-43 -15 -91 -15t-88 17l-144 -118l-95 118l140 115q-6 24 -6 51q0 77 39 137l-90 112l118 94l92 -114q45 16 93 16q49 0 91 -19zM358 353q-40 0 -72 -33q-30 -33 -30 -80
q0 -31 18.5 -50.5t50.5 -19.5q41 0 71 33q31 32 31 80q0 31 -18.5 50.5t-50.5 19.5z" />
    <glyph glyph-name="yen" unicode="&#xa5;" horiz-adv-x="667" 
d="M560 700h212l-247 -328h65l-20 -116h-132l-11 -63h132l-21 -116h-132l-13 -77h-173l13 77h-127l21 116h127l11 63h-127l20 116h60l-131 328h188l82 -211l14 -47l32 47z" />
    <glyph glyph-name="brokenbar" unicode="&#xa6;" horiz-adv-x="261" 
d="M144 726h151l-50 -280h-151zM53 213h151l-49 -280h-151z" />
    <glyph glyph-name="section" unicode="&#xa7;" horiz-adv-x="532" 
d="M346 720q97 0 149 -44.5t42 -120.5h-163q6 45 -40 45q-22 0 -37.5 -13t-15.5 -34q0 -35 76 -45q93 -14 135.5 -48t42.5 -90q0 -82 -97 -136q41 -35 41 -98q0 -92 -71 -139q-70 -48 -171 -48t-156.5 45t-45.5 120h163q-3 -21 11 -33t39 -12t43 11.5t18 32.5q0 19 -24 31
t-90 21q-68 10 -108.5 46t-40.5 85q0 92 97 144q-30 30 -30 79q0 94 65 147q66 54 168 54zM258 391h-2q-40 -22 -40 -62q0 -21 23 -32.5t79 -18.5q46 22 46 61q0 19 -23.5 31t-82.5 21z" />
    <glyph glyph-name="dieresis" unicode="&#xa8;" horiz-adv-x="408" 
d="M176 729q32 0 52 -19t20 -49q0 -40 -31 -68t-70 -28q-31 0 -51 18.5t-20 47.5q0 41 30 69q31 29 70 29zM395 729q32 0 52 -19t20 -49q0 -40 -31 -68t-70 -28q-31 0 -51 18.5t-20 47.5q0 41 30 69q31 29 70 29z" />
    <glyph glyph-name="copyright" unicode="&#xa9;" horiz-adv-x="621" 
d="M377 620q57 0 85.5 -30.5t30.5 -81.5h-108q-4 19 -26 19q-23 0 -37.5 -19t-14.5 -47q0 -38 35 -38q28 0 40 25h103q-37 -118 -159 -118q-56 0 -89.5 33t-33.5 88q0 71 49 120t125 49zM386 678q-98 0 -168 -72q-70 -71 -70 -173q0 -72 43 -115.5t118 -43.5q99 0 166 72
q69 72 69 172q0 73 -42 116.5t-116 43.5zM395 760q108 0 171 -69q63 -67 63 -173q0 -138 -94 -232q-93 -94 -235 -94q-109 0 -174 68t-65 172q0 135 95 232q96 96 239 96z" />
    <glyph glyph-name="ordfeminine" unicode="&#xaa;" horiz-adv-x="465" 
d="M272 714q74 0 101 -53l17 46h102l-61 -348h-102l-3 36q-40 -43 -103 -43q-65 0 -105.5 43.5t-40.5 112.5q0 82 56 144t139 62zM284 601q-34 0 -57.5 -23t-23.5 -58q0 -24 17 -39.5t42 -15.5q29 0 52 17.5t29 49.5l1 6q6 31 -11.5 47t-48.5 16z" />
    <glyph glyph-name="guillemotleft" unicode="&#xab;" horiz-adv-x="510" 
d="M142 446h159l-147 -206l76 -185h-143l-77 195l3 17zM378 446h159l-147 -206l76 -185h-143l-77 195l3 17z" />
    <glyph glyph-name="logicalnot" unicode="&#xac;" horiz-adv-x="640" 
d="M75 463h563l-57 -322h-110l36 208h-453z" />
    <glyph glyph-name="registered" unicode="&#xae;" horiz-adv-x="621" 
d="M395 760q108 0 171 -69q63 -67 63 -173q0 -138 -94 -232q-93 -94 -235 -94q-109 0 -174 68t-65 172q0 135 95 232q96 96 239 96zM386 678q-98 0 -168 -72q-70 -71 -70 -173q0 -72 43 -115.5t118 -43.5q99 0 166 72q69 72 69 172q0 73 -42 116.5t-116 43.5zM254 614h118
q48 0 76.5 -25t28.5 -65q0 -55 -53 -87l30 -103h-101l-17 84h-17l-14 -84h-100zM355 535h-15l-8 -48h15q12 0 21.5 8t9.5 20q0 20 -23 20z" />
    <glyph glyph-name="overscore" unicode="&#xaf;" horiz-adv-x="312" 
d="M88 699h292l-20 -116h-292z" />
    <glyph glyph-name="degree" unicode="&#xb0;" horiz-adv-x="367" 
d="M265 722q62 0 102 -38.5t40 -99.5q0 -82 -57 -131q-55 -49 -133 -49q-59 0 -99 39q-39 41 -39 100q0 83 55 131t131 48zM252 624q-28 0 -49.5 -22t-21.5 -52q0 -22 13.5 -35t35.5 -13q30 0 52 21t22 51q0 23 -14 36.5t-38 13.5z" />
    <glyph glyph-name="plusminus" unicode="&#xb1;" horiz-adv-x="472" 
d="M231 650h143l-24 -135h135l-25 -143h-135l-24 -134h-143l24 134h-134l25 143h134zM18 197h412l-25 -143h-412z" />
    <glyph glyph-name="two.sups" unicode="&#xb2;" horiz-adv-x="326" 
d="M261 807q58 0 93 -29.5t35 -75.5q0 -76 -68 -129l-69 -54h99l-20 -111h-276l15 87l155 127q39 32 39 57q0 17 -18 17q-26 0 -31 -29h-120q9 65 54 102.5t112 37.5z" />
    <glyph glyph-name="three.sups" unicode="&#xb3;" horiz-adv-x="359" 
d="M281 807q58 0 91.5 -30t33.5 -77q0 -64 -59 -94q46 -13 46 -70q0 -63 -49 -99q-50 -36 -114 -36q-70 0 -108.5 37t-31.5 100h119q-3 -28 31 -28q14 0 23.5 8t9.5 21q0 23 -31 23h-39l16 93h37q11 0 19.5 7.5t8.5 18.5q0 17 -18 17q-24 0 -28 -24h-119q22 133 162 133z
" />
    <glyph glyph-name="acute" unicode="&#xb4;" horiz-adv-x="315" 
d="M185 732h212l-195 -158h-141z" />
    <glyph glyph-name="mu" unicode="&#xb5;" horiz-adv-x="571" 
d="M390 510h163l-89 -510h-138l-2 64q-56 -75 -144 -75h-1l-35 -204h-163l67 384l2 9l1 8l45 254l12 70h163l-51 -292q-12 -70 41 -70q30 0 52 24t30 71z" />
    <glyph glyph-name="paragraph" unicode="&#xb6;" horiz-adv-x="634" 
d="M301 700h398l-19 -103h-81l-119 -677h-103l119 677h-83l-119 -677h-103l68 385h-13q-82 0 -130.5 45.5t-48.5 119.5q0 99 65 164q64 66 169 66z" />
    <glyph glyph-name="middot" unicode="&#xb7;" horiz-adv-x="237" 
d="M139 350q35 0 57.5 -21t22.5 -53q0 -45 -34 -76q-35 -32 -78 -32q-35 0 -57 21t-22 54q0 44 34 75q35 32 77 32z" />
    <glyph glyph-name="cedilla" unicode="&#xb8;" horiz-adv-x="228" 
d="M49 6h68l-20 -53q68 -8 68 -70q0 -51 -36.5 -82t-93.5 -31q-58 0 -90 29l54 65q15 -21 41 -21q13 0 22.5 8.5t9.5 21.5q0 21 -28 21q-12 0 -23 -4l-15 4z" />
    <glyph glyph-name="one.sups" unicode="&#xb9;" horiz-adv-x="285" 
d="M254 800h86l-69 -392h-120l41 232h-89l17 94q106 0 134 66z" />
    <glyph glyph-name="ordmasculine" unicode="&#xba;" horiz-adv-x="449" 
d="M298 714q72 0 120 -45q49 -43 49 -113q0 -90 -62 -147q-61 -57 -159 -57q-73 0 -122 44q-47 44 -47 113q0 88 61 146q62 59 160 59zM285 605q-33 0 -58 -25t-25 -61q0 -26 16 -42.5t42 -16.5q33 0 57 26.5t24 62.5q0 25 -15.5 40.5t-40.5 15.5z" />
    <glyph glyph-name="guillemotright" unicode="&#xbb;" horiz-adv-x="510" 
d="M283 446h143l77 -195l-3 -17l-129 -179h-159l147 206zM47 446h143l77 -195l-3 -17l-129 -179h-159l147 206z" />
    <glyph glyph-name="onequarter" unicode="&#xbc;" horiz-adv-x="828" 
d="M232 700h86l-69 -392h-120l41 232h-89l17 94q106 0 134 66zM620 392h156l-41 -233h46l-18 -106h-46l-10 -53h-120l10 53h-179l17 100zM617 158l18 99l-11 -19l-63 -80h56zM554 700h171l-465 -700h-172z" />
    <glyph glyph-name="onehalf" unicode="&#xbd;" horiz-adv-x="792" 
d="M646 399q58 0 93 -29.5t35 -75.5q0 -76 -68 -129l-69 -54h99l-20 -111h-276l15 87l155 127q39 32 39 57q0 17 -18 17q-26 0 -31 -29h-120q9 65 54 102.5t112 37.5zM215 700h86l-69 -392h-120l41 232h-89l17 94q105 0 134 66zM531 700h171l-465 -700h-172z" />
    <glyph glyph-name="threequarters" unicode="&#xbe;" horiz-adv-x="892" 
d="M259 707q58 0 91.5 -30t33.5 -77q0 -64 -59 -94q46 -13 46 -70q0 -63 -49 -99q-50 -36 -114 -36q-70 0 -108.5 37t-31.5 100h119q-3 -28 31 -28q14 0 23.5 8t9.5 21q0 23 -31 23h-39l16 93h37q11 0 19.5 7.5t8.5 18.5q0 17 -18 17q-24 0 -28 -24h-119q22 133 162 133z
M691 392h156l-41 -233h46l-18 -106h-46l-10 -53h-120l10 53h-179l17 100zM688 158l18 99l-11 -19l-63 -80h56zM625 700h171l-465 -700h-172z" />
    <glyph glyph-name="questiondown" unicode="&#xbf;" horiz-adv-x="464" 
d="M175 -203q-85 0 -143 47q-56 47 -56 122q0 103 65 163q15 14 53 43t57 50.5t23 45.5l3 19h163l-4 -24q-13 -82 -85 -136q-5 -4 -32.5 -24.5t-36 -28.5t-25 -26t-22 -35t-5.5 -38q0 -50 54 -50q33 0 57 21t30 57h153q-14 -96 -81.5 -151t-167.5 -55zM268 339q-35 0 -57 21
t-22 54q0 44 34 75q35 32 77 32q35 0 57 -20.5t22 -52.5q0 -46 -34 -77q-34 -32 -77 -32z" />
    <glyph glyph-name="Agrave" unicode="&#xc0;" horiz-adv-x="746" 
d="M357 700h194l141 -700h-183l-24 132h-256l-70 -132h-188zM426 455l-6 41l-20 -41l-92 -176h150zM262 863h202l76 -128h-148z" />
    <glyph glyph-name="Aacute" unicode="&#xc1;" horiz-adv-x="746" 
d="M357 700h194l141 -700h-183l-24 132h-256l-70 -132h-188zM426 455l-6 41l-20 -41l-92 -176h150zM480 863h235l-181 -128h-162z" />
    <glyph glyph-name="Acircumflex" unicode="&#xc2;" horiz-adv-x="746" 
d="M357 700h194l141 -700h-183l-24 132h-256l-70 -132h-188zM426 455l-6 41l-20 -41l-92 -176h150zM436 872h86l138 -138h-156l-33 48l-51 -48h-170z" />
    <glyph glyph-name="Atilde" unicode="&#xc3;" horiz-adv-x="746" 
d="M357 700h194l141 -700h-183l-24 132h-256l-70 -132h-188zM426 455l-6 41l-20 -41l-92 -176h150zM413 886q55 0 76 -31q22 -30 49 -30q32 0 39 52h90q-27 -154 -137 -154q-29 0 -49 9.5t-28 21t-20.5 21t-28.5 9.5q-32 0 -39 -52h-90q27 154 138 154z" />
    <glyph glyph-name="Adieresis" unicode="&#xc4;" horiz-adv-x="746" 
d="M357 700h194l141 -700h-183l-24 132h-256l-70 -132h-188zM426 455l-6 41l-20 -41l-92 -176h150zM377 892q32 0 52 -19t20 -49q0 -40 -31 -68t-70 -28q-31 0 -50.5 19t-19.5 48q0 40 29.5 68.5t69.5 28.5zM596 892q32 0 52 -19t20 -49q0 -40 -31 -68t-70 -28
q-31 0 -50.5 19t-19.5 48q0 40 29.5 68.5t69.5 28.5z" />
    <glyph glyph-name="Aring" unicode="&#xc5;" horiz-adv-x="746" 
d="M357 700h194l141 -700h-183l-24 132h-256l-70 -132h-188zM426 455l-6 41l-20 -41l-92 -176h150zM484 868q-17 0 -28.5 -11.5t-11.5 -29.5q0 -12 8 -20.5t21 -8.5q18 0 28.5 12.5t10.5 30.5q0 12 -7.5 19.5t-20.5 7.5zM494 941q44 0 70.5 -25.5t26.5 -67.5
q0 -54 -36.5 -89t-91.5 -35q-44 0 -71 26.5t-27 66.5q0 54 37 89t92 35z" />
    <glyph glyph-name="AE" unicode="&#xc6;" horiz-adv-x="988" 
d="M533 700h493l-28 -161h-244l-18 -100h207l-28 -161h-207l-21 -117h244l-28 -161h-417l23 132h-226l-106 -132h-203zM535 279l40 225l-31 -45l-145 -180h136z" />
    <glyph glyph-name="Ccedilla" unicode="&#xc7;" horiz-adv-x="744" 
d="M460 713q129 0 206 -71q76 -70 90 -181h-189q-9 47 -38.5 69t-86.5 22q-95 0 -154 -77q-58 -76 -58 -181q0 -67 38.5 -106.5t104.5 -39.5q117 0 168 100h180q-101 -251 -341 -261l-13 -34q68 -8 68 -70q0 -51 -36.5 -82t-93.5 -31q-58 0 -90 29l54 65q15 -21 41 -21
q13 0 22.5 8.5t9.5 21.5q0 21 -28 21q-12 0 -23 -4l-15 4l37 96q-121 15 -192 98t-71 204q0 177 115 298q115 123 295 123z" />
    <glyph glyph-name="Egrave" unicode="&#xc8;" horiz-adv-x="525" 
d="M146 700h417l-28 -161h-244l-18 -100h207l-28 -161h-207l-21 -117h244l-28 -161h-417zM162 863h202l76 -128h-148z" />
    <glyph glyph-name="Eacute" unicode="&#xc9;" horiz-adv-x="525" 
d="M146 700h417l-28 -161h-244l-18 -100h207l-28 -161h-207l-21 -117h244l-28 -161h-417zM380 863h235l-181 -128h-162z" />
    <glyph glyph-name="Ecircumflex" unicode="&#xca;" horiz-adv-x="525" 
d="M146 700h417l-28 -161h-244l-18 -100h207l-28 -161h-207l-21 -117h244l-28 -161h-417zM336 872h86l138 -138h-156l-33 48l-51 -48h-170z" />
    <glyph glyph-name="Edieresis" unicode="&#xcb;" horiz-adv-x="525" 
d="M277 892q32 0 52 -19t20 -49q0 -40 -31 -68t-70 -28q-31 0 -50.5 19t-19.5 48q0 40 29.5 68.5t69.5 28.5zM496 892q32 0 52 -19t20 -49q0 -40 -31 -68t-70 -28q-31 0 -50.5 19t-19.5 48q0 40 29.5 68.5t69.5 28.5zM146 700h417l-28 -161h-244l-18 -100h207l-28 -161h-207
l-21 -117h244l-28 -161h-417z" />
    <glyph glyph-name="Igrave" unicode="&#xcc;" horiz-adv-x="303" 
d="M146 700h173l-123 -700h-173zM41 863h202l76 -128h-148z" />
    <glyph glyph-name="Iacute" unicode="&#xcd;" horiz-adv-x="303" 
d="M146 700h173l-123 -700h-173zM259 863h235l-181 -128h-162z" />
    <glyph glyph-name="Icircumflex" unicode="&#xce;" horiz-adv-x="303" 
d="M146 700h173l-123 -700h-173zM215 872h86l138 -138h-156l-33 48l-51 -48h-170z" />
    <glyph glyph-name="Idieresis" unicode="&#xcf;" horiz-adv-x="303" 
d="M156 892q32 0 52 -19t20 -49q0 -40 -31 -68t-70 -28q-31 0 -50.5 19t-19.5 48q0 40 29.5 68.5t69.5 28.5zM375 892q32 0 52 -19t20 -49q0 -40 -31 -68t-70 -28q-31 0 -50.5 19t-19.5 48q0 40 29.5 68.5t69.5 28.5zM146 700h173l-123 -700h-173z" />
    <glyph glyph-name="Eth" unicode="&#xd0;" horiz-adv-x="746" 
d="M156 700h260q146 0 233 -84q87 -82 87 -213q0 -181 -119 -292t-304 -111h-280l54 310h-63l20 116h64zM398 539h-97l-20 -113h75l-20 -116h-76l-26 -149h97q104 0 164 66q61 67 61 174q0 67 -40 102.5t-118 35.5z" />
    <glyph glyph-name="Ntilde" unicode="&#xd1;" horiz-adv-x="736" 
d="M579 700h173l-123 -700h-152l-189 360l-20 46l-72 -406h-173l123 700h153l187 -363l21 -47zM400 886q55 0 76 -31q22 -30 49 -30q32 0 39 52h90q-27 -154 -137 -154q-29 0 -49 9.5t-28 21t-20.5 21t-28.5 9.5q-32 0 -39 -52h-90q27 154 138 154z" />
    <glyph glyph-name="Ograve" unicode="&#xd2;" horiz-adv-x="802" 
d="M464 713q148 0 238 -90q91 -88 91 -225q0 -121 -58.5 -216t-153 -145t-205.5 -50q-148 0 -237 88q-89 89 -89 223q0 184 121 299q122 116 293 116zM456 552q-98 0 -162 -72q-64 -70 -64 -176q0 -72 41 -114t114 -42q96 0 162 71q66 72 66 177q0 72 -41.5 114t-115.5 42z
M276 873h202l76 -128h-148z" />
    <glyph glyph-name="Oacute" unicode="&#xd3;" horiz-adv-x="802" 
d="M464 713q148 0 238 -90q91 -88 91 -225q0 -121 -58.5 -216t-153 -145t-205.5 -50q-148 0 -237 88q-89 89 -89 223q0 184 121 299q122 116 293 116zM456 552q-98 0 -162 -72q-64 -70 -64 -176q0 -72 41 -114t114 -42q96 0 162 71q66 72 66 177q0 72 -41.5 114t-115.5 42z
M494 873h235l-181 -128h-162z" />
    <glyph glyph-name="Ocircumflex" unicode="&#xd4;" horiz-adv-x="802" 
d="M464 713q148 0 238 -90q91 -88 91 -225q0 -121 -58.5 -216t-153 -145t-205.5 -50q-148 0 -237 88q-89 89 -89 223q0 184 121 299q122 116 293 116zM456 552q-98 0 -162 -72q-64 -70 -64 -176q0 -72 41 -114t114 -42q96 0 162 71q66 72 66 177q0 72 -41.5 114t-115.5 42z
M450 882h86l138 -138h-156l-33 48l-51 -48h-170z" />
    <glyph glyph-name="Otilde" unicode="&#xd5;" horiz-adv-x="802" 
d="M464 713q148 0 238 -90q91 -88 91 -225q0 -121 -58.5 -216t-153 -145t-205.5 -50q-148 0 -237 88q-89 89 -89 223q0 184 121 299q122 116 293 116zM456 552q-98 0 -162 -72q-64 -70 -64 -176q0 -72 41 -114t114 -42q96 0 162 71q66 72 66 177q0 72 -41.5 114t-115.5 42z
M427 896q55 0 76 -31q22 -30 49 -30q32 0 39 52h90q-27 -154 -137 -154q-29 0 -49 9.5t-28 21t-20.5 21t-28.5 9.5q-32 0 -39 -52h-90q27 154 138 154z" />
    <glyph glyph-name="Odieresis" unicode="&#xd6;" horiz-adv-x="802" 
d="M464 713q148 0 238 -90q91 -88 91 -225q0 -121 -58.5 -216t-153 -145t-205.5 -50q-148 0 -237 88q-89 89 -89 223q0 184 121 299q122 116 293 116zM456 552q-98 0 -162 -72q-64 -70 -64 -176q0 -72 41 -114t114 -42q96 0 162 71q66 72 66 177q0 72 -41.5 114t-115.5 42z
M391 902q32 0 52 -19t20 -49q0 -40 -31 -68t-70 -28q-31 0 -50.5 19t-19.5 48q0 40 29.5 68.5t69.5 28.5zM610 902q32 0 52 -19t20 -49q0 -40 -31 -68t-70 -28q-31 0 -50.5 19t-19.5 48q0 40 29.5 68.5t69.5 28.5z" />
    <glyph glyph-name="multiply" unicode="&#xd7;" horiz-adv-x="448" 
d="M253 450l127 104l90 -109l-126 -106l83 -104l-112 -89l-86 104l-126 -104l-91 111l128 104l-86 107l112 89z" />
    <glyph glyph-name="Oslash" unicode="&#xd8;" horiz-adv-x="802" 
d="M464 713q76 0 140 -26l82 104l110 -76l-82 -104q79 -85 79 -213q0 -121 -58.5 -216t-153 -145t-205.5 -50q-72 0 -137 24l-75 -96l-110 76l74 94q-78 85 -78 213q0 184 121 299q122 116 293 116zM456 552q-98 0 -162 -72q-64 -70 -64 -176q0 -44 13 -73l251 317
q-15 4 -38 4zM613 396q0 37 -14 71l-249 -316q16 -3 35 -3q96 0 162 71q66 72 66 177z" />
    <glyph glyph-name="Ugrave" unicode="&#xd9;" horiz-adv-x="697" 
d="M574 700h173l-76 -431q-24 -133 -109.5 -207.5t-221.5 -74.5q-139 0 -205 88q-66 89 -41 229l70 396h173l-73 -415q-26 -137 94 -137q117 0 143 137zM262 863h202l76 -128h-148z" />
    <glyph glyph-name="Uacute" unicode="&#xda;" horiz-adv-x="697" 
d="M574 700h173l-76 -431q-24 -133 -109.5 -207.5t-221.5 -74.5q-139 0 -205 88q-66 89 -41 229l70 396h173l-73 -415q-26 -137 94 -137q117 0 143 137zM480 863h235l-181 -128h-162z" />
    <glyph glyph-name="Ucircumflex" unicode="&#xdb;" horiz-adv-x="697" 
d="M574 700h173l-76 -431q-24 -133 -109.5 -207.5t-221.5 -74.5q-139 0 -205 88q-66 89 -41 229l70 396h173l-73 -415q-26 -137 94 -137q117 0 143 137zM436 872h86l138 -138h-156l-33 48l-51 -48h-170z" />
    <glyph glyph-name="Udieresis" unicode="&#xdc;" horiz-adv-x="697" 
d="M574 700h173l-76 -431q-24 -133 -109.5 -207.5t-221.5 -74.5q-139 0 -205 88q-66 89 -41 229l70 396h173l-73 -415q-26 -137 94 -137q117 0 143 137zM377 892q32 0 52 -19t20 -49q0 -40 -31 -68t-70 -28q-31 0 -50.5 19t-19.5 48q0 40 29.5 68.5t69.5 28.5zM596 892
q32 0 52 -19t20 -49q0 -40 -31 -68t-70 -28q-31 0 -50.5 19t-19.5 48q0 40 29.5 68.5t69.5 28.5z" />
    <glyph glyph-name="Yacute" unicode="&#xdd;" horiz-adv-x="697" 
d="M560 700h212l-334 -444l-45 -256h-173l45 256l-178 444h188l82 -211l14 -47l32 47zM440 863h235l-181 -128h-162z" />
    <glyph glyph-name="Thorn" unicode="&#xde;" horiz-adv-x="610" 
d="M146 700h173l-17 -97h84q100 0 162 -57q63 -56 63 -141q0 -112 -82 -182q-80 -70 -202 -70h-104l-27 -153h-173zM366 442h-92l-23 -128h100q32 0 56.5 21.5t24.5 55.5q1 25 -16.5 38t-49.5 13z" />
    <glyph glyph-name="germandbls" unicode="&#xdf;" horiz-adv-x="599" 
d="M399 743l-27 -153q-34 0 -58 -21t-31 -58l-1 -1h322l-17 -112l-118 -174q109 -49 109 -177q0 -120 -78 -193q-79 -74 -204 -74q-49 0 -88 9l29 164q36 -12 65 -12q43 0 70 25.5t27 63.5q0 65 -80 65h-47l25 119l99 152h-138l-66 -366h-174l90 507q22 122 93 179t198 57z
" />
    <glyph glyph-name="agrave" unicode="&#xe0;" horiz-adv-x="633" 
d="M313 521q106 0 139 -81l24 70h138l-90 -510h-138l-2 58q-57 -69 -165 -69q-85 0 -139 64q-53 65 -53 160q0 122 81 215t205 93zM323 368q-52 0 -89 -40q-37 -38 -37 -96q0 -39 25 -64.5t61 -25.5q42 0 80 29q40 30 47 81l1 6q8 49 -18 79.5t-70 30.5zM162 732h184
l84 -158h-130z" />
    <glyph glyph-name="aacute" unicode="&#xe1;" horiz-adv-x="633" 
d="M313 521q106 0 139 -81l24 70h138l-90 -510h-138l-2 58q-57 -69 -165 -69q-85 0 -139 64q-53 65 -53 160q0 122 81 215t205 93zM323 368q-52 0 -89 -40q-37 -38 -37 -96q0 -39 25 -64.5t61 -25.5q42 0 80 29q40 30 47 81l1 6q8 49 -18 79.5t-70 30.5zM407 732h212
l-195 -158h-141z" />
    <glyph glyph-name="acircumflex" unicode="&#xe2;" horiz-adv-x="633" 
d="M313 521q106 0 139 -81l24 70h138l-90 -510h-138l-2 58q-57 -69 -165 -69q-85 0 -139 64q-53 65 -53 160q0 122 81 215t205 93zM323 368q-52 0 -89 -40q-37 -38 -37 -96q0 -39 25 -64.5t61 -25.5q42 0 80 29q40 30 47 81l1 6q8 49 -18 79.5t-70 30.5zM321 732h126
l114 -158h-151l-35 68l-59 -68h-165z" />
    <glyph glyph-name="atilde" unicode="&#xe3;" horiz-adv-x="633" 
d="M313 521q106 0 139 -81l24 70h138l-90 -510h-138l-2 58q-57 -69 -165 -69q-85 0 -139 64q-53 65 -53 160q0 122 81 215t205 93zM323 368q-52 0 -89 -40q-37 -38 -37 -96q0 -39 25 -64.5t61 -25.5q42 0 80 29q40 30 47 81l1 6q8 49 -18 79.5t-70 30.5zM316 732
q55 0 76 -31q22 -30 49 -30q29 0 39 52h90q-27 -154 -137 -154q-29 0 -49 9.5t-28.5 21t-21 21t-28.5 9.5q-29 0 -39 -52h-90q27 154 139 154z" />
    <glyph glyph-name="adieresis" unicode="&#xe4;" horiz-adv-x="633" 
d="M313 521q106 0 139 -81l24 70h138l-90 -510h-138l-2 58q-57 -69 -165 -69q-85 0 -139 64q-53 65 -53 160q0 122 81 215t205 93zM323 368q-52 0 -89 -40q-37 -38 -37 -96q0 -39 25 -64.5t61 -25.5q42 0 80 29q40 30 47 81l1 6q8 49 -18 79.5t-70 30.5zM278 729
q32 0 52 -19t20 -49q0 -40 -31 -68t-70 -28q-31 0 -51 18.5t-20 47.5q0 41 30 69q31 29 70 29zM497 729q32 0 52 -19t20 -49q0 -40 -31 -68t-70 -28q-31 0 -51 18.5t-20 47.5q0 41 30 69q31 29 70 29z" />
    <glyph glyph-name="aring" unicode="&#xe5;" horiz-adv-x="633" 
d="M313 521q106 0 139 -81l24 70h138l-90 -510h-138l-2 58q-57 -69 -165 -69q-85 0 -139 64q-53 65 -53 160q0 122 81 215t205 93zM323 368q-52 0 -89 -40q-37 -38 -37 -96q0 -39 25 -64.5t61 -25.5q42 0 80 29q40 30 47 81l1 6q8 49 -18 79.5t-70 30.5zM385 709
q-21 0 -36.5 -15t-15.5 -36q0 -15 10.5 -25.5t26.5 -10.5q23 0 37 15.5t14 37.5q0 15 -10 24.5t-26 9.5zM394 779q45 0 73 -27.5t28 -70.5q0 -55 -38 -93q-37 -37 -96 -37q-45 0 -73.5 28t-28.5 70q0 57 39 93q40 37 96 37z" />
    <glyph glyph-name="ae" unicode="&#xe6;" horiz-adv-x="850" 
d="M606 521q109 0 169 -71q60 -70 37 -209l-5 -30h-330q-1 -3 -1 -13q0 -33 21.5 -53.5t59.5 -20.5q61 0 82 41h161q-81 -176 -262 -176q-120 0 -182 86q-89 -86 -184 -86q-75 0 -118 35t-43 95q0 78 51 120.5t148 57.5l117 19l3 11q9 58 -44 58q-24 0 -42.5 -13.5
t-21.5 -33.5h-157q24 86 84.5 134.5t150.5 48.5q92 0 145 -46q70 46 161 46zM594 392q-39 0 -65.5 -21.5t-33.5 -60.5h166q5 37 -13 59.5t-54 22.5zM308 204l2 12l-76 -14q-55 -10 -55 -53q0 -32 39 -32q44 0 73 42q13 19 17 45z" />
    <glyph glyph-name="ccedilla" unicode="&#xe7;" horiz-adv-x="567" 
d="M326 521q97 0 158 -55q62 -55 58 -152h-155q-8 59 -73 59q-50 0 -84 -45q-33 -44 -33 -100q0 -41 22.5 -66t60.5 -25q30 0 54 16.5t34 42.5h157q-68 -196 -245 -206l-14 -37q68 -8 68 -70q0 -51 -36.5 -82t-93.5 -31q-58 0 -90 29l54 65q15 -21 41 -21q13 0 22.5 8.5
t9.5 21.5q0 21 -28 21q-12 0 -23 -4l-15 4l38 99q-84 13 -135 73.5t-51 148.5q0 128 83 217q84 89 216 89z" />
    <glyph glyph-name="egrave" unicode="&#xe8;" horiz-adv-x="563" 
d="M319 521q109 0 169 -71q60 -70 37 -209l-5 -30h-330q-1 -3 -1 -13q0 -33 21.5 -53.5t59.5 -20.5q61 0 82 41h161q-81 -176 -262 -176q-101 0 -163 62q-61 62 -61 164q0 128 80 217q81 89 212 89zM139 732h184l84 -158h-130zM307 392q-39 0 -65.5 -21.5t-33.5 -60.5h166
q5 37 -13 59.5t-54 22.5z" />
    <glyph glyph-name="eacute" unicode="&#xe9;" horiz-adv-x="563" 
d="M319 521q109 0 169 -71q60 -70 37 -209l-5 -30h-330q-1 -3 -1 -13q0 -33 21.5 -53.5t59.5 -20.5q61 0 82 41h161q-81 -176 -262 -176q-101 0 -163 62q-61 62 -61 164q0 128 80 217q81 89 212 89zM384 732h212l-195 -158h-141zM307 392q-39 0 -65.5 -21.5t-33.5 -60.5h166
q5 37 -13 59.5t-54 22.5z" />
    <glyph glyph-name="ecircumflex" unicode="&#xea;" horiz-adv-x="563" 
d="M319 521q109 0 169 -71q60 -70 37 -209l-5 -30h-330q-1 -3 -1 -13q0 -33 21.5 -53.5t59.5 -20.5q61 0 82 41h161q-81 -176 -262 -176q-101 0 -163 62q-61 62 -61 164q0 128 80 217q81 89 212 89zM298 732h126l114 -158h-151l-35 68l-59 -68h-165zM307 392
q-39 0 -65.5 -21.5t-33.5 -60.5h166q5 37 -13 59.5t-54 22.5z" />
    <glyph glyph-name="edieresis" unicode="&#xeb;" horiz-adv-x="563" 
d="M319 521q109 0 169 -71q60 -70 37 -209l-5 -30h-330q-1 -3 -1 -13q0 -33 21.5 -53.5t59.5 -20.5q61 0 82 41h161q-81 -176 -262 -176q-101 0 -163 62q-61 62 -61 164q0 128 80 217q81 89 212 89zM474 729q32 0 52 -19t20 -49q0 -40 -31 -68t-70 -28q-31 0 -51 18.5
t-20 47.5q0 41 30 69q31 29 70 29zM255 729q32 0 52 -19t20 -49q0 -40 -31 -68t-70 -28q-31 0 -51 18.5t-20 47.5q0 41 30 69q31 29 70 29zM307 392q-39 0 -65.5 -21.5t-33.5 -60.5h166q5 37 -13 59.5t-54 22.5z" />
    <glyph glyph-name="igrave" unicode="&#xec;" horiz-adv-x="289" 
d="M108 510h163l-90 -510h-163zM0 732h184l84 -158h-130z" />
    <glyph glyph-name="iacute" unicode="&#xed;" horiz-adv-x="289" 
d="M108 510h163l-90 -510h-163zM245 732h212l-195 -158h-141z" />
    <glyph glyph-name="icircumflex" unicode="&#xee;" horiz-adv-x="289" 
d="M108 510h163l-90 -510h-163zM159 732h126l114 -158h-151l-35 68l-59 -68h-165z" />
    <glyph glyph-name="idieresis" unicode="&#xef;" horiz-adv-x="289" 
d="M116 729q32 0 52 -19t20 -49q0 -40 -31 -68t-70 -28q-31 0 -51 18.5t-20 47.5q0 41 30 69q31 29 70 29zM335 729q32 0 52 -19t20 -49q0 -40 -31 -68t-70 -28q-31 0 -51 18.5t-20 47.5q0 41 30 69q31 29 70 29zM108 510h163l-90 -510h-163z" />
    <glyph glyph-name="eth" unicode="&#xf0;" horiz-adv-x="583" 
d="M390 632h145l-18 -106h-70l74 -138q29 -56 29 -124q0 -116 -86 -196q-85 -79 -210 -79q-96 0 -160 58q-63 59 -63 150q0 112 74 191t189 89l-27 49h-156l18 106h81l-53 98h181zM272 132q46 0 80 37t34 89q0 36 -21 57t-57 21q-48 0 -80 -38t-32 -87q0 -36 20.5 -57.5
t55.5 -21.5z" />
    <glyph glyph-name="ntilde" unicode="&#xf1;" horiz-adv-x="567" 
d="M393 521q80 0 113.5 -49.5t17.5 -139.5l-58 -332h-163l51 292q12 70 -36 70q-33 0 -57.5 -24t-32.5 -71l-47 -267h-163l90 510h138l1 -64q55 75 146 75zM301 732q55 0 76 -31q22 -30 49 -30q29 0 39 52h90q-27 -154 -137 -154q-29 0 -49 9.5t-28.5 21t-21 21t-28.5 9.5
q-29 0 -39 -52h-90q27 154 139 154z" />
    <glyph glyph-name="ograve" unicode="&#xf2;" horiz-adv-x="610" 
d="M342 521q107 0 174 -64t67 -164q0 -139 -94 -221q-94 -83 -221 -83q-107 0 -174 64t-67 164q0 139 93 221q95 83 222 83zM326 373q-51 0 -90 -43q-38 -44 -38 -102q0 -41 23 -66t63 -25q52 0 89 43q39 44 39 102q0 41 -23 66t-63 25zM158 732h184l84 -158h-130z" />
    <glyph glyph-name="oacute" unicode="&#xf3;" horiz-adv-x="610" 
d="M342 521q107 0 174 -64t67 -164q0 -139 -94 -221q-94 -83 -221 -83q-107 0 -174 64t-67 164q0 139 93 221q95 83 222 83zM326 373q-51 0 -90 -43q-38 -44 -38 -102q0 -41 23 -66t63 -25q52 0 89 43q39 44 39 102q0 41 -23 66t-63 25zM403 732h212l-195 -158h-141z" />
    <glyph glyph-name="ocircumflex" unicode="&#xf4;" horiz-adv-x="610" 
d="M342 521q107 0 174 -64t67 -164q0 -139 -94 -221q-94 -83 -221 -83q-107 0 -174 64t-67 164q0 139 93 221q95 83 222 83zM326 373q-51 0 -90 -43q-38 -44 -38 -102q0 -41 23 -66t63 -25q52 0 89 43q39 44 39 102q0 41 -23 66t-63 25zM317 732h126l114 -158h-151l-35 68
l-59 -68h-165z" />
    <glyph glyph-name="otilde" unicode="&#xf5;" horiz-adv-x="610" 
d="M312 732q55 0 76 -31q22 -30 49 -30q29 0 39 52h90q-27 -154 -137 -154q-29 0 -49 9.5t-28.5 21t-21 21t-28.5 9.5q-29 0 -39 -52h-90q27 154 139 154zM342 521q107 0 174 -64t67 -164q0 -139 -94 -221q-94 -83 -221 -83q-107 0 -174 64t-67 164q0 139 93 221
q95 83 222 83zM326 373q-51 0 -90 -43q-38 -44 -38 -102q0 -41 23 -66t63 -25q52 0 89 43q39 44 39 102q0 41 -23 66t-63 25z" />
    <glyph glyph-name="odieresis" unicode="&#xf6;" horiz-adv-x="610" 
d="M342 521q107 0 174 -64t67 -164q0 -139 -94 -221q-94 -83 -221 -83q-107 0 -174 64t-67 164q0 139 93 221q95 83 222 83zM326 373q-51 0 -90 -43q-38 -44 -38 -102q0 -41 23 -66t63 -25q52 0 89 43q39 44 39 102q0 41 -23 66t-63 25zM274 729q32 0 52 -19t20 -49
q0 -40 -31 -68t-70 -28q-31 0 -51 18.5t-20 47.5q0 41 30 69q31 29 70 29zM493 729q32 0 52 -19t20 -49q0 -40 -31 -68t-70 -28q-31 0 -51 18.5t-20 47.5q0 41 30 69q31 29 70 29z" />
    <glyph glyph-name="divide" unicode="&#xf7;" horiz-adv-x="472" 
d="M304 639q35 0 57.5 -21t22.5 -53q0 -45 -34 -76q-35 -32 -78 -32q-35 0 -57 21t-22 54q0 44 34 75q35 32 77 32zM234 242q35 0 57.5 -21t22.5 -53q0 -45 -34 -76q-35 -32 -78 -32q-35 0 -57 21t-22 54q0 44 34 75q35 32 77 32zM65 421h412l-25 -143h-412z" />
    <glyph glyph-name="oslash" unicode="&#xf8;" horiz-adv-x="610" 
d="M342 521q50 0 98 -17l69 97l57 -39l-65 -92q82 -66 82 -177q0 -139 -94 -221q-94 -83 -221 -83q-52 0 -97 16l-66 -92l-57 39l62 87q-83 63 -83 178q0 139 93 221q95 83 222 83zM326 373q-51 0 -90 -43q-38 -44 -38 -102q0 -25 11 -49l137 192q-18 2 -20 2zM412 282
q0 24 -11 48l-136 -192q4 -1 19 -1q52 0 89 43q39 44 39 102z" />
    <glyph glyph-name="ugrave" unicode="&#xf9;" 
d="M400 510h163l-89 -510h-138l-2 64q-56 -75 -144 -75q-79 0 -112.5 49.5t-17.5 139.5l58 332h163l-51 -292q-12 -70 36 -70q32 0 55.5 24t31.5 71zM152 732h184l84 -158h-130z" />
    <glyph glyph-name="uacute" unicode="&#xfa;" 
d="M400 510h163l-89 -510h-138l-2 64q-56 -75 -144 -75q-79 0 -112.5 49.5t-17.5 139.5l58 332h163l-51 -292q-12 -70 36 -70q32 0 55.5 24t31.5 71zM397 732h212l-195 -158h-141z" />
    <glyph glyph-name="ucircumflex" unicode="&#xfb;" 
d="M400 510h163l-89 -510h-138l-2 64q-56 -75 -144 -75q-79 0 -112.5 49.5t-17.5 139.5l58 332h163l-51 -292q-12 -70 36 -70q32 0 55.5 24t31.5 71zM311 732h126l114 -158h-151l-35 68l-59 -68h-165z" />
    <glyph glyph-name="udieresis" unicode="&#xfc;" 
d="M400 510h163l-89 -510h-138l-2 64q-56 -75 -144 -75q-79 0 -112.5 49.5t-17.5 139.5l58 332h163l-51 -292q-12 -70 36 -70q32 0 55.5 24t31.5 71zM268 729q32 0 52 -19t20 -49q0 -40 -31 -68t-70 -28q-31 0 -51 18.5t-20 47.5q0 41 30 69q31 29 70 29zM487 729
q32 0 52 -19t20 -49q0 -40 -31 -68t-70 -28q-31 0 -51 18.5t-20 47.5q0 41 30 69q31 29 70 29z" />
    <glyph glyph-name="yacute" unicode="&#xfd;" horiz-adv-x="533" 
d="M396 510h176l-376 -725h-169l111 221l-85 504h176l26 -273l1 -49l18 49zM366 732h212l-195 -158h-141z" />
    <glyph glyph-name="thorn" unicode="&#xfe;" horiz-adv-x="635" 
d="M147 730h163l-46 -261q53 52 149 52q85 0 138 -65q54 -64 54 -159q0 -122 -81 -215t-205 -93q-90 0 -129 63l-47 -267h-163zM349 368q-45 0 -81.5 -30t-45.5 -82v-2q-9 -52 16.5 -82t70.5 -30q51 0 89 39q37 40 37 97q0 39 -25 64.5t-61 25.5z" />
    <glyph glyph-name="ydieresis" unicode="&#xff;" horiz-adv-x="533" 
d="M396 510h176l-376 -725h-169l111 221l-85 504h176l26 -273l1 -49l18 49zM237 729q32 0 52 -19t20 -49q0 -40 -31 -68t-70 -28q-31 0 -51 18.5t-20 47.5q0 41 30 69q31 29 70 29zM456 729q32 0 52 -19t20 -49q0 -40 -31 -68t-70 -28q-31 0 -51 18.5t-20 47.5q0 41 30 69
q31 29 70 29z" />
    <glyph glyph-name="Amacron" unicode="&#x100;" horiz-adv-x="746" 
d="M357 700h194l141 -700h-183l-24 132h-256l-70 -132h-188zM426 455l-6 41l-20 -41l-92 -176h150zM337 853h292l-21 -116h-292z" />
    <glyph glyph-name="amacron" unicode="&#x101;" horiz-adv-x="633" 
d="M313 521q106 0 139 -81l24 70h138l-90 -510h-138l-2 58q-57 -69 -165 -69q-85 0 -139 64q-53 65 -53 160q0 122 81 215t205 93zM323 368q-52 0 -89 -40q-37 -38 -37 -96q0 -39 25 -64.5t61 -25.5q42 0 80 29q40 30 47 81l1 6q8 49 -18 79.5t-70 30.5zM238 699h292
l-20 -116h-292z" />
    <glyph glyph-name="Abreve" unicode="&#x102;" horiz-adv-x="746" 
d="M357 700h194l141 -700h-183l-24 132h-256l-70 -132h-188zM426 455l-6 41l-20 -41l-92 -176h150zM533 880h125q-12 -69 -63.5 -110.5t-126.5 -41.5q-76 0 -121 42q-45 43 -33 110h125q-4 -22 6.5 -36.5t31.5 -14.5t36.5 14.5t19.5 36.5z" />
    <glyph glyph-name="abreve" unicode="&#x103;" horiz-adv-x="633" 
d="M313 521q106 0 139 -81l24 70h138l-90 -510h-138l-2 58q-57 -69 -165 -69q-85 0 -139 64q-53 65 -53 160q0 122 81 215t205 93zM323 368q-52 0 -89 -40q-37 -38 -37 -96q0 -39 25 -64.5t61 -25.5q42 0 80 29q40 30 47 81l1 6q8 49 -18 79.5t-70 30.5zM434 719h125
q-13 -74 -65 -118t-127 -44t-120 45q-44 45 -32 117h125q-5 -27 4.5 -44t31.5 -17q21 0 37 17t21 44z" />
    <glyph glyph-name="Aogonek" unicode="&#x104;" horiz-adv-x="746" 
d="M357 700h194l141 -700h-54q-94 -34 -94 -101q0 -34 40 -34q16 0 40 8l3 -69q-23 -12 -56 -12q-55 0 -88.5 28t-33.5 75q0 68 59 107l-23 130h-256l-70 -132h-188zM426 455l-6 41l-20 -41l-92 -176h150z" />
    <glyph glyph-name="aogonek" unicode="&#x105;" horiz-adv-x="633" 
d="M313 521q106 0 139 -81l24 70h138l-90 -510h-6q-94 -34 -94 -101q0 -34 40 -34q16 0 40 8l3 -69q-23 -12 -56 -12q-55 0 -88.5 28t-33.5 75q0 66 57 105l-2 58q-57 -69 -165 -69q-85 0 -139 64q-53 65 -53 160q0 122 81 215t205 93zM323 368q-52 0 -89 -40
q-37 -38 -37 -96q0 -39 25 -64.5t61 -25.5q42 0 80 29q40 30 47 81l1 6q8 49 -18 79.5t-70 30.5z" />
    <glyph glyph-name="Cacute" unicode="&#x106;" horiz-adv-x="744" 
d="M460 713q129 0 206 -71q76 -70 90 -181h-189q-9 47 -38.5 69t-86.5 22q-95 0 -154 -77q-58 -76 -58 -181q0 -67 38.5 -106.5t104.5 -39.5q117 0 168 100h180q-103 -261 -360 -261q-140 0 -226 86q-85 85 -85 219q0 177 115 298q115 123 295 123zM487 873h235l-181 -128
h-162z" />
    <glyph glyph-name="cacute" unicode="&#x107;" horiz-adv-x="567" 
d="M326 521q97 0 158 -55q62 -55 58 -152h-155q-8 59 -73 59q-50 0 -84 -45q-33 -44 -33 -100q0 -41 22.5 -66t60.5 -25q30 0 54 16.5t34 42.5h157q-36 -107 -102 -157t-166 -50q-101 0 -166 63q-64 63 -64 163q0 128 83 217q84 89 216 89zM395 732h212l-195 -158h-141z" />
    <glyph glyph-name="Ccircumflex" unicode="&#x108;" horiz-adv-x="744" 
d="M460 713q129 0 206 -71q76 -70 90 -181h-189q-9 47 -38.5 69t-86.5 22q-95 0 -154 -77q-58 -76 -58 -181q0 -67 38.5 -106.5t104.5 -39.5q117 0 168 100h180q-103 -261 -360 -261q-140 0 -226 86q-85 85 -85 219q0 177 115 298q115 123 295 123zM443 882h86l138 -138
h-156l-33 48l-51 -48h-170z" />
    <glyph glyph-name="ccircumflex" unicode="&#x109;" horiz-adv-x="567" 
d="M326 521q97 0 158 -55q62 -55 58 -152h-155q-8 59 -73 59q-50 0 -84 -45q-33 -44 -33 -100q0 -41 22.5 -66t60.5 -25q30 0 54 16.5t34 42.5h157q-36 -107 -102 -157t-166 -50q-101 0 -166 63q-64 63 -64 163q0 128 83 217q84 89 216 89zM309 732h126l114 -158h-151
l-35 68l-59 -68h-165z" />
    <glyph glyph-name="Cdotaccent" unicode="&#x10a;" horiz-adv-x="744" 
d="M460 713q129 0 206 -71q76 -70 90 -181h-189q-9 47 -38.5 69t-86.5 22q-95 0 -154 -77q-58 -76 -58 -181q0 -67 38.5 -106.5t104.5 -39.5q117 0 168 100h180q-103 -261 -360 -261q-140 0 -226 86q-85 85 -85 219q0 177 115 298q115 123 295 123zM497 905q32 0 52.5 -19.5
t20.5 -50.5q0 -40 -32 -69t-71 -29q-32 0 -52 19.5t-20 49.5q0 42 31 70q32 29 71 29z" />
    <glyph glyph-name="cdotaccent" unicode="&#x10b;" horiz-adv-x="567" 
d="M326 521q97 0 158 -55q62 -55 58 -152h-155q-8 59 -73 59q-50 0 -84 -45q-33 -44 -33 -100q0 -41 22.5 -66t60.5 -25q30 0 54 16.5t34 42.5h157q-36 -107 -102 -157t-166 -50q-101 0 -166 63q-64 63 -64 163q0 128 83 217q84 89 216 89zM380 744q35 0 57 -21t22 -54
q0 -45 -34 -76q-32 -31 -77 -31q-35 0 -57 21t-22 54q0 44 34 75q35 32 77 32z" />
    <glyph glyph-name="Ccaron" unicode="&#x10c;" horiz-adv-x="744" 
d="M460 713q129 0 206 -71q76 -70 90 -181h-189q-9 47 -38.5 69t-86.5 22q-95 0 -154 -77q-58 -76 -58 -181q0 -67 38.5 -106.5t104.5 -39.5q117 0 168 100h180q-103 -261 -360 -261q-140 0 -226 86q-85 85 -85 219q0 177 115 298q115 123 295 123zM533 879h169l-186 -138
h-86l-138 138h157l34 -48z" />
    <glyph glyph-name="ccaron" unicode="&#x10d;" horiz-adv-x="567" 
d="M326 521q97 0 158 -55q62 -55 58 -152h-155q-8 59 -73 59q-50 0 -84 -45q-33 -44 -33 -100q0 -41 22.5 -66t60.5 -25q30 0 54 16.5t34 42.5h157q-36 -107 -102 -157t-166 -50q-101 0 -166 63q-64 63 -64 163q0 128 83 217q84 89 216 89zM423 722h164l-170 -158h-126
l-114 158h152l35 -68z" />
    <glyph glyph-name="Dcaron" unicode="&#x10e;" horiz-adv-x="736" 
d="M146 700h260q146 0 233 -84q87 -82 87 -213q0 -181 -119 -292t-304 -111h-280zM388 539h-97l-67 -378h97q104 0 164 66q61 67 61 174q0 67 -40 102.5t-118 35.5zM513 869h169l-186 -138h-86l-138 138h157l34 -48z" />
    <glyph glyph-name="dcaron" unicode="&#x10f;" horiz-adv-x="808" 
d="M482 730h163l-129 -730h-138l-3 58q-57 -69 -165 -69q-85 0 -139 64q-53 65 -53 160q0 122 81 215t205 93q91 0 130 -63zM314 368q-52 0 -89 -40q-37 -38 -37 -96q0 -39 25 -64.5t61 -25.5q42 0 80 29q40 30 47 81l1 6q8 49 -18 79.5t-70 30.5zM790 746q40 0 61 -27.5
t13 -71.5q-19 -104 -127 -204l-41 15q30 52 47 115q-33 5 -49.5 28t-10.5 56q7 37 38 63t69 26z" />
    <glyph glyph-name="Dcroat" unicode="&#x110;" horiz-adv-x="746" 
d="M156 700h260q146 0 233 -84q87 -82 87 -213q0 -181 -119 -292t-304 -111h-280l54 310h-63l20 116h64zM398 539h-97l-20 -113h75l-20 -116h-76l-26 -149h97q104 0 164 66q61 67 61 174q0 67 -40 102.5t-118 35.5z" />
    <glyph glyph-name="dslash" unicode="&#x111;" horiz-adv-x="638" 
d="M482 730h163l-7 -36h55l-21 -116h-54l-102 -578h-138l-3 58q-57 -69 -165 -69q-85 0 -139 64q-53 65 -53 160q0 122 81 215t205 93q91 0 130 -63l21 120h-85l21 116h84zM314 368q-52 0 -89 -40q-37 -38 -37 -96q0 -39 25 -64.5t61 -25.5q42 0 80 29q40 30 47 81l1 6
q8 49 -18 79.5t-70 30.5z" />
    <glyph glyph-name="Emacron" unicode="&#x112;" horiz-adv-x="525" 
d="M146 700h417l-28 -161h-244l-18 -100h207l-28 -161h-207l-21 -117h244l-28 -161h-417zM237 853h292l-21 -116h-292z" />
    <glyph glyph-name="emacron" unicode="&#x113;" horiz-adv-x="563" 
d="M319 521q109 0 169 -71q60 -70 37 -209l-5 -30h-330q-1 -3 -1 -13q0 -33 21.5 -53.5t59.5 -20.5q61 0 82 41h161q-81 -176 -262 -176q-101 0 -163 62q-61 62 -61 164q0 128 80 217q81 89 212 89zM215 699h292l-20 -116h-292zM307 392q-39 0 -65.5 -21.5t-33.5 -60.5h166
q5 37 -13 59.5t-54 22.5z" />
    <glyph glyph-name="Ebreve" unicode="&#x114;" horiz-adv-x="525" 
d="M146 700h417l-28 -161h-244l-18 -100h207l-28 -161h-207l-21 -117h244l-28 -161h-417zM433 880h125q-12 -69 -63.5 -110.5t-126.5 -41.5q-76 0 -121 42q-45 43 -33 110h125q-4 -22 6.5 -36.5t31.5 -14.5t36.5 14.5t19.5 36.5z" />
    <glyph glyph-name="ebreve" unicode="&#x115;" horiz-adv-x="563" 
d="M319 521q109 0 169 -71q60 -70 37 -209l-5 -30h-330q-1 -3 -1 -13q0 -33 21.5 -53.5t59.5 -20.5q61 0 82 41h161q-81 -176 -262 -176q-101 0 -163 62q-61 62 -61 164q0 128 80 217q81 89 212 89zM411 719h125q-13 -74 -65 -118t-127 -44t-120 45q-44 45 -32 117h125
q-5 -27 4.5 -44t31.5 -17q21 0 37 17t21 44zM307 392q-39 0 -65.5 -21.5t-33.5 -60.5h166q5 37 -13 59.5t-54 22.5z" />
    <glyph glyph-name="Edotaccent" unicode="&#x116;" horiz-adv-x="525" 
d="M146 700h417l-28 -161h-244l-18 -100h207l-28 -161h-207l-21 -117h244l-28 -161h-417zM390 895q32 0 52.5 -19.5t20.5 -50.5q0 -40 -32 -69t-71 -29q-32 0 -52 19.5t-20 49.5q0 42 31 70q32 29 71 29z" />
    <glyph glyph-name="edotaccent" unicode="&#x117;" horiz-adv-x="563" 
d="M319 521q109 0 169 -71q60 -70 37 -209l-5 -30h-330q-1 -3 -1 -13q0 -33 21.5 -53.5t59.5 -20.5q61 0 82 41h161q-81 -176 -262 -176q-101 0 -163 62q-61 62 -61 164q0 128 80 217q81 89 212 89zM369 744q35 0 57 -21t22 -54q0 -45 -34 -76q-32 -31 -77 -31q-35 0 -57 21
t-22 54q0 44 34 75q35 32 77 32zM307 392q-39 0 -65.5 -21.5t-33.5 -60.5h166q5 37 -13 59.5t-54 22.5z" />
    <glyph glyph-name="Eogonek" unicode="&#x118;" horiz-adv-x="525" 
d="M146 700h417l-28 -161h-244l-18 -100h207l-28 -161h-207l-21 -117h244l-28 -161h-8q-94 -34 -94 -101q0 -34 40 -34q16 0 40 8l3 -69q-23 -12 -56 -12q-55 0 -88.5 28t-33.5 75q0 64 56 105h-276z" />
    <glyph glyph-name="eogonek" unicode="&#x119;" horiz-adv-x="563" 
d="M319 521q109 0 169 -71q60 -70 37 -209l-5 -30h-330q-1 -3 -1 -13q0 -33 21.5 -53.5t59.5 -20.5q61 0 82 41h161q-60 -133 -177 -165q-54 -32 -54 -83q0 -34 40 -34q16 0 40 8l3 -69q-23 -12 -56 -12q-55 0 -88.5 28t-33.5 75q0 45 27 78q-87 11 -137 72t-50 152
q0 128 80 217q81 89 212 89zM307 392q-39 0 -65.5 -21.5t-33.5 -60.5h166q5 37 -13 59.5t-54 22.5z" />
    <glyph glyph-name="Ecaron" unicode="&#x11a;" horiz-adv-x="525" 
d="M146 700h417l-28 -161h-244l-18 -100h207l-28 -161h-207l-21 -117h244l-28 -161h-417zM426 869h169l-186 -138h-86l-138 138h157l34 -48z" />
    <glyph glyph-name="ecaron" unicode="&#x11b;" horiz-adv-x="563" 
d="M319 521q109 0 169 -71q60 -70 37 -209l-5 -30h-330q-1 -3 -1 -13q0 -33 21.5 -53.5t59.5 -20.5q61 0 82 41h161q-81 -176 -262 -176q-101 0 -163 62q-61 62 -61 164q0 128 80 217q81 89 212 89zM412 722h164l-170 -158h-126l-114 158h152l35 -68zM307 392
q-39 0 -65.5 -21.5t-33.5 -60.5h166q5 37 -13 59.5t-54 22.5z" />
    <glyph glyph-name="Gcircumflex" unicode="&#x11c;" horiz-adv-x="772" 
d="M460 713q129 0 206 -71q76 -70 90 -181h-189q-9 47 -38.5 69t-86.5 22q-95 0 -154 -77q-58 -76 -58 -181q0 -67 38.5 -106.5t104.5 -39.5q58 0 99 22.5t56 61.5h-130l28 161h319l-13 -72q-28 -160 -121 -247t-250 -87q-140 0 -226 86q-85 85 -85 219q0 177 115 298
q115 123 295 123zM446 882h86l138 -138h-156l-33 48l-51 -48h-170z" />
    <glyph glyph-name="gcircumflex" unicode="&#x11d;" horiz-adv-x="623" 
d="M317 368q-40 0 -71.5 -28.5t-40.5 -74.5q-8 -46 14 -74.5t62 -28.5q44 0 79.5 26.5t44.5 70.5l1 7q6 49 -19 75.5t-70 26.5zM307 521q101 0 139 -75l24 64h138l-90 -511q-18 -107 -98 -166t-198 -59q-114 0 -176 53.5t-57 157.5h157q0 -64 92 -64q47 0 80 25.5t39 64.5
l10 55q-25 -25 -65 -41t-85 -16q-96 0 -149 71q-52 71 -32 185q19 113 97 185q79 71 174 71zM320 732h126l114 -158h-151l-35 68l-59 -68h-165z" />
    <glyph glyph-name="Gbreve" unicode="&#x11e;" horiz-adv-x="772" 
d="M460 713q129 0 206 -71q76 -70 90 -181h-189q-9 47 -38.5 69t-86.5 22q-95 0 -154 -77q-58 -76 -58 -181q0 -67 38.5 -106.5t104.5 -39.5q58 0 99 22.5t56 61.5h-130l28 161h319l-13 -72q-28 -160 -121 -247t-250 -87q-140 0 -226 86q-85 85 -85 219q0 177 115 298
q115 123 295 123zM543 890h125q-12 -69 -63.5 -110.5t-126.5 -41.5q-76 0 -121 42q-45 43 -33 110h125q-4 -22 6.5 -36.5t31.5 -14.5t36.5 14.5t19.5 36.5z" />
    <glyph glyph-name="gbreve" unicode="&#x11f;" horiz-adv-x="623" 
d="M317 368q-40 0 -71.5 -28.5t-40.5 -74.5q-8 -46 14 -74.5t62 -28.5q44 0 79.5 26.5t44.5 70.5l1 7q6 49 -19 75.5t-70 26.5zM307 521q101 0 139 -75l24 64h138l-90 -511q-18 -107 -98 -166t-198 -59q-114 0 -176 53.5t-57 157.5h157q0 -64 92 -64q47 0 80 25.5t39 64.5
l10 55q-25 -25 -65 -41t-85 -16q-96 0 -149 71q-52 71 -32 185q19 113 97 185q79 71 174 71zM433 719h125q-13 -74 -65 -118t-127 -44t-120 45q-44 45 -32 117h125q-5 -27 4.5 -44t31.5 -17q21 0 37 17t21 44z" />
    <glyph glyph-name="Gdotaccent" unicode="&#x120;" horiz-adv-x="772" 
d="M460 713q129 0 206 -71q76 -70 90 -181h-189q-9 47 -38.5 69t-86.5 22q-95 0 -154 -77q-58 -76 -58 -181q0 -67 38.5 -106.5t104.5 -39.5q58 0 99 22.5t56 61.5h-130l28 161h319l-13 -72q-28 -160 -121 -247t-250 -87q-140 0 -226 86q-85 85 -85 219q0 177 115 298
q115 123 295 123zM500 905q32 0 52.5 -19.5t20.5 -50.5q0 -40 -32 -69t-71 -29q-32 0 -52 19.5t-20 49.5q0 42 31 70q32 29 71 29z" />
    <glyph glyph-name="gdotaccent" unicode="&#x121;" horiz-adv-x="623" 
d="M317 368q-40 0 -71.5 -28.5t-40.5 -74.5q-8 -46 14 -74.5t62 -28.5q44 0 79.5 26.5t44.5 70.5l1 7q6 49 -19 75.5t-70 26.5zM307 521q101 0 139 -75l24 64h138l-90 -511q-18 -107 -98 -166t-198 -59q-114 0 -176 53.5t-57 157.5h157q0 -64 92 -64q47 0 80 25.5t39 64.5
l10 55q-25 -25 -65 -41t-85 -16q-96 0 -149 71q-52 71 -32 185q19 113 97 185q79 71 174 71zM391 744q35 0 57 -21t22 -54q0 -45 -34 -76q-32 -31 -77 -31q-35 0 -57 21t-22 54q0 44 34 75q35 32 77 32z" />
    <glyph glyph-name="Gcommaaccent" unicode="&#x122;" horiz-adv-x="772" 
d="M460 713q129 0 206 -71q76 -70 90 -181h-189q-9 47 -38.5 69t-86.5 22q-95 0 -154 -77q-58 -76 -58 -181q0 -67 38.5 -106.5t104.5 -39.5q58 0 99 22.5t56 61.5h-130l28 161h319l-13 -72q-28 -160 -121 -247t-250 -87q-140 0 -226 86q-85 85 -85 219q0 177 115 298
q115 123 295 123zM329 -43q34 0 55.5 -21t21.5 -57q0 -49 -37 -104q-39 -60 -89 -101l-41 15q27 39 44 95q-28 4 -45.5 22.5t-17.5 45.5q0 42 33 74q32 31 76 31z" />
    <glyph glyph-name="gcommaaccent" unicode="&#x123;" horiz-adv-x="623" 
d="M317 368q-40 0 -71.5 -28.5t-40.5 -74.5q-8 -46 14 -74.5t62 -28.5q44 0 79.5 26.5t44.5 70.5l1 7q6 49 -19 75.5t-70 26.5zM307 521q101 0 139 -75l24 64h138l-90 -511q-18 -107 -98 -166t-198 -59q-114 0 -176 53.5t-57 157.5h157q0 -64 92 -64q47 0 80 25.5t39 64.5
l10 55q-25 -25 -65 -41t-85 -16q-96 0 -149 71q-52 71 -32 185q19 113 97 185q79 71 174 71z" />
    <glyph glyph-name="Hcircumflex" unicode="&#x124;" horiz-adv-x="723" 
d="M566 700h173l-123 -700h-173l49 282h-247l-49 -282h-173l123 700h173l-45 -257h247zM418 872h86l138 -138h-156l-33 48l-51 -48h-170z" />
    <glyph glyph-name="hcircumflex" unicode="&#x125;" horiz-adv-x="567" 
d="M147 730h163l-47 -267q55 58 131 58q79 0 112.5 -49.5t18.5 -139.5l-59 -332h-163l52 292q12 70 -37 70q-32 0 -56.5 -24t-33.5 -71l-47 -267h-163zM218 919h86l138 -138h-156l-33 48l-51 -48h-170z" />
    <glyph glyph-name="Hbar" unicode="&#x126;" horiz-adv-x="743" 
d="M576 700h173l-11 -61h66l-21 -116h-65l-92 -523h-173l49 282h-247l-49 -282h-173l92 523h-65l21 116h64l11 61h173l-11 -61h247zM298 523l-14 -80h247l14 80h-247z" />
    <glyph glyph-name="hbar" unicode="&#x127;" horiz-adv-x="572" 
d="M152 730h163l-7 -36h75l-21 -116h-74l-20 -115q55 58 131 58q79 0 112.5 -49.5t18.5 -139.5l-59 -332h-163l52 292q12 70 -37 70q-32 0 -56.5 -24t-33.5 -71l-47 -267h-163l102 578h-65l21 116h64z" />
    <glyph glyph-name="Itilde" unicode="&#x128;" horiz-adv-x="303" 
d="M192 886q55 0 76 -31q22 -30 49 -30q32 0 39 52h90q-27 -154 -137 -154q-29 0 -49 9.5t-28 21t-20.5 21t-28.5 9.5q-32 0 -39 -52h-90q27 154 138 154zM146 700h173l-123 -700h-173z" />
    <glyph glyph-name="itilde" unicode="&#x129;" horiz-adv-x="289" 
d="M154 732q55 0 76 -31q22 -30 49 -30q29 0 39 52h90q-27 -154 -137 -154q-29 0 -49 9.5t-28.5 21t-21 21t-28.5 9.5q-29 0 -39 -52h-90q27 154 139 154zM108 510h163l-90 -510h-163z" />
    <glyph glyph-name="Imacron" unicode="&#x12a;" horiz-adv-x="303" 
d="M146 700h173l-123 -700h-173zM116 853h292l-21 -116h-292z" />
    <glyph glyph-name="imacron" unicode="&#x12b;" horiz-adv-x="289" 
d="M108 510h163l-90 -510h-163zM76 699h292l-20 -116h-292z" />
    <glyph glyph-name="Ibreve" unicode="&#x12c;" horiz-adv-x="303" 
d="M146 700h173l-123 -700h-173zM312 880h125q-12 -69 -63.5 -110.5t-126.5 -41.5q-76 0 -121 42q-45 43 -33 110h125q-4 -22 6.5 -36.5t31.5 -14.5t36.5 14.5t19.5 36.5z" />
    <glyph glyph-name="ibreve" unicode="&#x12d;" horiz-adv-x="289" 
d="M108 510h163l-90 -510h-163zM272 719h125q-13 -74 -65 -118t-127 -44t-120 45q-44 45 -32 117h125q-5 -27 4.5 -44t31.5 -17q21 0 37 17t21 44z" />
    <glyph glyph-name="Iogonek" unicode="&#x12e;" horiz-adv-x="303" 
d="M146 700h173l-123 -700h-42q-94 -34 -94 -101q0 -34 40 -34q16 0 40 8l3 -69q-23 -12 -56 -12q-55 0 -88.5 28t-33.5 75q0 66 58 106z" />
    <glyph glyph-name="iogonek" unicode="&#x12f;" horiz-adv-x="289" 
d="M108 510h163l-90 -510h-44q-94 -34 -94 -101q0 -34 40 -34q16 0 40 8l3 -69q-23 -12 -56 -12q-55 0 -88.5 28t-33.5 75q0 73 72 115zM159 718q32 26 71 26t62 -26q23 -27 16 -65q-8 -40 -39 -65q-32 -26 -71 -26t-62 26t-15 65q8 41 38 65z" />
    <glyph glyph-name="Idot" unicode="&#x130;" horiz-adv-x="303" 
d="M146 700h173l-123 -700h-173zM269 895q32 0 52.5 -19.5t20.5 -50.5q0 -40 -32 -69t-71 -29q-32 0 -52 19.5t-20 49.5q0 42 31 70q32 29 71 29z" />
    <glyph glyph-name="dotlessi" unicode="&#x131;" horiz-adv-x="289" 
d="M108 510h163l-90 -510h-163z" />
    <glyph glyph-name="Jcircumflex" unicode="&#x134;" horiz-adv-x="554" 
d="M415 700h173l-84 -476q-40 -229 -252 -229q-112 0 -170 72q-59 72 -48 179h173q-12 -89 55 -89q59 0 72 79zM485 872h86l138 -138h-156l-33 48l-51 -48h-170z" />
    <glyph glyph-name="jcircumflex" unicode="&#x135;" horiz-adv-x="289" 
d="M108 510h163l-90 -508q-40 -228 -226 -228q-59 0 -94 11l25 145q24 -9 61 -9q57 0 72 86zM160 732h126l114 -158h-151l-35 68l-59 -68h-165z" />
    <glyph glyph-name="Kcommaaccent" unicode="&#x136;" horiz-adv-x="692" 
d="M519 700h218l-267 -324l166 -376h-186l-111 248l-122 -127l-21 -121h-173l123 700h173l-54 -310zM316 -33q34 0 55.5 -21t21.5 -57q0 -49 -37 -104q-39 -60 -89 -101l-41 15q27 39 44 95q-28 4 -45.5 22.5t-17.5 45.5q0 42 33 74q32 31 76 31z" />
    <glyph glyph-name="kcommaaccent" unicode="&#x137;" horiz-adv-x="571" 
d="M147 730h163l-71 -403l149 183h192l-175 -216l112 -294h-186l-63 168l-70 -76l-17 -92h-163zM246 -33q34 0 55.5 -21t21.5 -57q0 -49 -37 -104q-39 -60 -89 -101l-41 15q27 39 44 95q-28 4 -45.5 22.5t-17.5 45.5q0 42 33 74q32 31 76 31z" />
    <glyph glyph-name="Lacute" unicode="&#x139;" horiz-adv-x="537" 
d="M146 700h173l-95 -539h275l-28 -161h-448zM254 863h235l-181 -128h-162z" />
    <glyph glyph-name="lacute" unicode="&#x13a;" horiz-adv-x="289" 
d="M147 730h163l-129 -730h-163zM291 932h212l-195 -158h-141z" />
    <glyph glyph-name="Lcommaaccent" unicode="&#x13b;" horiz-adv-x="537" 
d="M146 700h173l-95 -539h275l-28 -161h-448zM253 -33q34 0 55.5 -21t21.5 -57q0 -49 -37 -104q-39 -60 -89 -101l-41 15q27 39 44 95q-28 4 -45.5 22.5t-17.5 45.5q0 42 33 74q32 31 76 31z" />
    <glyph glyph-name="lcommaaccent" unicode="&#x13c;" horiz-adv-x="289" 
d="M147 730h163l-129 -730h-163zM88 -33q34 0 55.5 -21t21.5 -57q0 -49 -37 -104q-39 -60 -89 -101l-41 15q27 39 44 95q-28 4 -45.5 22.5t-17.5 45.5q0 42 33 74q32 31 76 31z" />
    <glyph glyph-name="Lcaron" unicode="&#x13d;" horiz-adv-x="537" 
d="M146 700h173l-95 -539h275l-28 -161h-448zM524 705q40 0 61 -27.5t13 -71.5q-19 -104 -127 -204l-41 15q30 52 47 115q-33 5 -49.5 28t-10.5 56q7 37 38 63t69 26z" />
    <glyph glyph-name="lcaron" unicode="&#x13e;" horiz-adv-x="464" 
d="M147 730h163l-129 -730h-163zM456 746q40 0 61 -27.5t13 -71.5q-19 -104 -127 -204l-41 15q30 52 47 115q-33 5 -49.5 28t-10.5 56q7 37 38 63t69 26z" />
    <glyph glyph-name="Ldot" unicode="&#x13f;" horiz-adv-x="537" 
d="M146 700h173l-95 -539h275l-28 -161h-448zM473 462q35 0 57.5 -21t22.5 -53q0 -45 -34 -76q-35 -32 -78 -32q-35 0 -57 21t-22 54q0 44 34 75q35 32 77 32z" />
    <glyph glyph-name="ldot" unicode="&#x140;" horiz-adv-x="496" 
d="M115 730h163l-129 -730h-163zM393 350q35 0 57.5 -21t22.5 -53q0 -45 -34 -76q-35 -32 -78 -32q-35 0 -57 21t-22 54q0 44 34 75q35 32 77 32z" />
    <glyph glyph-name="Lslash" unicode="&#x141;" horiz-adv-x="561" 
d="M170 700h173l-50 -281l67 20l31 -105l-119 -36l-24 -137h275l-28 -161h-448l42 242l-67 -20l-31 106l120 36z" />
    <glyph glyph-name="lslash" unicode="&#x142;" horiz-adv-x="343" 
d="M167 730h163l-54 -301l60 18l31 -106l-112 -35l-54 -306h-163l45 253l-60 -18l-32 106l113 35z" />
    <glyph glyph-name="Nacute" unicode="&#x143;" horiz-adv-x="736" 
d="M579 700h173l-123 -700h-152l-189 360l-20 46l-72 -406h-173l123 700h153l187 -363l21 -47zM467 863h235l-181 -128h-162z" />
    <glyph glyph-name="nacute" unicode="&#x144;" horiz-adv-x="567" 
d="M393 521q80 0 113.5 -49.5t17.5 -139.5l-58 -332h-163l51 292q12 70 -36 70q-33 0 -57.5 -24t-32.5 -71l-47 -267h-163l90 510h138l1 -64q55 75 146 75zM392 732h212l-195 -158h-141z" />
    <glyph glyph-name="Ncommaaccent" unicode="&#x145;" horiz-adv-x="736" 
d="M579 700h173l-123 -700h-152l-189 360l-20 46l-72 -406h-173l123 700h153l187 -363l21 -47zM325 -33q34 0 55.5 -21t21.5 -57q0 -49 -37 -104q-39 -60 -89 -101l-41 15q27 39 44 95q-28 4 -45.5 22.5t-17.5 45.5q0 42 33 74q32 31 76 31z" />
    <glyph glyph-name="ncommaaccent" unicode="&#x146;" horiz-adv-x="567" 
d="M393 521q80 0 113.5 -49.5t17.5 -139.5l-58 -332h-163l51 292q12 70 -36 70q-33 0 -57.5 -24t-32.5 -71l-47 -267h-163l90 510h138l1 -64q55 75 146 75zM233 -33q34 0 55.5 -21t21.5 -57q0 -49 -37 -104q-39 -60 -89 -101l-41 15q27 39 44 95q-28 4 -45.5 22.5
t-17.5 45.5q0 42 33 74q32 31 76 31z" />
    <glyph glyph-name="Ncaron" unicode="&#x147;" horiz-adv-x="736" 
d="M579 700h173l-123 -700h-152l-189 360l-20 46l-72 -406h-173l123 700h153l187 -363l21 -47zM513 869h169l-186 -138h-86l-138 138h157l34 -48z" />
    <glyph glyph-name="ncaron" unicode="&#x148;" horiz-adv-x="567" 
d="M393 521q80 0 113.5 -49.5t17.5 -139.5l-58 -332h-163l51 292q12 70 -36 70q-33 0 -57.5 -24t-32.5 -71l-47 -267h-163l90 510h138l1 -64q55 75 146 75zM420 722h164l-170 -158h-126l-114 158h152l35 -68z" />
    <glyph glyph-name="Eng" unicode="&#x14a;" horiz-adv-x="746" 
d="M579 700h173l-120 -686q-40 -229 -281 -229l26 152q70 0 80 67l4 25l-173 331l-20 46l-72 -406h-173l123 700h153l187 -363l21 -47z" />
    <glyph glyph-name="eng" unicode="&#x14b;" horiz-adv-x="567" 
d="M393 521q80 0 113.5 -49.5t17.5 -139.5l-58 -330q-20 -113 -92.5 -170.5t-188.5 -57.5l26 147q40 0 62.5 20.5t30.5 65.5l50 285q12 70 -42 70q-31 0 -53.5 -24t-30.5 -71l-47 -267h-163l89 510h138l2 -64q55 75 146 75z" />
    <glyph glyph-name="Omacron" unicode="&#x14c;" horiz-adv-x="802" 
d="M464 713q148 0 238 -90q91 -88 91 -225q0 -121 -58.5 -216t-153 -145t-205.5 -50q-148 0 -237 88q-89 89 -89 223q0 184 121 299q122 116 293 116zM456 552q-98 0 -162 -72q-64 -70 -64 -176q0 -72 41 -114t114 -42q96 0 162 71q66 72 66 177q0 72 -41.5 114t-115.5 42z
M351 863h292l-21 -116h-292z" />
    <glyph glyph-name="omacron" unicode="&#x14d;" horiz-adv-x="610" 
d="M342 521q107 0 174 -64t67 -164q0 -139 -94 -221q-94 -83 -221 -83q-107 0 -174 64t-67 164q0 139 93 221q95 83 222 83zM326 373q-51 0 -90 -43q-38 -44 -38 -102q0 -41 23 -66t63 -25q52 0 89 43q39 44 39 102q0 41 -23 66t-63 25zM234 699h292l-20 -116h-292z" />
    <glyph glyph-name="Obreve" unicode="&#x14e;" horiz-adv-x="802" 
d="M464 713q148 0 238 -90q91 -88 91 -225q0 -121 -58.5 -216t-153 -145t-205.5 -50q-148 0 -237 88q-89 89 -89 223q0 184 121 299q122 116 293 116zM456 552q-98 0 -162 -72q-64 -70 -64 -176q0 -72 41 -114t114 -42q96 0 162 71q66 72 66 177q0 72 -41.5 114t-115.5 42z
M547 890h125q-12 -69 -63.5 -110.5t-126.5 -41.5q-76 0 -121 42q-45 43 -33 110h125q-4 -22 6.5 -36.5t31.5 -14.5t36.5 14.5t19.5 36.5z" />
    <glyph glyph-name="obreve" unicode="&#x14f;" horiz-adv-x="610" 
d="M342 521q107 0 174 -64t67 -164q0 -139 -94 -221q-94 -83 -221 -83q-107 0 -174 64t-67 164q0 139 93 221q95 83 222 83zM326 373q-51 0 -90 -43q-38 -44 -38 -102q0 -41 23 -66t63 -25q52 0 89 43q39 44 39 102q0 41 -23 66t-63 25zM430 719h125q-13 -74 -65 -118
t-127 -44t-120 45q-44 45 -32 117h125q-5 -27 4.5 -44t31.5 -17q21 0 37 17t21 44z" />
    <glyph glyph-name="Ohungarumlaut" unicode="&#x150;" horiz-adv-x="802" 
d="M464 713q148 0 238 -90q91 -88 91 -225q0 -121 -58.5 -216t-153 -145t-205.5 -50q-148 0 -237 88q-89 89 -89 223q0 184 121 299q122 116 293 116zM456 552q-98 0 -162 -72q-64 -70 -64 -176q0 -72 41 -114t114 -42q96 0 162 71q66 72 66 177q0 72 -41.5 114t-115.5 42z
M398 881h160l-132 -141h-130zM612 881h160l-132 -141h-130z" />
    <glyph glyph-name="ohungarumlaut" unicode="&#x151;" horiz-adv-x="610" 
d="M342 521q107 0 174 -64t67 -164q0 -139 -94 -221q-94 -83 -221 -83q-107 0 -174 64t-67 164q0 139 93 221q95 83 222 83zM326 373q-51 0 -90 -43q-38 -44 -38 -102q0 -41 23 -66t63 -25q52 0 89 43q39 44 39 102q0 41 -23 66t-63 25zM282 732h160l-135 -158h-130z
M496 732h160l-135 -158h-130z" />
    <glyph glyph-name="OE" unicode="&#x152;" horiz-adv-x="1051" 
d="M672 700h417l-28 -161h-244l-18 -100h207l-28 -161h-207l-21 -117h244l-28 -161h-417l7 42q-92 -55 -197 -55q-136 0 -223 88q-86 89 -86 223q0 183 122 299q124 116 301 116q115 0 192 -51zM456 552q-98 0 -162 -72q-64 -70 -64 -176q0 -72 41 -114t114 -42q96 0 162 71
q66 72 66 177q0 72 -41.5 114t-115.5 42z" />
    <glyph glyph-name="oe" unicode="&#x153;" horiz-adv-x="942" 
d="M700 521q109 0 169 -71q60 -70 37 -209l-5 -30h-329l-2 -10v-3q0 -33 21.5 -53.5t59.5 -20.5q61 0 82 41h161q-81 -176 -262 -176q-104 0 -165 64q-85 -64 -199 -64q-107 0 -174 64t-67 164q0 139 93 221q95 83 222 83q106 0 173 -64q76 64 185 64zM326 373
q-51 0 -90 -43q-38 -44 -38 -102q0 -41 23 -66t63 -25q52 0 89 43q39 44 39 102q0 41 -23 66t-63 25zM688 392q-39 0 -65.5 -21.5t-33.5 -60.5h166q5 37 -13 59.5t-54 22.5z" />
    <glyph glyph-name="Racute" unicode="&#x154;" horiz-adv-x="604" 
d="M146 700h225q106 0 168 -58q64 -58 64 -148q0 -74 -39.5 -131t-109.5 -88l93 -275h-182l-81 246h-45l-43 -246h-173zM399 863h235l-181 -128h-162zM353 539h-62l-25 -142h62q42 0 68.5 23.5t26.5 64.5q0 54 -70 54z" />
    <glyph glyph-name="racute" unicode="&#x155;" horiz-adv-x="391" 
d="M410 515l-29 -164q-58 0 -105 -29q-44 -26 -53 -82l-42 -240h-163l90 510h138l2 -77q46 82 162 82zM331 732h212l-195 -158h-141z" />
    <glyph glyph-name="Rcommaaccent" unicode="&#x156;" horiz-adv-x="604" 
d="M146 700h225q106 0 168 -58q64 -58 64 -148q0 -74 -39.5 -131t-109.5 -88l93 -275h-182l-81 246h-45l-43 -246h-173zM274 -33q34 0 55.5 -21t21.5 -57q0 -49 -37 -104q-39 -60 -89 -101l-41 15q27 39 44 95q-28 4 -45.5 22.5t-17.5 45.5q0 42 33 74q32 31 76 31zM353 539
h-62l-25 -142h62q42 0 68.5 23.5t26.5 64.5q0 54 -70 54z" />
    <glyph glyph-name="rcommaaccent" unicode="&#x157;" horiz-adv-x="391" 
d="M410 515l-29 -164q-58 0 -105 -29q-44 -26 -53 -82l-42 -240h-163l90 510h138l2 -77q46 82 162 82zM93 -33q34 0 55.5 -21t21.5 -57q0 -49 -37 -104q-39 -60 -89 -101l-41 15q27 39 44 95q-28 4 -45.5 22.5t-17.5 45.5q0 42 33 74q32 31 76 31z" />
    <glyph glyph-name="Rcaron" unicode="&#x158;" horiz-adv-x="604" 
d="M146 700h225q106 0 168 -58q64 -58 64 -148q0 -74 -39.5 -131t-109.5 -88l93 -275h-182l-81 246h-45l-43 -246h-173zM445 869h169l-186 -138h-86l-138 138h157l34 -48zM353 539h-62l-25 -142h62q42 0 68.5 23.5t26.5 64.5q0 54 -70 54z" />
    <glyph glyph-name="rcaron" unicode="&#x159;" horiz-adv-x="391" 
d="M410 515l-29 -164q-58 0 -105 -29q-44 -26 -53 -82l-42 -240h-163l90 510h138l2 -77q46 82 162 82zM359 722h164l-170 -158h-126l-114 158h152l35 -68z" />
    <glyph glyph-name="Sacute" unicode="&#x15a;" 
d="M358 713q96 0 157 -58q62 -57 53 -159h-174q4 30 -11 47.5t-42 17.5q-29 0 -48.5 -16.5t-19.5 -42.5t21 -42t76 -35q87 -30 126 -79t39 -121q0 -112 -75 -175q-74 -63 -191 -63q-118 0 -183 68q-64 67 -51 165h174q-7 -82 70 -82q35 0 56 17.5t21 45.5q0 46 -90 76
q-172 58 -172 203q0 100 75 166q74 67 189 67zM394 873h235l-181 -128h-162z" />
    <glyph glyph-name="sacute" unicode="&#x15b;" horiz-adv-x="475" 
d="M287 521q90 0 141 -45q51 -44 41 -117h-165q8 42 -29 42q-18 0 -30 -12t-12 -32q0 -18 15 -27t56 -16q75 -12 108 -45.5t33 -92.5q0 -92 -66 -140q-67 -47 -168 -47q-102 0 -152 44t-39 121h165q-6 -45 41 -45q21 0 34 11t13 31q0 17 -14.5 27t-54.5 16q-143 23 -143 142
q0 86 67 135q68 50 159 50zM347 732h212l-195 -158h-141z" />
    <glyph glyph-name="Scircumflex" unicode="&#x15c;" 
d="M358 713q96 0 157 -58q62 -57 53 -159h-174q4 30 -11 47.5t-42 17.5q-29 0 -48.5 -16.5t-19.5 -42.5t21 -42t76 -35q87 -30 126 -79t39 -121q0 -112 -75 -175q-74 -63 -191 -63q-118 0 -183 68q-64 67 -51 165h174q-7 -82 70 -82q35 0 56 17.5t21 45.5q0 46 -90 76
q-172 58 -172 203q0 100 75 166q74 67 189 67zM350 882h86l138 -138h-156l-33 48l-51 -48h-170z" />
    <glyph glyph-name="scircumflex" unicode="&#x15d;" horiz-adv-x="475" 
d="M287 521q90 0 141 -45q51 -44 41 -117h-165q8 42 -29 42q-18 0 -30 -12t-12 -32q0 -18 15 -27t56 -16q75 -12 108 -45.5t33 -92.5q0 -92 -66 -140q-67 -47 -168 -47q-102 0 -152 44t-39 121h165q-6 -45 41 -45q21 0 34 11t13 31q0 17 -14.5 27t-54.5 16q-143 23 -143 142
q0 86 67 135q68 50 159 50zM261 732h126l114 -158h-151l-35 68l-59 -68h-165z" />
    <glyph glyph-name="Scedilla" unicode="&#x15e;" 
d="M356 713q96 0 157 -58q62 -57 53 -159h-174q4 30 -11 47.5t-42 17.5q-29 0 -48.5 -16.5t-19.5 -42.5t21 -42t76 -35q87 -30 126 -79t39 -121q0 -109 -71 -172q-70 -63 -184 -66l-13 -34q68 -8 68 -70q0 -51 -36.5 -82t-93.5 -31q-58 0 -90 29l54 65q15 -21 41 -21
q13 0 22.5 8.5t9.5 21.5q0 21 -28 21q-12 0 -23 -4l-15 4l37 98q-93 15 -141 79q-47 64 -37 149h174q-7 -82 70 -82q35 0 56 17.5t21 45.5q0 46 -90 76q-172 58 -172 203q0 100 75 166q74 67 189 67z" />
    <glyph glyph-name="scedilla" unicode="&#x15f;" horiz-adv-x="475" 
d="M285 521q90 0 141 -45q51 -44 41 -117h-165q8 42 -29 42q-18 0 -30 -12t-12 -32q0 -18 15 -27t56 -16q75 -12 108 -45.5t33 -92.5q0 -83 -55 -131t-147 -55l-14 -37q68 -8 68 -70q0 -51 -36.5 -82t-93.5 -31q-58 0 -90 29l54 65q15 -21 41 -21q13 0 22.5 8.5t9.5 21.5
q0 21 -28 21q-12 0 -23 -4l-15 4l37 97q-84 7 -124 50t-31 113h165q-6 -45 41 -45q21 0 34 11t13 31q0 17 -14.5 27t-54.5 16q-143 23 -143 142q0 86 67 135q68 50 159 50z" />
    <glyph glyph-name="Scaron" unicode="&#x160;" 
d="M358 713q96 0 157 -58q62 -57 53 -159h-174q4 30 -11 47.5t-42 17.5q-29 0 -48.5 -16.5t-19.5 -42.5t21 -42t76 -35q87 -30 126 -79t39 -121q0 -112 -75 -175q-74 -63 -191 -63q-118 0 -183 68q-64 67 -51 165h174q-7 -82 70 -82q35 0 56 17.5t21 45.5q0 46 -90 76
q-172 58 -172 203q0 100 75 166q74 67 189 67zM440 879h169l-186 -138h-86l-138 138h157l34 -48z" />
    <glyph glyph-name="scaron" unicode="&#x161;" horiz-adv-x="475" 
d="M287 521q90 0 141 -45q51 -44 41 -117h-165q8 42 -29 42q-18 0 -30 -12t-12 -32q0 -18 15 -27t56 -16q75 -12 108 -45.5t33 -92.5q0 -92 -66 -140q-67 -47 -168 -47q-102 0 -152 44t-39 121h165q-6 -45 41 -45q21 0 34 11t13 31q0 17 -14.5 27t-54.5 16q-143 23 -143 142
q0 86 67 135q68 50 159 50zM375 722h164l-170 -158h-126l-114 158h152l35 -68z" />
    <glyph glyph-name="Tcommaaccent" unicode="&#x162;" horiz-adv-x="621" 
d="M93 700h597l-28 -161h-212l-95 -539h-173l95 539h-212zM262 -33q34 0 55.5 -21t21.5 -57q0 -49 -37 -104q-39 -60 -89 -101l-41 15q27 39 44 95q-28 4 -45.5 22.5t-17.5 45.5q0 42 33 74q32 31 76 31z" />
    <glyph glyph-name="tcommaaccent" unicode="&#x163;" horiz-adv-x="401" 
d="M157 630h164l-23 -120h106l-26 -148h-107l-30 -156q-6 -36 6 -51t45 -15q28 0 48 6l-25 -142q-35 -11 -89 -11q-95 0 -133.5 41t-21.5 130l37 198h-75l26 148h76zM172 -41q34 0 55.5 -21t21.5 -57q0 -49 -37 -104q-39 -60 -89 -101l-41 15q27 39 44 95q-28 4 -45.5 22.5
t-17.5 45.5q0 42 33 74q32 31 76 31z" />
    <glyph glyph-name="Tcaron" unicode="&#x164;" horiz-adv-x="621" 
d="M93 700h597l-28 -161h-212l-95 -539h-173l95 539h-212zM461 869h169l-186 -138h-86l-138 138h157l34 -48z" />
    <glyph glyph-name="tcaron" unicode="&#x165;" horiz-adv-x="566" 
d="M157 630h164l-23 -120h106l-26 -148h-107l-30 -156q-6 -36 6 -51t45 -15q28 0 48 6l-25 -142q-35 -11 -89 -11q-95 0 -133.5 41t-21.5 130l37 198h-75l26 148h76zM548 746q40 0 61 -27.5t13 -71.5q-19 -104 -127 -204l-41 15q30 52 47 115q-33 5 -49.5 28t-10.5 56
q7 37 38 63t69 26z" />
    <glyph glyph-name="Tbar" unicode="&#x166;" horiz-adv-x="621" 
d="M93 700h597l-28 -161h-212l-29 -161h137l-21 -116h-136l-46 -262h-173l46 262h-134l21 116h133l29 161h-212z" />
    <glyph glyph-name="tbar" unicode="&#x167;" horiz-adv-x="401" 
d="M157 630h164l-23 -120h106l-22 -126h-107l-11 -58h108l-23 -126h-109q-4 -33 8 -46.5t44 -13.5q28 0 48 6l-25 -142q-35 -11 -89 -11q-95 0 -133.5 41t-21.5 130l6 36h-73l23 126h74l11 58h-75l22 126h76z" />
    <glyph glyph-name="Utilde" unicode="&#x168;" horiz-adv-x="697" 
d="M574 700h173l-76 -431q-24 -133 -109.5 -207.5t-221.5 -74.5q-139 0 -205 88q-66 89 -41 229l70 396h173l-73 -415q-26 -137 94 -137q117 0 143 137zM413 886q55 0 76 -31q22 -30 49 -30q32 0 39 52h90q-27 -154 -137 -154q-29 0 -49 9.5t-28 21t-20.5 21t-28.5 9.5
q-32 0 -39 -52h-90q27 154 138 154z" />
    <glyph glyph-name="utilde" unicode="&#x169;" 
d="M400 510h163l-89 -510h-138l-2 64q-56 -75 -144 -75q-79 0 -112.5 49.5t-17.5 139.5l58 332h163l-51 -292q-12 -70 36 -70q32 0 55.5 24t31.5 71zM306 732q55 0 76 -31q22 -30 49 -30q29 0 39 52h90q-27 -154 -137 -154q-29 0 -49 9.5t-28.5 21t-21 21t-28.5 9.5
q-29 0 -39 -52h-90q27 154 139 154z" />
    <glyph glyph-name="Umacron" unicode="&#x16a;" horiz-adv-x="697" 
d="M574 700h173l-76 -431q-24 -133 -109.5 -207.5t-221.5 -74.5q-139 0 -205 88q-66 89 -41 229l70 396h173l-73 -415q-26 -137 94 -137q117 0 143 137zM337 853h292l-21 -116h-292z" />
    <glyph glyph-name="umacron" unicode="&#x16b;" 
d="M400 510h163l-89 -510h-138l-2 64q-56 -75 -144 -75q-79 0 -112.5 49.5t-17.5 139.5l58 332h163l-51 -292q-12 -70 36 -70q32 0 55.5 24t31.5 71zM228 699h292l-20 -116h-292z" />
    <glyph glyph-name="Ubreve" unicode="&#x16c;" horiz-adv-x="697" 
d="M574 700h173l-76 -431q-24 -133 -109.5 -207.5t-221.5 -74.5q-139 0 -205 88q-66 89 -41 229l70 396h173l-73 -415q-26 -137 94 -137q117 0 143 137zM533 880h125q-12 -69 -63.5 -110.5t-126.5 -41.5q-76 0 -121 42q-45 43 -33 110h125q-4 -22 6.5 -36.5t31.5 -14.5
t36.5 14.5t19.5 36.5z" />
    <glyph glyph-name="ubreve" unicode="&#x16d;" 
d="M400 510h163l-89 -510h-138l-2 64q-56 -75 -144 -75q-79 0 -112.5 49.5t-17.5 139.5l58 332h163l-51 -292q-12 -70 36 -70q32 0 55.5 24t31.5 71zM424 719h125q-13 -74 -65 -118t-127 -44t-120 45q-44 45 -32 117h125q-5 -27 4.5 -44t31.5 -17q21 0 37 17t21 44z" />
    <glyph glyph-name="Uring" unicode="&#x16e;" horiz-adv-x="697" 
d="M574 700h173l-76 -431q-24 -133 -109.5 -207.5t-221.5 -74.5q-139 0 -205 88q-66 89 -41 229l70 396h173l-73 -415q-26 -137 94 -137q117 0 143 137zM484 868q-17 0 -28.5 -11.5t-11.5 -29.5q0 -12 8 -20.5t21 -8.5q18 0 28.5 12.5t10.5 30.5q0 12 -7.5 19.5t-20.5 7.5z
M494 941q44 0 70.5 -25.5t26.5 -67.5q0 -54 -36.5 -89t-91.5 -35q-44 0 -71 26.5t-27 66.5q0 54 37 89t92 35z" />
    <glyph glyph-name="uring" unicode="&#x16f;" 
d="M400 510h163l-89 -510h-138l-2 64q-56 -75 -144 -75q-79 0 -112.5 49.5t-17.5 139.5l58 332h163l-51 -292q-12 -70 36 -70q32 0 55.5 24t31.5 71zM375 709q-21 0 -36.5 -15t-15.5 -36q0 -15 10.5 -25.5t26.5 -10.5q23 0 37 15.5t14 37.5q0 15 -10 24.5t-26 9.5zM384 779
q45 0 73 -27.5t28 -70.5q0 -55 -38 -93q-37 -37 -96 -37q-45 0 -73.5 28t-28.5 70q0 57 39 93q40 37 96 37z" />
    <glyph glyph-name="Uhungarumlaut" unicode="&#x170;" horiz-adv-x="697" 
d="M574 700h173l-76 -431q-24 -133 -109.5 -207.5t-221.5 -74.5q-139 0 -205 88q-66 89 -41 229l70 396h173l-73 -415q-26 -137 94 -137q117 0 143 137zM384 871h160l-132 -141h-130zM598 871h160l-132 -141h-130z" />
    <glyph glyph-name="uhungarumlaut" unicode="&#x171;" 
d="M400 510h163l-89 -510h-138l-2 64q-56 -75 -144 -75q-79 0 -112.5 49.5t-17.5 139.5l58 332h163l-51 -292q-12 -70 36 -70q32 0 55.5 24t31.5 71zM276 732h160l-135 -158h-130zM490 732h160l-135 -158h-130z" />
    <glyph glyph-name="Uogonek" unicode="&#x172;" horiz-adv-x="697" 
d="M573 700h173l-76 -431q-38 -207 -211 -264q-65 -33 -65 -89q0 -34 40 -34q16 0 40 8l3 -69q-23 -12 -56 -12q-55 0 -88.5 28t-33.5 75q0 44 24 75q-131 5 -193 92q-61 88 -37 225l70 396h173l-73 -415q-26 -137 94 -137q117 0 143 137z" />
    <glyph glyph-name="uogonek" unicode="&#x173;" 
d="M400 510h163l-89 -510h-7q-94 -34 -94 -101q0 -34 40 -34q16 0 40 8l3 -69q-22 -12 -56 -12q-55 0 -88.5 28t-33.5 75q0 67 58 106l-2 63q-56 -75 -144 -75q-79 0 -112.5 49.5t-17.5 139.5l58 332h163l-51 -292q-12 -70 36 -70q32 0 55.5 24t31.5 71z" />
    <glyph glyph-name="Wcircumflex" unicode="&#x174;" horiz-adv-x="1013" 
d="M895 700h187l-328 -700h-187l-35 339v49l-17 -49l-153 -339h-187l-82 700h177l40 -399v-51l17 51l175 399h161l35 -399l-2 -51l19 51zM566 872h86l138 -138h-156l-33 48l-51 -48h-170z" />
    <glyph glyph-name="wcircumflex" unicode="&#x175;" horiz-adv-x="791" 
d="M653 510h175l-238 -510h-172l-26 252l-123 -252h-162l-58 510h175l8 -271l-1 -59l21 59l114 271h145l18 -271l1 -59l19 59zM406 732h126l114 -158h-151l-35 68l-59 -68h-165z" />
    <glyph glyph-name="Ycircumflex" unicode="&#x176;" horiz-adv-x="697" 
d="M560 700h212l-334 -444l-45 -256h-173l45 256l-178 444h188l82 -211l14 -47l32 47zM396 872h86l138 -138h-156l-33 48l-51 -48h-170z" />
    <glyph glyph-name="ycircumflex" unicode="&#x177;" horiz-adv-x="533" 
d="M396 510h176l-376 -725h-169l111 221l-85 504h176l26 -273l1 -49l18 49zM280 732h126l114 -158h-151l-35 68l-59 -68h-165z" />
    <glyph glyph-name="Ydieresis" unicode="&#x178;" horiz-adv-x="697" 
d="M560 700h212l-334 -444l-45 -256h-173l45 256l-178 444h188l82 -211l14 -47l32 47zM337 892q32 0 52 -19t20 -49q0 -40 -31 -68t-70 -28q-31 0 -50.5 19t-19.5 48q0 40 29.5 68.5t69.5 28.5zM556 892q32 0 52 -19t20 -49q0 -40 -31 -68t-70 -28q-31 0 -50.5 19t-19.5 48
q0 40 29.5 68.5t69.5 28.5z" />
    <glyph glyph-name="Zacute" unicode="&#x179;" horiz-adv-x="609" 
d="M125 700h510l-25 -141l-347 -398h292l-28 -161h-525l25 141l347 398h-277zM407 863h235l-181 -128h-162z" />
    <glyph glyph-name="zacute" unicode="&#x17a;" horiz-adv-x="492" 
d="M81 510h416l-21 -121l-244 -248h210l-25 -141h-427l21 121l244 248h-199zM347 732h212l-195 -158h-141z" />
    <glyph glyph-name="Zdotaccent" unicode="&#x17b;" horiz-adv-x="609" 
d="M125 700h510l-25 -141l-347 -398h292l-28 -161h-525l25 141l347 398h-277zM417 895q32 0 52.5 -19.5t20.5 -50.5q0 -40 -32 -69t-71 -29q-32 0 -52 19.5t-20 49.5q0 42 31 70q32 29 71 29z" />
    <glyph glyph-name="zdotaccent" unicode="&#x17c;" horiz-adv-x="492" 
d="M81 510h416l-21 -121l-244 -248h210l-25 -141h-427l21 121l244 248h-199zM332 744q35 0 57 -21t22 -54q0 -45 -34 -76q-32 -31 -77 -31q-35 0 -57 21t-22 54q0 44 34 75q35 32 77 32z" />
    <glyph glyph-name="Zcaron" unicode="&#x17d;" horiz-adv-x="609" 
d="M125 700h510l-25 -141l-347 -398h292l-28 -161h-525l25 141l347 398h-277zM453 869h169l-186 -138h-86l-138 138h157l34 -48z" />
    <glyph glyph-name="zcaron" unicode="&#x17e;" horiz-adv-x="492" 
d="M81 510h416l-21 -121l-244 -248h210l-25 -141h-427l21 121l244 248h-199zM375 722h164l-170 -158h-126l-114 158h152l35 -68z" />
    <glyph glyph-name="florin" unicode="&#x192;" horiz-adv-x="365" 
d="M422 743q40 0 72 -8l-40 -144q-21 10 -42 10q-66 0 -82 -60l-8 -31h109l-41 -148h-109l-114 -398q-24 -92 -89 -141t-160 -49q-39 0 -73 8l41 144q21 -10 42 -10q64 0 81 60l109 386h-73l41 148h73l12 43q25 92 90 141t161 49z" />
    <glyph glyph-name="Aringacute" unicode="&#x1fa;" horiz-adv-x="746" 
d="M357 700h194l141 -700h-183l-24 132h-256l-70 -132h-188zM487 1004h235l-148 -105q15 -21 15 -51q0 -54 -36.5 -89t-91.5 -35q-44 0 -71 26.5t-27 66.5q0 62 50 100zM426 455l-6 41l-20 -41l-92 -176h150zM482 868q-17 0 -28.5 -11.5t-11.5 -29.5q0 -12 8 -20.5t21 -8.5
q18 0 28.5 12.5t10.5 30.5q0 12 -7.5 19.5t-20.5 7.5z" />
    <glyph glyph-name="aringacute" unicode="&#x1fb;" horiz-adv-x="633" 
d="M313 521q106 0 139 -81l24 70h138l-90 -510h-138l-2 58q-57 -69 -165 -69q-85 0 -139 64q-53 65 -53 160q0 122 81 215t205 93zM413 863h235l-164 -116q23 -26 23 -66q0 -55 -38 -93q-37 -37 -96 -37q-45 0 -73.5 28t-28.5 70q0 60 43 97zM323 368q-52 0 -89 -40
q-37 -38 -37 -96q0 -39 25 -64.5t61 -25.5q42 0 80 29q40 30 47 81l1 6q8 49 -18 79.5t-70 30.5zM397 709q-21 0 -36.5 -15t-15.5 -36q0 -15 10.5 -25.5t26.5 -10.5q23 0 37 15.5t14 37.5q0 15 -10 24.5t-26 9.5z" />
    <glyph glyph-name="AEacute" unicode="&#x1fc;" horiz-adv-x="988" 
d="M533 700h493l-28 -161h-244l-18 -100h207l-28 -161h-207l-21 -117h244l-28 -161h-417l23 132h-226l-106 -132h-203zM535 279l40 225l-31 -45l-145 -180h136zM712 863h235l-181 -128h-162z" />
    <glyph glyph-name="aeacute" unicode="&#x1fd;" horiz-adv-x="850" 
d="M606 521q109 0 169 -71q60 -70 37 -209l-5 -30h-330q-1 -3 -1 -13q0 -33 21.5 -53.5t59.5 -20.5q61 0 82 41h161q-81 -176 -262 -176q-120 0 -182 86q-89 -86 -184 -86q-75 0 -118 35t-43 95q0 78 51 120.5t148 57.5l117 19l3 11q9 58 -44 58q-24 0 -42.5 -13.5
t-21.5 -33.5h-157q24 86 84.5 134.5t150.5 48.5q92 0 145 -46q70 46 161 46zM501 732h212l-195 -158h-141zM594 392q-39 0 -65.5 -21.5t-33.5 -60.5h166q5 37 -13 59.5t-54 22.5zM308 204l2 12l-76 -14q-55 -10 -55 -53q0 -32 39 -32q44 0 73 42q13 19 17 45z" />
    <glyph glyph-name="Oslashacute" unicode="&#x1fe;" horiz-adv-x="802" 
d="M464 713q76 0 140 -26l82 104l110 -76l-82 -104q79 -85 79 -213q0 -121 -58.5 -216t-153 -145t-205.5 -50q-72 0 -137 24l-75 -96l-110 76l74 94q-78 85 -78 213q0 184 121 299q122 116 293 116zM456 552q-98 0 -162 -72q-64 -70 -64 -176q0 -44 13 -73l251 317
q-15 4 -38 4zM613 396q0 37 -14 71l-249 -316q16 -3 35 -3q96 0 162 71q66 72 66 177zM480 863h235l-181 -128h-162z" />
    <glyph glyph-name="oslashacute" unicode="&#x1ff;" horiz-adv-x="610" 
d="M342 521q50 0 98 -17l69 97l57 -39l-65 -92q82 -66 82 -177q0 -139 -94 -221q-94 -83 -221 -83q-52 0 -97 16l-66 -92l-57 39l62 87q-83 63 -83 178q0 139 93 221q95 83 222 83zM404 732h212l-195 -158h-141zM326 373q-51 0 -90 -43q-38 -44 -38 -102q0 -25 11 -49
l137 192q-18 2 -20 2zM412 282q0 24 -11 48l-136 -192q4 -1 19 -1q52 0 89 43q39 44 39 102z" />
    <glyph glyph-name="Scommaaccent" unicode="&#x218;" 
d="M358 713q96 0 157 -58q62 -57 53 -159h-174q4 30 -11 47.5t-42 17.5q-29 0 -48.5 -16.5t-19.5 -42.5t21 -42t76 -35q87 -30 126 -79t39 -121q0 -112 -75 -175q-74 -63 -191 -63q-118 0 -183 68q-64 67 -51 165h174q-7 -82 70 -82q35 0 56 17.5t21 45.5q0 46 -90 76
q-172 58 -172 203q0 100 75 166q74 67 189 67zM247 -43q34 0 55.5 -21t21.5 -57q0 -49 -37 -104q-39 -60 -89 -101l-41 15q27 39 44 95q-28 4 -45.5 22.5t-17.5 45.5q0 42 33 74q32 31 76 31z" />
    <glyph glyph-name="scommaaccent" unicode="&#x219;" horiz-adv-x="475" 
d="M287 521q90 0 141 -45q51 -44 41 -117h-165q8 42 -29 42q-18 0 -30 -12t-12 -32q0 -18 15 -27t56 -16q75 -12 108 -45.5t33 -92.5q0 -92 -66 -140q-67 -47 -168 -47q-102 0 -152 44t-39 121h165q-6 -45 41 -45q21 0 34 11t13 31q0 17 -14.5 27t-54.5 16q-143 23 -143 142
q0 86 67 135q68 50 159 50zM191 -43q34 0 55.5 -21t21.5 -57q0 -49 -37 -104q-39 -60 -89 -101l-41 15q27 39 44 95q-28 4 -45.5 22.5t-17.5 45.5q0 42 33 74q32 31 76 31z" />
    <glyph glyph-name="circumflex" unicode="&#x2c6;" horiz-adv-x="430" 
d="M235 732h126l114 -158h-151l-35 68l-59 -68h-165z" />
    <glyph glyph-name="caron" unicode="&#x2c7;" horiz-adv-x="430" 
d="M334 722h164l-170 -158h-126l-114 158h152l35 -68z" />
    <glyph glyph-name="breve" unicode="&#x2d8;" horiz-adv-x="364" 
d="M327 719h125q-13 -74 -65 -118t-127 -44t-120 45q-44 45 -32 117h125q-5 -27 4.5 -44t31.5 -17q21 0 37 17t21 44z" />
    <glyph glyph-name="dotaccent" unicode="&#x2d9;" horiz-adv-x="207" 
d="M185 744q35 0 57 -21t22 -54q0 -45 -34 -76q-32 -31 -77 -31q-35 0 -57 21t-22 54q0 44 34 75q35 32 77 32z" />
    <glyph glyph-name="ring" unicode="&#x2da;" horiz-adv-x="254" 
d="M205 709q-21 0 -36.5 -15t-15.5 -36q0 -15 10.5 -25.5t26.5 -10.5q23 0 37 15.5t14 37.5q0 15 -10 24.5t-26 9.5zM214 779q45 0 73 -27.5t28 -70.5q0 -55 -38 -93q-37 -37 -96 -37q-45 0 -73.5 28t-28.5 70q0 57 39 93q40 37 96 37z" />
    <glyph glyph-name="ogonek" unicode="&#x2db;" horiz-adv-x="207" 
d="M96 39l54 -39q-94 -34 -94 -101q0 -34 40 -34q16 0 40 8l3 -69q-23 -12 -56 -12q-55 0 -88.5 28t-33.5 75q0 52 34 85.5t101 58.5z" />
    <glyph glyph-name="tilde" unicode="&#x2dc;" horiz-adv-x="387" 
d="M199 732q55 0 76 -31q22 -30 49 -30q29 0 39 52h90q-27 -154 -137 -154q-29 0 -49 9.5t-28.5 21t-21 21t-28.5 9.5q-29 0 -39 -52h-90q27 154 139 154z" />
    <glyph glyph-name="hungarumlaut" unicode="&#x2dd;" horiz-adv-x="471" 
d="M172 732h160l-135 -158h-130zM386 732h160l-135 -158h-130z" />
    <glyph glyph-name="uni03A9" unicode="&#x3a9;" horiz-adv-x="861" 
d="M512 731q138 0 218 -75t80 -197q0 -77 -26 -137q-24 -55 -79 -129h115l-34 -193h-340l30 167q134 122 134 249q0 59 -31.5 91t-90.5 32q-80 0 -129 -60q-49 -59 -49 -139q0 -94 60 -177l-30 -163h-339l34 193h135q-53 74 -53 160q0 157 117 267q118 111 278 111z" />
    <glyph glyph-name="pi" unicode="&#x3c0;" horiz-adv-x="783" 
d="M705 574l121 -78q-66 -153 -214 -154h-2l-46 -143q-14 -42 20 -42q16 0 35 12l45 -132q-71 -47 -160 -47q-78 0 -103 51q-26 51 -3 122l55 179h-76l-63 -206q-27 -83 -64 -136h-172q59 71 89 163l55 179h-17q-58 0 -102 -47l-63 126q49 44 96 62q50 18 126 18h284
q63 0 98 17t61 56z" />
    <glyph glyph-name="Wgrave" unicode="&#x1e80;" horiz-adv-x="1013" 
d="M895 700h187l-328 -700h-187l-35 339v49l-17 -49l-153 -339h-187l-82 700h177l40 -399v-51l17 51l175 399h161l35 -399l-2 -51l19 51zM392 863h202l76 -128h-148z" />
    <glyph glyph-name="wgrave" unicode="&#x1e81;" horiz-adv-x="791" 
d="M653 510h175l-238 -510h-172l-26 252l-123 -252h-162l-58 510h175l8 -271l-1 -59l21 59l114 271h145l18 -271l1 -59l19 59zM247 732h184l84 -158h-130z" />
    <glyph glyph-name="Wacute" unicode="&#x1e82;" horiz-adv-x="1013" 
d="M895 700h187l-328 -700h-187l-35 339v49l-17 -49l-153 -339h-187l-82 700h177l40 -399v-51l17 51l175 399h161l35 -399l-2 -51l19 51zM610 863h235l-181 -128h-162z" />
    <glyph glyph-name="wacute" unicode="&#x1e83;" horiz-adv-x="791" 
d="M653 510h175l-238 -510h-172l-26 252l-123 -252h-162l-58 510h175l8 -271l-1 -59l21 59l114 271h145l18 -271l1 -59l19 59zM492 732h212l-195 -158h-141z" />
    <glyph glyph-name="Wdieresis" unicode="&#x1e84;" horiz-adv-x="1013" 
d="M895 700h187l-328 -700h-187l-35 339v49l-17 -49l-153 -339h-187l-82 700h177l40 -399v-51l17 51l175 399h161l35 -399l-2 -51l19 51zM507 892q32 0 52 -19t20 -49q0 -40 -31 -68t-70 -28q-31 0 -50.5 19t-19.5 48q0 40 29.5 68.5t69.5 28.5zM726 892q32 0 52 -19t20 -49
q0 -40 -31 -68t-70 -28q-31 0 -50.5 19t-19.5 48q0 40 29.5 68.5t69.5 28.5z" />
    <glyph glyph-name="wdieresis" unicode="&#x1e85;" horiz-adv-x="791" 
d="M363 729q32 0 52 -19t20 -49q0 -40 -31 -68t-70 -28q-31 0 -51 18.5t-20 47.5q0 41 30 69q31 29 70 29zM582 729q32 0 52 -19t20 -49q0 -40 -31 -68t-70 -28q-31 0 -51 18.5t-20 47.5q0 41 30 69q31 29 70 29zM653 510h175l-238 -510h-172l-26 252l-123 -252h-162
l-58 510h175l8 -271l-1 -59l21 59l114 271h145l18 -271l1 -59l19 59z" />
    <glyph glyph-name="Ygrave" unicode="&#x1ef2;" horiz-adv-x="697" 
d="M560 700h212l-334 -444l-45 -256h-173l45 256l-178 444h188l82 -211l14 -47l32 47zM222 863h202l76 -128h-148z" />
    <glyph glyph-name="ygrave" unicode="&#x1ef3;" horiz-adv-x="533" 
d="M396 510h176l-376 -725h-169l111 221l-85 504h176l26 -273l1 -49l18 49zM121 732h184l84 -158h-130z" />
    <glyph glyph-name="endash" unicode="&#x2013;" horiz-adv-x="515" 
d="M43 331h465l-25 -143h-465z" />
    <glyph glyph-name="emdash" unicode="&#x2014;" horiz-adv-x="705" 
d="M44 331h655l-25 -143h-655z" />
    <glyph glyph-name="quoteleft" unicode="&#x2018;" horiz-adv-x="237" 
d="M206 756l41 -15q-30 -52 -47 -115q33 -5 49.5 -28t10.5 -56q-7 -37 -38 -63t-69 -26q-40 0 -61 27.5t-13 71.5q19 104 127 204z" />
    <glyph glyph-name="quoteright" unicode="&#x2019;" horiz-adv-x="237" 
d="M203 746q40 0 61 -27.5t13 -71.5q-19 -104 -127 -204l-41 15q30 52 47 115q-33 5 -49.5 28t-10.5 56q7 37 38 63t69 26z" />
    <glyph glyph-name="quotesinglbase" unicode="&#x201a;" horiz-adv-x="237" 
d="M107 169q40 0 61 -27.5t13 -71.5q-19 -104 -127 -204l-41 15q30 52 47 115q-33 5 -49.5 28t-10.5 56q7 37 38 63t69 26z" />
    <glyph glyph-name="quotedblleft" unicode="&#x201c;" horiz-adv-x="474" 
d="M212 756l41 -15q-30 -52 -47 -115q33 -5 49.5 -28t10.5 -56q-7 -37 -38 -63t-69 -26q-40 0 -61 27.5t-13 71.5q19 104 127 204zM449 756l41 -15q-30 -52 -47 -115q33 -5 49.5 -28t10.5 -56q-7 -37 -38 -63t-69 -26q-40 0 -61 27.5t-13 71.5q19 104 127 204z" />
    <glyph glyph-name="quotedblright" unicode="&#x201d;" horiz-adv-x="474" 
d="M199 746q40 0 61 -27.5t13 -71.5q-19 -104 -127 -204l-41 15q30 52 47 115q-33 5 -49.5 28t-10.5 56q7 37 38 63t69 26zM436 746q40 0 61 -27.5t13 -71.5q-19 -104 -127 -204l-41 15q30 52 47 115q-33 5 -49.5 28t-10.5 56q7 37 38 63t69 26z" />
    <glyph glyph-name="quotedblbase" unicode="&#x201e;" horiz-adv-x="474" 
d="M107 169q40 0 61 -27.5t13 -71.5q-19 -104 -127 -204l-41 15q30 52 47 115q-33 5 -49.5 28t-10.5 56q7 37 38 63t69 26zM344 169q40 0 61 -27.5t13 -71.5q-19 -104 -127 -204l-41 15q30 52 47 115q-33 5 -49.5 28t-10.5 56q7 37 38 63t69 26z" />
    <glyph glyph-name="dagger" unicode="&#x2020;" horiz-adv-x="483" 
d="M244 726h163l-31 -172h140l-28 -160h-140l-81 -461h-163l81 461h-140l28 160h140z" />
    <glyph glyph-name="daggerdbl" unicode="&#x2021;" horiz-adv-x="483" 
d="M244 726h163l-31 -172h140l-28 -160h-140l-23 -129h140l-28 -160h-140l-30 -172h-163l30 172h-140l28 160h140l23 129h-140l28 160h140z" />
    <glyph glyph-name="bullet" unicode="&#x2022;" horiz-adv-x="355" 
d="M207 401q53 0 86 -32.5t33 -83.5q0 -69 -51 -118q-50 -49 -118 -49q-53 0 -85.5 32t-32.5 83q0 68 50 118q52 50 118 50z" />
    <glyph glyph-name="ellipsis" unicode="&#x2026;" horiz-adv-x="751" 
d="M100 171q35 0 57 -21t22 -54q0 -45 -34 -76t-77 -31q-35 0 -57 20.5t-22 52.5q0 46 33 77q35 32 78 32zM357 171q35 0 57 -21t22 -54q0 -45 -34 -76t-77 -31q-35 0 -57 20.5t-22 52.5q0 46 33 77q35 32 78 32zM614 171q35 0 57 -21t22 -54q0 -45 -34 -76t-77 -31
q-35 0 -57 20.5t-22 52.5q0 46 33 77q35 32 78 32z" />
    <glyph glyph-name="perthousand" unicode="&#x2030;" horiz-adv-x="1320" 
d="M261 590q-25 0 -44.5 -21t-19.5 -48q0 -21 11.5 -34t31.5 -13q26 0 44.5 21t18.5 50q0 21 -11 33t-31 12zM278 713q68 0 113 -46q45 -47 45 -113q0 -90 -63 -147q-62 -56 -148 -56q-69 0 -116 45q-45 46 -45 113q0 89 63 146q64 58 151 58zM624 700h167l-466 -700h-168z
M709 226q-25 0 -44.5 -21t-19.5 -48q0 -21 11.5 -34t31.5 -13q26 0 44.5 21t18.5 50q0 21 -11 33t-31 12zM726 349q68 0 113 -46q45 -47 45 -113q0 -90 -63 -147q-62 -56 -148 -56q-69 0 -116 45q-45 47 -45 113q0 89 63 146q64 58 151 58zM1111 226q-25 0 -44.5 -21
t-19.5 -48q0 -21 11.5 -34t31.5 -13q26 0 44.5 21t18.5 50q0 21 -11 33t-31 12zM1128 349q68 0 113 -46q45 -47 45 -113q0 -90 -63 -147q-62 -56 -148 -56q-69 0 -116 45q-45 47 -45 113q0 89 63 146q64 58 151 58z" />
    <glyph glyph-name="guilsinglleft" unicode="&#x2039;" horiz-adv-x="303" 
d="M164 446h164l-175 -203l104 -188h-141l-110 197l3 17z" />
    <glyph glyph-name="guilsinglright" unicode="&#x203a;" horiz-adv-x="303" 
d="M41 446h141l110 -197l-3 -17l-155 -177h-164l175 203z" />
    <glyph glyph-name="fraction" unicode="&#x2044;" horiz-adv-x="161" 
d="M259 700h171l-465 -700h-172z" />
    <glyph glyph-name="zero.sups" unicode="&#x2070;" horiz-adv-x="377" 
d="M283 807q65 0 100.5 -41t35.5 -113q0 -95 -50 -174q-49 -78 -144 -78q-63 0 -99 41.5t-36 113.5q0 60 18 115q19 55 65 95q47 41 110 41zM268 696q-27 0 -42 -41t-15 -93q0 -50 28 -50q27 0 43 38t16 92t-30 54z" />
    <glyph glyph-name="four.sups" unicode="&#x2074;" horiz-adv-x="392" 
d="M260 800h156l-41 -233h46l-18 -106h-46l-10 -53h-120l10 53h-179l17 100zM257 566l18 99l-11 -19l-63 -80h56z" />
    <glyph glyph-name="five.sups" unicode="&#x2075;" horiz-adv-x="353" 
d="M147 800h267l-20 -111h-147l-5 -30q22 6 43 6q47 0 77.5 -27t30.5 -76q0 -71 -47 -116q-46 -45 -121 -45q-70 0 -108.5 37t-28.5 96h119q-3 -22 28 -22q16 0 26 10t10 26q0 24 -25 24q-17 0 -34 -10h-107z" />
    <glyph glyph-name="six.sups" unicode="&#x2076;" horiz-adv-x="368" 
d="M284 807q62 0 98.5 -38t29.5 -95h-121q1 11 -5 16.5t-18 5.5q-37 0 -48 -53q28 11 65 11q51 0 81 -28t29 -73q0 -66 -50 -110q-49 -42 -118 -42q-67 0 -105 42q-35 38 -35 106q0 65 18.5 121t65 96.5t113.5 40.5zM243 567q-15 0 -26.5 -9t-12.5 -22v-3q0 -23 29 -23
q14 0 26.5 9t12.5 23q0 25 -29 25z" />
    <glyph glyph-name="seven.sups" unicode="&#x2077;" horiz-adv-x="322" 
d="M130 800h274l-17 -96l-178 -296h-137l169 281h-130z" />
    <glyph glyph-name="eight.sups" unicode="&#x2078;" horiz-adv-x="364" 
d="M240 561q-14 0 -25 -9.5t-11 -22.5q0 -24 26 -24q15 0 25.5 10t10.5 22q0 10 -7.5 17t-18.5 7zM265 703q-12 0 -20.5 -8.5t-8.5 -20.5q0 -19 21 -19q13 0 21 8.5t8 19.5q0 8 -6 14t-15 6zM284 807q55 0 88 -32t33 -80q0 -58 -52 -95q34 -25 34 -63q0 -61 -51 -98
q-50 -38 -120 -38q-60 0 -97.5 32t-37.5 81q0 66 62 102q-24 24 -24 57q0 59 48 96q49 38 117 38z" />
    <glyph glyph-name="nine.sups" unicode="&#x2079;" horiz-adv-x="368" 
d="M384 765q35 -38 35 -106q0 -65 -18.5 -121t-65 -96.5t-113.5 -40.5q-62 0 -98.5 38t-29.5 95h121q-1 -11 5 -16.5t18 -5.5q38 0 47 52q-26 -10 -64 -10q-50 0 -80 28t-30 73q0 67 50 109q49 43 118 43q67 0 105 -42zM263 641q16 0 27 8.5t12 22.5v3q0 23 -29 23
q-15 0 -27 -9t-12 -23q0 -25 29 -25z" />
    <glyph glyph-name="n.sups" unicode="&#x207f;" horiz-adv-x="429" 
d="M342 714q57 0 81.5 -33.5t13.5 -94.5l-40 -227h-121l33 190q8 47 -27 47q-23 0 -40 -14.5t-22 -42.5l-31 -180h-121l61 348h102l3 -42q37 49 108 49z" />
    <glyph glyph-name="Euro" unicode="&#x20ac;" horiz-adv-x="646" 
d="M259 322h124l-20 -116h-98q18 -58 72 -58q81 0 105 90h185q-40 -128 -114 -189.5t-193 -61.5q-95 0 -156.5 58t-75.5 161h-83l20 116h61q5 49 8 60h-58l20 116h73q43 101 121 158t178 57q113 0 176 -69q63 -70 62 -182h-185q7 90 -73 90q-51 0 -90 -54h96l-20 -116h-125
q-9 -50 -10 -60z" />
    <glyph glyph-name="afii61289" unicode="&#x2113;" 
d="M429 757q68 0 117 -43q49 -42 49 -113q0 -35 -11 -71q-13 -46 -80 -130q-21 -26 -62 -62q-10 -9 -23.5 -20.5t-22.5 -19.5t-16 -13l-66 -53l-10 -56q-7 -43 35 -43q51 0 104 77l92 -90q-89 -134 -235 -134q-84 0 -127 42q-30 30 -32 79q-5 -4 -38 -25t-38 -25l-71 130
l174 116l47 268q17 96 69 141t145 45zM416 628q-21 0 -36.5 -15t-19.5 -39l-32 -179q39 38 61 64q23 26 44 62q21 37 21 67q0 40 -38 40z" />
    <glyph glyph-name="trademark" unicode="&#x2122;" horiz-adv-x="633" 
d="M97 700h217l-17 -93h-59l-33 -187h-100l33 187h-58zM552 700h124l-50 -280h-100l20 115l-15 -36l-35 -79h-68l-7 79l-3 36l-20 -115h-100l50 280h116l17 -136l1 -16l5 16z" />
    <glyph glyph-name="Omega" unicode="&#x2126;" horiz-adv-x="861" 
d="M512 731q138 0 218 -75t80 -197q0 -77 -26 -137q-24 -55 -79 -129h115l-34 -193h-340l30 167q134 122 134 249q0 59 -31.5 91t-90.5 32q-80 0 -129 -60q-49 -59 -49 -139q0 -94 60 -177l-30 -163h-339l34 193h135q-53 74 -53 160q0 157 117 267q118 111 278 111z" />
    <glyph glyph-name="estimated" unicode="&#x212e;" horiz-adv-x="585" 
d="M304 488q-50 0 -87 -17q-42 -19 -42 -70v-91h248v89q0 34 -8.5 50t-33.5 25q-42 14 -77 14zM304 530q108 0 176 -68t68 -193h-373v-155q0 -27 9 -43.5t35 -28.5q30 -15 85 -15q66 0 114 27.5t87 87.5l35 -23q-87 -133 -236 -133q-116 0 -193 74q-76 75 -76 197
q0 123 76 198q77 75 193 75z" />
    <glyph glyph-name="partialdiff" unicode="&#x2202;" horiz-adv-x="556" 
d="M295 317q-40 0 -69 -31t-29 -77q0 -32 18 -50t49 -18q41 0 69 30.5t28 78.5q0 31 -18 49t-48 18zM322 749q125 0 180 -79q56 -79 56 -204q0 -214 -80 -345t-235 -131q-95 0 -156 60q-61 61 -61 153q0 117 75 190q75 75 190 75q65 0 102 -33q13 74 -10 113.5t-75 39.5
q-65 0 -112 -62l-106 112q95 111 232 111z" />
    <glyph glyph-name="uni2206" unicode="&#x2206;" horiz-adv-x="722" 
d="M4 0l431 633l207 -633h-638zM453 134l-63 197l-134 -197h197z" />
    <glyph glyph-name="product" unicode="&#x220f;" horiz-adv-x="701" 
d="M118 700h631l-29 -162h-87l-113 -641h-157l113 641h-142l-113 -641h-159l113 641h-86z" />
    <glyph glyph-name="summation" unicode="&#x2211;" horiz-adv-x="610" 
d="M121 700h517l-31 -176h-288l114 -171l-164 -177h289l-31 -176h-532l21 129l218 237l-134 218z" />
    <glyph glyph-name="minus" unicode="&#x2212;" horiz-adv-x="472" 
d="M59 421h412l-25 -143h-412z" />
    <glyph glyph-name="radical" unicode="&#x221a;" horiz-adv-x="697" 
d="M373 293l255 407l124 -71l-429 -695l-112 308l-124 -64l-59 126l297 152z" />
    <glyph glyph-name="infinity" unicode="&#x221e;" horiz-adv-x="782" 
d="M235 357q-25 0 -42.5 -20.5t-17.5 -47.5q0 -43 40 -43q37 0 76 42l12 13l-8 12q-29 44 -60 44zM586 508q78 0 124 -55q48 -55 47 -131q0 -93 -64 -160t-160 -67q-80 0 -144 82l-11 14l-9 -11q-59 -71 -164 -71q-73 0 -116 48q-44 49 -44 119q0 89 58 153q59 66 150 66
q81 0 127 -67l11 -16l15 18q64 78 180 78zM572 365q-46 0 -87 -48l-17 -20l10 -12q41 -47 73 -47q28 0 48 23t20 54q1 22 -11.5 36t-35.5 14z" />
    <glyph glyph-name="integral" unicode="&#x222b;" horiz-adv-x="434" 
d="M489 732l-53 -133q-27 8 -57 8q-32 0 -38 -33l-104 -592q-17 -96 -56.5 -136.5t-113.5 -40.5q-73 0 -129 19l52 133q27 -8 57 -8q33 0 39 33l104 592q16 96 56 137q40 40 113 40q74 0 130 -19z" />
    <glyph glyph-name="approxequal" unicode="&#x2248;" horiz-adv-x="572" 
d="M212 348q32 0 60 -13.5t43 -33.5q40 -46 80 -46q42 0 72 77l107 -44q-36 -86 -83 -127.5t-114 -41.5t-107 46q-39 47 -77 47q-42 0 -74 -77l-107 44q36 86 84 127.5t116 41.5zM255 606q32 0 60 -13.5t43 -33.5q40 -46 80 -46q42 0 72 77l107 -44q-36 -86 -83 -127.5
t-114 -41.5t-107 46q-39 47 -77 47q-42 0 -74 -77l-107 44q36 86 84 127.5t116 41.5z" />
    <glyph glyph-name="notequal" unicode="&#x2260;" horiz-adv-x="459" 
d="M314 314h142l-24 -139h-182l-30 -65h-147l30 65h-83l24 139h123l32 71h-142l24 139h182l35 76h147l-35 -76h83l-24 -139h-123z" />
    <glyph glyph-name="lessequal" unicode="&#x2264;" horiz-adv-x="386" 
d="M236 596h205l-208 -180l122 -164h-168l-138 180v4zM11 208h346l-21 -116h-346z" />
    <glyph glyph-name="greaterequal" unicode="&#x2265;" horiz-adv-x="386" 
d="M5 208h346l-21 -116h-346zM96 596h168l138 -180v-4l-187 -160h-205l208 180z" />
    <glyph glyph-name="lozenge" unicode="&#x25ca;" horiz-adv-x="570" 
d="M316 739h102l141 -417l-273 -388h-92l-144 429zM383 334l-50 154l-107 -147l53 -158z" />
    <glyph glyph-name="commaaccent" unicode="&#xf6c3;" horiz-adv-x="237" 
d="M91 -33q34 0 55.5 -21t21.5 -57q0 -49 -37 -104q-39 -60 -89 -101l-41 15q27 39 44 95q-28 4 -45.5 22.5t-17.5 45.5q0 42 33 74q32 31 76 31z" />
    <glyph glyph-name="parenleft.cap" horiz-adv-x="313" 
d="M276 769l112 -81q-201 -197 -201 -445q0 -120 65 -255l-118 -69q-100 169 -100 327q0 151 62 285t180 238z" />
    <glyph glyph-name="parenright.cap" horiz-adv-x="313" 
d="M81 700l118 69q100 -169 100 -327q0 -151 -62 -285t-180 -238l-112 81q201 196 201 445q0 120 -65 255z" />
    <glyph glyph-name="bracketleft.cap" horiz-adv-x="360" 
d="M151 736h265l-26 -147h-111l-88 -499h111l-26 -147h-265z" />
    <glyph glyph-name="bracketright.cap" horiz-adv-x="360" 
d="M106 736h265l-140 -793h-264l25 147h111l88 499h-111z" />
    <glyph glyph-name="braceleft.cap" horiz-adv-x="352" 
d="M386 736h20l-26 -147h-13q-30 0 -51.5 -22t-27.5 -57l-11 -65q-8 -43 -32 -73t-59 -40q31 -10 45 -40t6 -72l-12 -65q-11 -65 54 -65h13l-26 -147h-20q-94 0 -140 58t-31 146l10 58q13 72 -53 72h-9l25 141h9q65 0 78 72l7 41q19 109 75 157t169 48z" />
    <glyph glyph-name="braceright.cap" horiz-adv-x="352" 
d="M105 736h20q93 0 140 -59q46 -58 31 -145l-10 -58q-14 -72 53 -72h9l-25 -141h-9q-64 0 -78 -72l-7 -41q-19 -109 -75 -157t-169 -48h-20l26 147h13q30 0 51.5 22t27.5 57l11 65q8 43 32 73t59 40q-31 10 -45 40t-6 72l12 65q11 65 -54 65h-13z" />
    <glyph glyph-name="hyphen.cap" horiz-adv-x="365" 
d="M56 411h315l-25 -143h-315z" />
    <glyph glyph-name="endash.cap" horiz-adv-x="515" 
d="M50 401h465l-25 -143h-465z" />
    <glyph glyph-name="emdash.cap" horiz-adv-x="705" 
d="M49 411h655l-25 -143h-655z" />
    <glyph glyph-name="at.cap" horiz-adv-x="841" 
d="M443 436q-40 0 -67 -30t-27 -72q0 -30 17.5 -48t44.5 -18q31 0 58.5 23t33.5 59l1 6q6 35 -13 57.5t-48 22.5zM504 733q155 0 242 -89q89 -89 87 -230q0 -68 -22 -127q-22 -62 -70 -102t-109 -40q-45 0 -72 14t-50 44q-46 -58 -130 -58q-78 0 -123 50q-45 49 -45 127
q0 94 66 165t151 71q79 0 109 -58l19 49h111l-46 -260q-14 -61 28 -61q44 0 70 53q26 55 26 132q1 107 -64 174q-64 66 -186 66q-154 0 -261 -105q-106 -105 -106 -260q-1 -111 63.5 -174.5t184.5 -63.5q82 0 151 30l17 -76q-72 -34 -173 -34q-153 0 -240 88q-86 88 -88 230
q0 190 129 317q130 128 331 128z" />
    <glyph glyph-name="periodcentered.cap" horiz-adv-x="237" 
d="M159 440q35 0 57.5 -21t22.5 -53q0 -45 -34 -76q-35 -32 -78 -32q-35 0 -57 21t-22 54q0 44 34 75q35 32 77 32z" />
    <glyph glyph-name="exclamdown.cap" horiz-adv-x="289" 
d="M185 0h-163l85 477h163zM198 529q-35 0 -57 21t-22 54q0 44 33 75q35 32 78 32q35 0 57 -21t22 -54q0 -45 -34 -76t-77 -31z" />
    <glyph glyph-name="questiondown.cap" horiz-adv-x="464" 
d="M198 -13q-87 0 -143 46q-56 47 -56 123q0 103 65 163q15 14 53 43t57 50.5t23 45.5l3 19h163l-4 -24q-13 -82 -85 -136q-5 -4 -32.5 -24.5t-36 -28.5t-25 -26t-22 -35t-5.5 -38q0 -50 54 -50q33 0 57 21t30 57h153q-14 -96 -81.5 -151t-167.5 -55zM291 529q-35 0 -57 21
t-22 54q0 44 34 75q35 32 77 32q35 0 57 -20.5t22 -52.5q0 -46 -34 -77q-34 -32 -77 -32z" />
    <glyph glyph-name="guilsinglleft.cap" horiz-adv-x="303" 
d="M188 536h164l-175 -203l104 -188h-141l-110 197l3 17z" />
    <glyph glyph-name="guilsinglright.cap" horiz-adv-x="303" 
d="M64 536h141l110 -197l-3 -17l-155 -177h-164l175 203z" />
    <glyph glyph-name="guillemotleft.cap" horiz-adv-x="510" 
d="M152 536h159l-147 -206l76 -185h-143l-77 195l3 17zM388 536h159l-147 -206l76 -185h-143l-77 195l3 17z" />
    <glyph glyph-name="guillemotright.cap" horiz-adv-x="510" 
d="M293 536h143l77 -195l-3 -17l-129 -179h-159l147 206zM57 536h143l77 -195l-3 -17l-129 -179h-159l147 206z" />
    <glyph glyph-name="endash_guilsinglright" horiz-adv-x="660" 
d="M289 474l88 80l272 -287l-342 -266l-73 99l145 108h-352l24 137h363z" />
    <glyph glyph-name="emdash_guilsinglright" horiz-adv-x="986" 
d="M615 474l88 80l272 -287l-342 -266l-73 99l145 108h-678l24 137h689z" />
    <glyph glyph-name="guilsinglleft_endash" horiz-adv-x="660" 
d="M26 286l342 266l73 -99l-145 -108h352l-24 -137h-363l125 -129l-88 -80z" />
    <glyph glyph-name="guilsinglleft_emdash" horiz-adv-x="986" 
d="M26 286l342 266l73 -99l-145 -108h678l-24 -137h-689l125 -129l-88 -80z" />
    <glyph glyph-name="germandbls.cap" horiz-adv-x="664" 
d="M411 713q165 0 261 -125l-142 -170q48 -18 78 -62.5t30 -100.5q0 -119 -83 -191q-83 -71 -210 -71q-38 0 -88 8l28 164q35 -11 68 -11q42 0 72.5 23.5t30.5 63.5q0 71 -138 71l2 81l121 144q-19 15 -54 15q-45 0 -73.5 -26.5t-37.5 -74.5l-80 -451h-173l82 466
q21 118 98 182.5t208 64.5z" />
    <glyph glyph-name="grave.cap" horiz-adv-x="325" 
d="M107 863h202l76 -128h-148z" />
    <glyph glyph-name="acute.cap" horiz-adv-x="325" 
d="M203 863h235l-181 -128h-162z" />
    <glyph glyph-name="circumflex.cap" horiz-adv-x="430" 
d="M271 872h86l138 -138h-156l-33 48l-51 -48h-170z" />
    <glyph glyph-name="caron.cap" horiz-adv-x="430" 
d="M345 869h169l-186 -138h-86l-138 138h157l34 -48z" />
    <glyph glyph-name="tilde.cap" horiz-adv-x="387" 
d="M224 886q55 0 76 -31q22 -30 49 -30q32 0 39 52h90q-27 -154 -137 -154q-29 0 -49 9.5t-28 21t-20.5 21t-28.5 9.5q-32 0 -39 -52h-90q27 154 138 154z" />
    <glyph glyph-name="dieresis.cap" horiz-adv-x="408" 
d="M196 892q32 0 52 -19t20 -49q0 -40 -31 -68t-70 -28q-31 0 -50.5 19t-19.5 48q0 40 29.5 68.5t69.5 28.5zM415 892q32 0 52 -19t20 -49q0 -40 -31 -68t-70 -28q-31 0 -50.5 19t-19.5 48q0 40 29.5 68.5t69.5 28.5z" />
    <glyph glyph-name="macron.cap" horiz-adv-x="312" 
d="M111 853h292l-21 -116h-292z" />
    <glyph glyph-name="breve.cap" horiz-adv-x="364" 
d="M347 880h125q-12 -69 -63.5 -110.5t-126.5 -41.5q-76 0 -121 42q-45 43 -33 110h125q-4 -22 6.5 -36.5t31.5 -14.5t36.5 14.5t19.5 36.5z" />
    <glyph glyph-name="ring.cap" horiz-adv-x="222" 
d="M213 868q-17 0 -28.5 -11.5t-11.5 -29.5q0 -12 8 -20.5t21 -8.5q18 0 28.5 12.5t10.5 30.5q0 12 -7.5 19.5t-20.5 7.5zM223 941q44 0 70.5 -25.5t26.5 -67.5q0 -54 -36.5 -89t-91.5 -35q-44 0 -71 26.5t-27 66.5q0 54 37 89t92 35z" />
    <glyph glyph-name="hungarumlaut.cap" horiz-adv-x="471" 
d="M204 871h160l-132 -141h-130zM418 871h160l-132 -141h-130z" />
    <glyph glyph-name="dotaccent.cap" horiz-adv-x="193" 
d="M202 895q32 0 52.5 -19.5t20.5 -50.5q0 -40 -32 -69t-71 -29q-32 0 -52 19.5t-20 49.5q0 42 31 70q32 29 71 29z" />
    <glyph glyph-name="zero.tnum" horiz-adv-x="583" 
d="M318 395q-45 0 -78 -47q-33 -46 -33 -115q0 -40 17.5 -64t49.5 -24q45 0 78 47q33 46 33 116q0 40 -17.5 63.5t-49.5 23.5zM340 553q102 0 160.5 -63t58.5 -169q0 -139 -83 -237q-82 -97 -224 -97q-101 0 -159 63.5t-58 169.5q0 140 81 236q82 97 224 97z" />
    <glyph glyph-name="one.tnum" horiz-adv-x="417" 
d="M286 540h125l-95 -540h-173l52 297h-148l24 135q170 0 215 108z" />
    <glyph glyph-name="two.tnum" horiz-adv-x="505" 
d="M307 553q92 0 145.5 -46.5t53.5 -122.5q0 -98 -99 -170l-78 -53h134l-29 -161h-445l17 106l249 162l37 25q35 27 35 61q0 38 -43 38q-58 0 -68 -73h-173q16 106 88 170q71 64 176 64z" />
    <glyph glyph-name="three.tnum" horiz-adv-x="557" 
d="M339 553q96 0 148 -52q53 -51 53 -128q0 -56 -28 -100t-77 -69q79 -28 79 -114q0 -111 -80 -177t-199 -66q-108 0 -168 67q-59 68 -40 170h172q-12 -76 64 -76q30 0 51 17t26 47q6 34 -13.5 50t-61.5 16h-55l26 147h53q65 0 75 55q4 24 -7.5 38t-35.5 14
q-27 0 -45.5 -18.5t-24.5 -51.5h-172q19 111 86 171t174 60z" />
    <glyph glyph-name="four.tnum" horiz-adv-x="600" 
d="M338 540h218l-75 -425h82l-27 -154h-82l-18 -101h-173l18 101h-292l24 139zM311 113l39 225l-21 -36l-140 -189h122z" />
    <glyph glyph-name="five.tnum" horiz-adv-x="550" 
d="M125 540h428l-29 -161h-255l-14 -81q33 12 83 12q81 0 129 -47.5t48 -137.5q0 -121 -74 -200q-73 -78 -201 -78q-110 0 -170 63q-60 62 -44 164h172q-5 -32 10.5 -49t48.5 -17q37 0 58.5 25.5t21.5 66.5q0 64 -59 64q-32 0 -69 -20h-154z" />
    <glyph glyph-name="six.tnum" horiz-adv-x="571" 
d="M366 693q100 0 158 -63q58 -62 43 -163h-175q8 65 -52 65q-79 0 -107 -121q53 36 122 36q82 0 130.5 -53t48.5 -140q0 -115 -79 -191t-199 -76q-113 0 -167 70q-51 67 -51 192q0 127 44 236q36 94 107.5 150.5t176.5 57.5zM296 306q-40 0 -65.5 -25.5t-26.5 -66.5v-4
q0 -29 17 -47t46 -18q36 0 63 29q27 30 27 68q0 28 -17 46t-44 18z" />
    <glyph glyph-name="seven.tnum" horiz-adv-x="524" 
d="M89 540h447l-24 -139l-323 -541h-197l314 519h-245z" />
    <glyph glyph-name="eight.tnum" horiz-adv-x="566" 
d="M333 536q-30 0 -50 -20.5t-20 -49.5q0 -20 13 -32t37 -12q30 0 50 19t20 47q0 21 -13.5 34.5t-36.5 13.5zM287 277q-36 0 -60 -22t-24 -57q0 -23 16.5 -36.5t44.5 -13.5q37 0 61 21t24 54q0 24 -17.5 39t-44.5 15zM354 695q90 0 146 -56t56 -134q0 -103 -94 -169
q62 -39 62 -115q0 -103 -81 -168q-80 -64 -199 -64q-98 0 -158 54q-59 54 -59 135q0 125 113 184q-45 44 -45 105q0 96 75 162t184 66z" />
    <glyph glyph-name="nine.tnum" horiz-adv-x="571" 
d="M226 -153q-100 0 -158 63q-58 62 -43 163h175q-8 -65 52 -65q79 0 106 120q-53 -35 -121 -35q-82 0 -130.5 53t-48.5 140q0 114 79 190q80 77 199 77q113 0 167 -70q51 -67 51 -192q0 -128 -45 -237q-35 -92 -106.5 -149t-176.5 -58zM296 234q39 0 65 25t27 66v5
q0 29 -17 47t-46 18q-36 0 -63 -30q-27 -29 -27 -67q0 -28 17 -46t44 -18z" />
    <glyph glyph-name="zero.dnom" horiz-adv-x="377" 
d="M212 399q65 0 100.5 -41t35.5 -113q0 -95 -50 -174q-50 -78 -144 -78q-63 0 -99 41.5t-36 113.5q0 60 18 115q19 55 65 95q47 41 110 41zM197 288q-27 0 -42 -41t-15 -93q0 -50 28 -50q27 0 43 38t16 92t-30 54z" />
    <glyph glyph-name="one.dnom" horiz-adv-x="285" 
d="M183 392h86l-69 -392h-120l41 232h-89l17 94q105 0 134 66z" />
    <glyph glyph-name="two.dnom" horiz-adv-x="326" 
d="M190 399q58 0 93 -29.5t35 -75.5q0 -76 -68 -129l-69 -54h99l-20 -111h-276l15 87l155 127q39 32 39 57q0 17 -18 17q-26 0 -31 -29h-120q9 65 54 102.5t112 37.5z" />
    <glyph glyph-name="three.dnom" horiz-adv-x="359" 
d="M210 399q58 0 91.5 -30t33.5 -77q0 -64 -59 -94q46 -13 46 -70q0 -63 -49 -99t-114 -36q-70 0 -108.5 37t-31.5 100h119q-3 -28 31 -28q14 0 23.5 8t9.5 21q0 23 -31 23h-39l16 93h37q11 0 19.5 7.5t8.5 18.5q0 17 -18 17q-23 0 -28 -24h-119q22 133 162 133z" />
    <glyph glyph-name="four.dnom" horiz-adv-x="392" 
d="M189 392h156l-41 -233h46l-18 -106h-46l-10 -53h-120l10 53h-179l17 100zM186 158l18 99l-11 -19l-63 -80h56z" />
    <glyph glyph-name="five.dnom" horiz-adv-x="353" 
d="M76 392h267l-20 -111h-147l-5 -30q22 6 43 6q47 0 77.5 -27t30.5 -76q0 -71 -47 -116t-121 -45q-70 0 -108.5 37t-28.5 96h119q-3 -22 28 -22q16 0 26 10t10 26q0 24 -25 24q-17 0 -34 -10h-107z" />
    <glyph glyph-name="six.dnom" horiz-adv-x="368" 
d="M213 399q62 0 98.5 -38t29.5 -95h-121q1 11 -5 16.5t-18 5.5q-37 0 -48 -53q28 11 65 11q51 0 81 -28t29 -73q0 -66 -50 -110q-50 -42 -118 -42t-105 42q-35 38 -35 106q0 65 18.5 121t65 96.5t113.5 40.5zM172 159q-15 0 -26.5 -9t-12.5 -22v-3q0 -23 29 -23q15 0 27 9
t12 23q0 25 -29 25z" />
    <glyph glyph-name="seven.dnom" horiz-adv-x="322" 
d="M59 392h274l-17 -96l-178 -296h-137l169 281h-130z" />
    <glyph glyph-name="eight.dnom" horiz-adv-x="364" 
d="M169 153q-14 0 -25 -9.5t-11 -22.5q0 -24 26 -24q15 0 25.5 10t10.5 22q0 10 -7.5 17t-18.5 7zM194 295q-12 0 -20.5 -8.5t-8.5 -20.5q0 -19 21 -19q12 0 20.5 8.5t8.5 19.5q0 8 -6 14t-15 6zM213 399q55 0 88 -32t33 -80q0 -58 -52 -95q34 -25 34 -63q0 -61 -51 -98
q-50 -38 -120 -38q-60 0 -97.5 32t-37.5 81q0 66 62 102q-24 24 -24 57q0 59 48 96q49 38 117 38z" />
    <glyph glyph-name="nine.dnom" horiz-adv-x="368" 
d="M313 357q35 -38 35 -106q0 -65 -18.5 -121t-65 -96.5t-113.5 -40.5q-62 0 -98.5 38t-29.5 95h121q-1 -11 5 -16.5t18 -5.5q38 0 47 52q-26 -10 -64 -10q-50 0 -80 28t-30 73q0 67 50 109q49 43 118 43q68 0 105 -42zM192 233q16 0 27 8.5t12 22.5v3q0 23 -29 23
q-14 0 -26.5 -9t-12.5 -23q0 -25 29 -25z" />
    <glyph glyph-name="zero.subs" horiz-adv-x="377" 
d="M195 299q65 0 100.5 -41t35.5 -113q0 -95 -50 -174q-49 -78 -144 -78q-63 0 -99 41.5t-36 113.5q0 60 18 115q19 55 65 95q47 41 110 41zM180 188q-27 0 -42 -41t-15 -93q0 -50 28 -50q27 0 43 38t16 92t-30 54z" />
    <glyph glyph-name="one.subs" horiz-adv-x="285" 
d="M166 292h86l-69 -392h-120l41 232h-89l17 94q106 0 134 66z" />
    <glyph glyph-name="two.subs" horiz-adv-x="326" 
d="M173 299q58 0 93 -29.5t35 -75.5q0 -76 -68 -129l-69 -54h99l-20 -111h-276l15 87l155 127q39 32 39 57q0 17 -18 17q-26 0 -31 -29h-120q9 65 54 102.5t112 37.5z" />
    <glyph glyph-name="three.subs" horiz-adv-x="359" 
d="M193 299q58 0 91.5 -30t33.5 -77q0 -64 -59 -94q46 -13 46 -70q0 -63 -49 -99q-50 -36 -114 -36q-70 0 -108.5 37t-31.5 100h119q-3 -28 31 -28q14 0 23.5 8t9.5 21q0 23 -31 23h-39l16 93h37q11 0 19.5 7.5t8.5 18.5q0 17 -18 17q-24 0 -28 -24h-119q22 133 162 133z
" />
    <glyph glyph-name="four.subs" horiz-adv-x="392" 
d="M172 292h156l-41 -233h46l-18 -106h-46l-10 -53h-120l10 53h-179l17 100zM169 58l18 99l-11 -19l-63 -80h56z" />
    <glyph glyph-name="five.subs" horiz-adv-x="353" 
d="M59 292h267l-20 -111h-147l-5 -30q22 6 43 6q47 0 77.5 -27t30.5 -76q0 -71 -47 -116q-46 -45 -121 -45q-70 0 -108.5 37t-28.5 96h119q-3 -22 28 -22q16 0 26 10t10 26q0 24 -25 24q-17 0 -34 -10h-107z" />
    <glyph glyph-name="six.subs" horiz-adv-x="368" 
d="M196 299q62 0 98.5 -38t29.5 -95h-121q1 11 -5 16.5t-18 5.5q-37 0 -48 -53q28 11 65 11q51 0 81 -28t29 -73q0 -67 -50 -109q-49 -43 -118 -43q-67 0 -105 42q-35 38 -35 106q0 65 18.5 121t65 96.5t113.5 40.5zM155 59q-15 0 -26.5 -9t-12.5 -22v-3q0 -23 29 -23
q14 0 26.5 9t12.5 23q0 25 -29 25z" />
    <glyph glyph-name="seven.subs" horiz-adv-x="322" 
d="M42 292h274l-17 -96l-178 -296h-137l169 281h-130z" />
    <glyph glyph-name="eight.subs" horiz-adv-x="364" 
d="M152 53q-14 0 -25 -9.5t-11 -22.5q0 -24 26 -24q15 0 25.5 10t10.5 22q0 10 -7.5 17t-18.5 7zM177 195q-12 0 -20.5 -8.5t-8.5 -20.5q0 -19 21 -19q13 0 21 8.5t8 19.5q0 8 -6 14t-15 6zM196 299q55 0 88 -32t33 -80q0 -58 -52 -95q34 -25 34 -63q0 -61 -51 -98
q-50 -38 -120 -38q-60 0 -97.5 32t-37.5 81q0 66 62 102q-24 24 -24 57q0 59 48 96q49 38 117 38z" />
    <glyph glyph-name="nine.subs" horiz-adv-x="368" 
d="M296 257q35 -38 35 -106q0 -65 -18.5 -121t-65 -96.5t-113.5 -40.5q-62 0 -98.5 38t-29.5 95h121q-1 -11 5 -16.5t18 -5.5q38 0 47 52q-26 -10 -64 -10q-50 0 -80 28t-30 73q0 67 50 109q49 43 118 43q67 0 105 -42zM175 133q16 0 27 8.5t12 22.5v3q0 23 -29 23
q-15 0 -27 -9t-12 -23q0 -25 29 -25z" />
    <glyph glyph-name="zero.numr" horiz-adv-x="377" 
d="M265 707q65 0 100.5 -41t35.5 -113q0 -95 -50 -174q-49 -78 -144 -78q-63 0 -99 41.5t-36 113.5q0 60 18 115q19 55 65 95q47 41 110 41zM250 596q-27 0 -42 -41t-15 -93q0 -50 28 -50q27 0 43 38t16 92t-30 54z" />
    <glyph glyph-name="one.numr" horiz-adv-x="285" 
d="M236 700h86l-69 -392h-120l41 232h-89l17 94q106 0 134 66z" />
    <glyph glyph-name="two.numr" horiz-adv-x="326" 
d="M243 707q58 0 93 -29.5t35 -75.5q0 -76 -68 -129l-69 -54h99l-20 -111h-276l15 87l155 127q39 32 39 57q0 17 -18 17q-26 0 -31 -29h-120q9 65 54 102.5t112 37.5z" />
    <glyph glyph-name="three.numr" horiz-adv-x="359" 
d="M263 707q58 0 91.5 -30t33.5 -77q0 -64 -59 -94q46 -13 46 -70q0 -63 -49 -99q-50 -36 -114 -36q-70 0 -108.5 37t-31.5 100h119q-3 -28 31 -28q14 0 23.5 8t9.5 21q0 23 -31 23h-39l16 93h37q11 0 19.5 7.5t8.5 18.5q0 17 -18 17q-24 0 -28 -24h-119q22 133 162 133z
" />
    <glyph glyph-name="four.numr" horiz-adv-x="392" 
d="M242 700h156l-41 -233h46l-18 -106h-46l-10 -53h-120l10 53h-179l17 100zM239 466l18 99l-11 -19l-63 -80h56z" />
    <glyph glyph-name="five.numr" horiz-adv-x="353" 
d="M129 700h267l-20 -111h-147l-5 -30q23 6 43 6q47 0 77.5 -27t30.5 -76q0 -71 -47 -116q-46 -45 -121 -45q-70 0 -108.5 37t-28.5 96h119q-3 -22 28 -22q16 0 26 10t10 26q0 24 -25 24q-17 0 -34 -10h-107z" />
    <glyph glyph-name="six.numr" horiz-adv-x="368" 
d="M266 707q62 0 98.5 -38t29.5 -95h-121q1 11 -5 16.5t-18 5.5q-37 0 -48 -53q28 11 65 11q51 0 81 -28t29 -73q0 -66 -50 -110q-49 -42 -118 -42q-67 0 -105 42q-35 38 -35 106q0 65 18.5 121t65 96.5t113.5 40.5zM225 467q-15 0 -26.5 -9t-12.5 -22v-3q0 -23 29 -23
q14 0 26.5 9t12.5 23q0 25 -29 25z" />
    <glyph glyph-name="seven.numr" horiz-adv-x="322" 
d="M112 700h274l-17 -96l-178 -296h-137l169 281h-130z" />
    <glyph glyph-name="eight.numr" horiz-adv-x="364" 
d="M222 461q-14 0 -25 -9.5t-11 -22.5q0 -24 26 -24q15 0 25.5 10t10.5 22q0 10 -7.5 17t-18.5 7zM247 603q-12 0 -20.5 -8.5t-8.5 -20.5q0 -19 21 -19q13 0 21 8.5t8 19.5q0 8 -6 14t-15 6zM266 707q55 0 88 -32t33 -80q0 -58 -52 -95q34 -25 34 -63q0 -61 -51 -98
q-50 -38 -120 -38q-60 0 -97.5 32t-37.5 81q0 66 62 102q-24 24 -24 57q0 59 48 96q49 38 117 38z" />
    <glyph glyph-name="nine.numr" horiz-adv-x="368" 
d="M366 665q35 -38 35 -106q0 -65 -18.5 -121t-65 -96.5t-113.5 -40.5q-62 0 -98.5 38t-29.5 95h121q-1 -11 5 -16.5t18 -5.5q38 0 47 52q-26 -10 -64 -10q-50 0 -80 28t-30 73q0 67 50 109q49 43 118 43q67 0 105 -42zM245 541q16 0 27 8.5t12 22.5v3q0 23 -29 23
q-15 0 -27 -9t-12 -23q0 -25 29 -25z" />
    <glyph glyph-name="zero.lnum" horiz-adv-x="575" 
d="M340 552q-37 0 -69 -53q-61 -103 -61 -251q0 -100 59 -100q35 0 67 50q30 49 46.5 117.5t16.5 131.5q0 105 -59 105zM571 439q0 -259 -145 -387q-76 -65 -176 -65t-156 73t-56 201q0 259 144 386q75 66 176 66q100 0 156.5 -73.5t56.5 -200.5z" />
    <glyph glyph-name="one.lnum" horiz-adv-x="575" 
d="M349 700h125l-96 -546h125l-27 -154h-423l27 154h125l51 293h-148l26 145q88 0 139.5 25.5t75.5 82.5z" />
    <glyph glyph-name="two.lnum" horiz-adv-x="575" 
d="M359 713q95 0 149 -51q55 -51 54 -130q0 -62 -31 -115.5t-101 -119.5l-141 -136h215l-29 -161h-454l21 125l247 234q50 45 73 78q23 32 23 72q0 43 -40 43q-59 0 -69 -73h-173q17 107 84 170q68 64 172 64z" />
    <glyph glyph-name="three.lnum" horiz-adv-x="575" 
d="M366 713q94 0 149 -53q54 -53 54 -134q0 -57 -28.5 -104t-78.5 -72q34 -12 56.5 -43.5t22.5 -79.5q0 -113 -78 -177q-77 -63 -193 -63q-111 0 -172 64t-47 173h172q-6 -36 11.5 -56t53.5 -20q34 0 56.5 24.5t22.5 60.5q0 55 -76 55h-55l26 147h53q33 0 55 19.5t22 53.5
q0 44 -43 44q-27 0 -45.5 -18.5t-24.5 -51.5h-172q16 112 84 171.5t175 59.5z" />
    <glyph glyph-name="four.lnum" horiz-adv-x="575" 
d="M344 700h221l-77 -435h82l-27 -154h-82l-19 -111h-173l19 111h-287l25 139zM318 263l40 231l-21 -36l-127 -195h108z" />
    <glyph glyph-name="five.lnum" horiz-adv-x="575" 
d="M161 700h428l-29 -161h-255l-16 -91q33 12 83 12q80 0 128.5 -46.5t48.5 -131.5q0 -129 -73 -212q-72 -83 -207 -83q-110 0 -170 62q-60 63 -44 165h172q-5 -32 10.5 -49t48.5 -17q38 0 61.5 29t23.5 73q0 64 -59 64q-35 0 -69 -20h-154z" />
    <glyph glyph-name="six.lnum" horiz-adv-x="575" 
d="M374 713q100 0 158 -63q58 -62 43 -163h-175q8 65 -52 65q-78 0 -107 -141q51 36 122 36q82 0 130.5 -53t48.5 -140q0 -115 -79 -191t-199 -76q-113 0 -167 70q-51 67 -51 192q0 132 44 246q36 98 107.5 157.5t176.5 60.5zM304 306q-40 0 -65.5 -25.5t-26.5 -66.5v-4
q0 -29 17 -47t46 -18q36 0 63 29q27 30 27 68q0 28 -17 46t-44 18z" />
    <glyph glyph-name="seven.lnum" horiz-adv-x="575" 
d="M141 700h467l-24 -139l-326 -561h-197l315 539h-263z" />
    <glyph glyph-name="eight.lnum" horiz-adv-x="575" 
d="M342 554q-30 0 -50.5 -22t-20.5 -55q0 -21 12.5 -34t36.5 -13q31 0 51 21.5t20 53.5q0 22 -13.5 35.5t-35.5 13.5zM295 285q-36 0 -61 -24t-25 -61q0 -54 61 -54q37 0 61 22.5t24 60.5q0 26 -16.5 41t-43.5 15zM364 713q90 0 145 -54t55 -133q0 -51 -25.5 -98t-69.5 -78
q61 -40 61 -119q0 -106 -85 -175t-197 -69q-92 0 -154 56q-61 55 -61 139q0 126 114 189q-45 40 -45 112q0 96 79 163t183 67z" />
    <glyph glyph-name="nine.lnum" horiz-adv-x="575" 
d="M249 -13q-99 0 -158 63q-58 62 -43 163h175q-8 -65 52 -65q79 0 107 141q-53 -36 -122 -36q-82 0 -130.5 53t-48.5 140q0 114 79 190q80 77 199 77q113 0 167 -70q51 -67 51 -192q0 -132 -45 -247q-35 -97 -106.5 -156.5t-176.5 -60.5zM319 394q40 0 66 26.5t26 69.5
q0 29 -17 47t-46 18q-36 0 -63 -30q-27 -29 -27 -67q0 -28 17 -46t44 -18z" />
    <glyph glyph-name="a.sups" horiz-adv-x="465" 
d="M272 714q74 0 101 -53l17 46h102l-61 -348h-102l-3 36q-40 -43 -103 -43q-65 0 -105.5 43.5t-40.5 112.5q0 82 56 144t139 62zM284 601q-34 0 -57.5 -23t-23.5 -58q0 -24 17 -39.5t42 -15.5q29 0 52 17.5t29 49.5l1 6q6 31 -11.5 47t-48.5 16z" />
    <glyph glyph-name="b.sups" horiz-adv-x="465" 
d="M154 855h121l-31 -173q41 32 92 32q65 0 105.5 -43.5t40.5 -112.5q0 -83 -56 -145q-55 -61 -139 -61q-73 0 -101 53l-17 -46h-102zM297 601q-29 0 -52 -17.5t-29 -49.5l-1 -6q-6 -31 11.5 -47t48.5 -16q34 0 57.5 23t23.5 58q0 24 -17 39.5t-42 15.5z" />
    <glyph glyph-name="c.sups" horiz-adv-x="418" 
d="M288 714q67 0 109 -39.5t42 -105.5h-114q-6 36 -47 36q-32 0 -54 -26t-22 -65q0 -24 15 -39t39 -15q20 0 35.5 10.5t21.5 26.5h115q-18 -69 -68 -107t-122 -38t-116.5 42t-44.5 111q0 87 59 148q58 61 152 61z" />
    <glyph glyph-name="d.sups" horiz-adv-x="465" 
d="M397 855h121l-87 -496h-102l-3 36q-40 -43 -103 -43q-65 0 -105.5 43.5t-40.5 112.5q0 82 56 144t139 62q62 0 93 -40zM284 601q-34 0 -57.5 -23t-23.5 -58q0 -24 17 -39.5t42 -15.5q29 0 52 17.5t29 49.5l1 6q6 31 -11.5 47t-48.5 16z" />
    <glyph glyph-name="e.sups" horiz-adv-x="414" 
d="M285 714q76 0 118 -49q42 -50 26 -137l-5 -27h-227v-1q-2 -22 12 -35.5t41 -13.5q40 0 52 23h116q-45 -122 -182 -122q-73 0 -117.5 42t-44.5 111q0 88 60 148q60 61 151 61zM269 619q-25 0 -42.5 -13t-19.5 -34h106q2 22 -9.5 34.5t-34.5 12.5z" />
    <glyph glyph-name="f.sups" horiz-adv-x="286" 
d="M320 864q29 0 47 -6l-19 -106q-13 8 -34 8q-39 0 -45 -38l-3 -15h75l-19 -110h-76l-42 -238h-120l42 238h-49l19 110h49l5 26q26 131 170 131z" />
    <glyph glyph-name="g.sups" horiz-adv-x="457" 
d="M283 601q-31 0 -53 -20.5t-22 -51.5q0 -22 15.5 -35.5t38.5 -13.5q27 0 49 15.5t28 41.5l1 5q6 28 -11 43.5t-46 15.5zM272 714q70 0 96 -53l17 46h102l-61 -343q-14 -75 -69 -117t-142 -42q-78 0 -122.5 38.5t-40.5 109.5h116q-1 -20 14 -30t46 -10q69 0 79 55l6 30
q-35 -32 -98 -32q-60 0 -97 40t-37 104q0 80 54 142t137 62z" />
    <glyph glyph-name="h.sups" horiz-adv-x="429" 
d="M156 855h121l-31 -177q38 36 97 36q56 0 80.5 -33.5t13.5 -94.5l-40 -227h-121l34 190q9 47 -27 47q-23 0 -40 -14.5t-22 -42.5l-32 -180h-121z" />
    <glyph glyph-name="i.sups" horiz-adv-x="225" 
d="M219 868q25 0 41 -15t16 -39q0 -30 -25 -54t-56 -24q-25 0 -41.5 15.5t-16.5 38.5q0 32 24.5 55t57.5 23zM129 707h121l-61 -348h-121z" />
    <glyph glyph-name="j.sups" horiz-adv-x="225" 
d="M216 868q26 0 43 -15.5t17 -40.5q0 -30 -26 -53t-57 -23q-25 0 -40.5 15.5t-15.5 38.5q0 32 24 55t55 23zM129 707h120l-62 -352q-13 -72 -56.5 -111t-110.5 -39q-33 0 -60 9l18 106q17 -7 42 -7q40 0 50 58z" />
    <glyph glyph-name="k.sups" horiz-adv-x="424" 
d="M156 855h120l-45 -258l90 110h150l-128 -155l80 -193h-128l-45 108l-53 -56l-9 -52h-120z" />
    <glyph glyph-name="l.sups" horiz-adv-x="224" 
d="M156 855h120l-88 -496h-120z" />
    <glyph glyph-name="m.sups" horiz-adv-x="630" 
d="M547 714q56 0 79.5 -33.5t12.5 -94.5l-40 -227h-121l33 189q7 48 -25 48q-44 0 -58 -44v-1l-34 -192h-120l33 189q7 48 -26 48q-50 0 -61 -57l-31 -180h-121l61 348h102l3 -42q37 49 107 49t90 -53q48 53 116 53z" />
    <glyph glyph-name="o.sups" horiz-adv-x="449" 
d="M297 714q72 0 120 -45q49 -43 49 -113q0 -90 -62 -147t-159 -57q-73 0 -122 44q-47 44 -47 113q0 88 61 146q62 59 160 59zM284 605q-33 0 -58 -25t-25 -61q0 -26 16 -42.5t42 -16.5q33 0 57 26.5t24 62.5q0 25 -15.5 40.5t-40.5 15.5z" />
    <glyph glyph-name="p.sups" horiz-adv-x="464" 
d="M335 714q65 0 105.5 -43.5t40.5 -112.5q0 -83 -56 -145q-55 -61 -139 -61q-62 0 -93 40l-32 -179h-121l87 494h102l3 -36q40 43 103 43zM296 601q-29 0 -52 -17.5t-29 -49.5l-1 -6q-6 -31 11.5 -47t48.5 -16q34 0 57.5 23t23.5 58q0 24 -17 39.5t-42 15.5z" />
    <glyph glyph-name="q.sups" horiz-adv-x="464" 
d="M272 714q74 0 101 -53l18 46h102l-87 -494h-121l30 171q-41 -32 -92 -32q-65 0 -105.5 43.5t-40.5 112.5q0 82 56 144t139 62zM284 601q-34 0 -57.5 -23t-23.5 -58q0 -24 17 -39.5t42 -15.5q29 0 52 17.5t29 49.5l1 6q6 31 -11.5 47t-48.5 16z" />
    <glyph glyph-name="r.sups" horiz-adv-x="304" 
d="M354 710l-22 -123q-52 0 -81 -15q-28 -15 -34 -50l-29 -163h-120l61 348h101l3 -51q35 54 121 54z" />
    <glyph glyph-name="s.sups" horiz-adv-x="361" 
d="M255 714q59 0 97 -32t36 -80h-120q1 12 -5 18t-20 6q-12 0 -20 -6t-8 -16q0 -20 53 -25q106 -10 106 -95q0 -63 -50 -98q-49 -34 -121 -34q-64 0 -102.5 31.5t-37.5 81.5h120q-4 -25 31 -25q31 0 31 21q0 19 -51 25q-50 7 -77 31.5t-27 61.5q0 61 46.5 98t118.5 37z" />
    <glyph glyph-name="t.sups" horiz-adv-x="304" 
d="M164 787h121l-15 -80h72l-19 -110h-73l-18 -91q-4 -24 4 -34t31 -10t32 4l-18 -104q-27 -8 -63 -8q-69 0 -97 28.5t-15 90.5l22 124h-50l19 110h52z" />
    <glyph glyph-name="u.sups" horiz-adv-x="423" 
d="M337 707h120l-62 -348h-101l-1 42q-42 -49 -109 -49q-55 0 -79 33t-13 93l41 229h121l-35 -193q-7 -45 29 -45q47 0 56 51z" />
    <glyph glyph-name="v.sups" horiz-adv-x="390" 
d="M320 707h134l-184 -348h-123l-61 348h126l17 -175v-35l13 35z" />
    <glyph glyph-name="w.sups" horiz-adv-x="574" 
d="M504 707h134l-164 -348h-127l-17 158l-80 -158h-120l-42 348h125l5 -175v-41l14 41l73 175h108l10 -175l1 -41l13 41z" />
    <glyph glyph-name="x.sups" horiz-adv-x="408" 
d="M329 707h138l-130 -173l70 -175h-139l-32 85l-62 -85h-140l134 175l-71 173h139l32 -82z" />
    <glyph glyph-name="y.sups" horiz-adv-x="395" 
d="M325 707h134l-260 -494h-124l75 150l-59 344h126l17 -175v-35l13 35z" />
    <glyph glyph-name="z.sups" horiz-adv-x="367" 
d="M115 707h294l-17 -95l-152 -149h133l-18 -104h-302l16 90l155 153h-127z" />
    <glyph glyph-name="zero.slash" horiz-adv-x="584" 
d="M569 439q0 -259 -145 -387q-76 -65 -176 -65t-156 73t-56 201q0 259 144 386q75 66 176 66q100 0 156.5 -73.5t56.5 -200.5zM267 148q34 0 63 44q57 88 66 228l-175 -245q15 -27 46 -27zM338 552q-34 0 -64 -45q-57 -87 -65 -228l174 246q-15 27 -45 27z" />
    <glyph glyph-name="g_i.alt" horiz-adv-x="621" 
d="M392 678q-98 0 -168 -72q-70 -71 -70 -173q0 -72 43 -115.5t118 -43.5q98 0 166 72q69 72 69 172q0 73 -42 116.5t-116 43.5zM401 760q108 0 171 -69q63 -67 63 -173q0 -138 -94 -232q-93 -94 -235 -94q-109 0 -174 68t-65 172q0 135 95 232q96 96 239 96z" />
    <glyph glyph-name="L_a_r_s_s_e_i_t" horiz-adv-x="3413" 
d="M1960 743l-27 -153q-34 0 -58 -21t-31 -58l-1 -1h322l-17 -112l-118 -174q109 -49 109 -177q0 -120 -78 -193q-79 -74 -204 -74q-49 0 -88 9l29 164q36 -12 65 -12q43 0 70 25.5t27 63.5q0 65 -80 65h-47l25 119l99 152h-138l-66 -366h-174l90 507q22 122 93 179t198 57z
M850 521q106 0 139 -81l24 70h138l-90 -510h-138l-2 58q-57 -69 -165 -69q-85 0 -139 64q-53 65 -53 160q0 122 81 215t205 93zM2479 521q109 0 169 -71q60 -70 37 -209l-5 -30h-330q-1 -3 -1 -13q0 -33 21.5 -53.5t59.5 -20.5q61 0 82 41h161q-81 -176 -262 -176
q-101 0 -163 62q-61 62 -61 164q0 128 80 217q81 89 212 89zM146 700h173l-95 -539h275l-28 -161h-448zM3169 630h164l-23 -120h106l-26 -148h-107l-30 -156q-6 -36 6 -51t45 -15q28 0 48 6l-25 -142q-35 -11 -89 -11q-95 0 -133.5 41t-21.5 130l37 198h-75l26 148h76z
M1580 515l-29 -164q-58 0 -105 -29q-44 -26 -53 -82l-42 -240h-163l90 510h138l2 -77q46 82 162 82zM2831 510h163l-90 -510h-163zM860 368q-52 0 -89 -40q-37 -38 -37 -96q0 -39 25 -64.5t61 -25.5q42 0 80 29q40 30 47 81l1 6q8 49 -18 79.5t-70 30.5zM2882 718
q32 26 71 26t62 -26q23 -27 16 -65q-8 -40 -39 -65q-32 -26 -71 -26t-62 26t-15 65q8 41 38 65zM2467 392q-39 0 -65.5 -21.5t-33.5 -60.5h166q5 37 -13 59.5t-54 22.5z" />
    <glyph glyph-name="A.smcp" horiz-adv-x="625" 
d="M272 539h191l111 -539h-178l-13 78h-186l-43 -78h-181zM343 322l-6 33l-15 -33l-60 -123h99z" />
    <glyph glyph-name="B.smcp" horiz-adv-x="530" 
d="M114 539h198q82 0 134 -40q53 -41 53 -105q0 -80 -54 -131q42 -29 42 -81q0 -83 -62 -133q-61 -49 -150 -49h-256zM283 214h-59l-14 -76h62q17 0 29 13t12 32q0 31 -30 31zM294 399h-39l-13 -73h41q18 0 28.5 11.5t10.5 29.5q0 32 -28 32z" />
    <glyph glyph-name="C.smcp" horiz-adv-x="609" 
d="M364 549q106 0 168 -59q61 -58 70 -148h-183q-5 28 -21 39.5t-51 11.5q-63 0 -96 -47q-33 -46 -33 -113q0 -87 86 -87q77 0 102 61h174q-76 -217 -287 -217q-116 0 -183 67t-67 174q0 135 88 226q89 92 233 92z" />
    <glyph glyph-name="D.smcp" horiz-adv-x="611" 
d="M114 539h213q120 0 191 -67q72 -67 72 -167q0 -140 -95 -223q-94 -82 -245 -82h-231zM310 383h-54l-43 -227h55q70 0 108.5 39.5t38.5 108.5q0 79 -105 79z" />
    <glyph glyph-name="E.smcp" horiz-adv-x="445" 
d="M114 539h345l-25 -149h-180l-9 -52h147l-21 -132h-150l-10 -57h178l-25 -149h-345z" />
    <glyph glyph-name="F.smcp" horiz-adv-x="428" 
d="M114 539h343l-25 -150h-176l-11 -62h145l-21 -136h-148l-34 -191h-168z" />
    <glyph glyph-name="G.smcp" horiz-adv-x="635" 
d="M364 549q105 0 167 -59q64 -59 74 -144h-183q-4 22 -24 36.5t-52 14.5q-62 0 -95 -48t-33 -117q0 -41 22 -66.5t59 -25.5q69 0 94 45h-76l23 124h256l-10 -58q-46 -261 -292 -261q-116 0 -184 68q-67 67 -67 172q0 138 87 228q88 91 234 91z" />
    <glyph glyph-name="H.smcp" horiz-adv-x="604" 
d="M435 539h168l-95 -539h-168l35 201h-153l-35 -201h-168l95 539h168l-33 -182h153z" />
    <glyph glyph-name="I.smcp" horiz-adv-x="283" 
d="M114 539h168l-95 -539h-168z" />
    <glyph glyph-name="J.smcp" horiz-adv-x="483" 
d="M329 539h168l-63 -356q-33 -185 -212 -185q-94 0 -146 60q-51 60 -43 146h168q-7 -48 30 -48q31 0 37 39z" />
    <glyph glyph-name="K.smcp" horiz-adv-x="582" 
d="M406 539h211l-204 -254l113 -285h-179l-66 171l-77 -79l-17 -92h-168l95 539h168l-37 -205z" />
    <glyph glyph-name="L.smcp" horiz-adv-x="456" 
d="M114 539h168l-69 -383h207l-26 -156h-375z" />
    <glyph glyph-name="M.smcp" horiz-adv-x="750" 
d="M540 539h209l-95 -539h-168l47 258l-28 -61l-95 -197h-147l-25 197l-5 61l-46 -258h-168l95 539h192l59 -275l4 -26l11 26z" />
    <glyph glyph-name="N.smcp" horiz-adv-x="619" 
d="M450 539h168l-95 -539h-147l-126 232l-16 37l-47 -269h-168l95 539h148l122 -239l17 -37z" />
    <glyph glyph-name="O.smcp" horiz-adv-x="652" 
d="M366 549q121 0 193 -72q73 -70 73 -179q0 -140 -95 -224t-232 -84q-121 0 -191 70q-71 71 -71 177q0 141 93 226q94 86 230 86zM359 393q-63 0 -102 -42t-39 -109q0 -45 25 -70.5t70 -25.5q65 0 104.5 42t39.5 109q0 45 -25.5 70.5t-72.5 25.5z" />
    <glyph glyph-name="P.smcp" horiz-adv-x="508" 
d="M114 539h194q88 0 144 -51q56 -50 54 -123q1 -94 -71 -150q-71 -56 -175 -56h-45l-28 -159h-168zM291 393h-35l-15 -88h37q24 0 38.5 14.5t14.5 38.5q0 35 -40 35z" />
    <glyph glyph-name="Q.smcp" horiz-adv-x="652" 
d="M366 549q121 0 193 -72q73 -70 73 -179q0 -138 -93 -223l113 -159h-204l-56 84q-44 -10 -87 -10q-121 0 -191 70q-71 71 -71 177q0 141 93 226q94 86 230 86zM359 393q-63 0 -102 -42t-39 -109q0 -43 24 -69t68 -27l18 96h120q9 26 9 55q0 45 -25.5 70.5t-72.5 25.5z" />
    <glyph glyph-name="R.smcp" horiz-adv-x="516" 
d="M111 539h192q90 0 144 -48t54 -122q0 -55 -28.5 -98t-78.5 -68l66 -203h-177l-50 173h-18l-31 -173h-168zM287 391h-33l-16 -82h34q22 0 37.5 14t15.5 34q0 34 -38 34z" />
    <glyph glyph-name="S.smcp" horiz-adv-x="483" 
d="M290 549q78 0 133 -47q54 -46 48 -128h-161q7 52 -35 52q-32 0 -32 -35q0 -19 17 -33t59 -26q68 -21 97.5 -58t29.5 -95q0 -89 -59 -139t-159 -50q-99 0 -154 55q-56 56 -47 130h165q-5 -26 6.5 -44t34.5 -18q18 0 29 11t11 30q0 17 -16 29t-57 24q-131 38 -131 155
q0 81 62 134q64 53 159 53z" />
    <glyph glyph-name="T.smcp" horiz-adv-x="505" 
d="M70 539h481l-26 -156h-156l-69 -383h-168l69 383h-157z" />
    <glyph glyph-name="U.smcp" horiz-adv-x="582" 
d="M439 539h168l-59 -333q-18 -100 -88 -158t-180 -58q-114 0 -170 71q-54 72 -35 181l53 297h169l-57 -316q-14 -77 57 -77t86 77z" />
    <glyph glyph-name="V.smcp" horiz-adv-x="593" 
d="M463 539h182l-303 -539h-162l-113 539h172l50 -274l5 -41l21 41z" />
    <glyph glyph-name="W.smcp" horiz-adv-x="829" 
d="M695 539h181l-252 -539h-187l-18 211l1 38l-12 -38l-91 -211h-183l-63 539h172l22 -260l-1 -40l13 40l112 260h160l18 -260l-3 -40l15 40z" />
    <glyph glyph-name="X.smcp" horiz-adv-x="600" 
d="M432 539h212l-221 -282l119 -257h-184l-64 149l-109 -149h-211l223 290l-117 249h182l66 -142z" />
    <glyph glyph-name="Y.smcp" horiz-adv-x="574" 
d="M422 539h205l-257 -346l-35 -193h-168l35 193l-137 346h182l46 -143l10 -36l24 36z" />
    <glyph glyph-name="Z.smcp" horiz-adv-x="508" 
d="M98 539h411l-23 -137l-230 -246h198l-26 -156h-423l23 137l230 246h-186z" />
    <glyph glyph-name="Aringacute.smcp" horiz-adv-x="625" 
d="M272 539h191l111 -539h-178l-13 78h-186l-43 -78h-181zM414 881h235l-164 -116q23 -26 23 -66q0 -55 -38 -93q-37 -37 -96 -37q-45 0 -73.5 28t-28.5 70q0 60 43 97zM343 322l-6 33l-15 -33l-60 -123h99zM398 727q-21 0 -36.5 -15t-15.5 -36q0 -15 10.5 -25.5t26.5 -10.5
q23 0 37 15.5t14 37.5q0 15 -10 24.5t-26 9.5z" />
    <glyph glyph-name="Aogonek.smcp" horiz-adv-x="625" 
d="M272 539h191l111 -539h-47q-94 -34 -94 -101q0 -34 40 -34q16 0 40 8l3 -69q-22 -12 -56 -12q-55 0 -88.5 28t-33.5 75q0 67 58 106l-13 77h-186l-43 -78h-181zM343 322l-6 33l-15 -33l-60 -123h99z" />
    <glyph glyph-name="AE.smcp" horiz-adv-x="829" 
d="M420 539h423l-25 -149h-179l-9 -52h147l-22 -132h-148l-10 -57h178l-26 -149h-345l14 78h-171l-66 -78h-196zM442 219l29 148l-26 -38l-88 -110h85z" />
    <glyph glyph-name="AEacute.smcp" horiz-adv-x="829" 
d="M415 539h423l-25 -149h-179l-9 -52h147l-22 -132h-148l-10 -57h178l-26 -149h-345l14 78h-171l-66 -78h-196zM437 219l29 148l-26 -38l-88 -110h85zM574 690h235l-181 -128h-162z" />
    <glyph glyph-name="Ccedilla.smcp" horiz-adv-x="609" 
d="M364 549q106 0 168 -59q61 -58 70 -148h-183q-5 28 -21 39.5t-51 11.5q-63 0 -96 -47q-33 -46 -33 -113q0 -87 86 -87q77 0 102 61h174q-75 -212 -278 -217l-12 -33q68 -8 68 -70q0 -51 -36.5 -82t-93.5 -31q-58 0 -90 29l54 65q15 -21 41 -21q13 0 22.5 8.5t9.5 21.5
q0 21 -28 21q-12 0 -23 -4l-15 4l37 97q-90 16 -141.5 79t-51.5 157q0 135 88 226q89 92 233 92z" />
    <glyph glyph-name="Dcroat.smcp" horiz-adv-x="619" 
d="M122 539h213q120 0 191 -67q72 -67 72 -167q0 -140 -95 -223q-94 -82 -245 -82h-231l39 225h-37l18 109h39zM318 383h-54l-10 -49h44l-18 -109h-46l-13 -69h55q70 0 108.5 39.5t38.5 108.5q0 79 -105 79z" />
    <glyph glyph-name="Hbar.smcp" horiz-adv-x="622" 
d="M441 539h168l-8 -43h49l-18 -95h-48l-70 -401h-168l35 201h-153l-35 -201h-168l70 401h-47l18 95h46l8 43h168l-8 -43h153zM263 401l-8 -44h153l8 44h-153z" />
    <glyph glyph-name="Iogonek.smcp" horiz-adv-x="283" 
d="M114 539h168l-95 -539h-39q-94 -34 -94 -101q0 -34 40 -34q16 0 40 8l3 -69q-23 -12 -56 -12q-55 0 -88.5 28t-33.5 75q0 67 60 108z" />
    <glyph glyph-name="Lcaron.smcp" horiz-adv-x="456" 
d="M114 539h168l-69 -383h207l-26 -156h-375zM433 576q40 0 61 -27.5t13 -71.5q-19 -104 -127 -204l-41 15q30 52 47 115q-33 5 -49.5 28t-10.5 56q7 37 38 63t69 26z" />
    <glyph glyph-name="Lslash.smcp" horiz-adv-x="485" 
d="M143 539h168l-36 -199l48 12l25 -100l-93 -24l-13 -72h207l-26 -156h-375l32 182l-52 -13l-25 101l97 25z" />
    <glyph glyph-name="Ldot.smcp" horiz-adv-x="456" 
d="M114 539h168l-69 -383h207l-26 -156h-375zM402 403q35 0 57.5 -21t22.5 -53q0 -45 -34 -76q-35 -32 -78 -32q-35 0 -57 21t-22 54q0 44 34 75q35 32 77 32z" />
    <glyph glyph-name="Oslash.smcp" horiz-adv-x="652" 
d="M366 549q59 0 111 -20l74 89l95 -73l-71 -85q57 -66 57 -162q0 -140 -95 -224t-232 -84q-61 0 -108 18l-67 -80l-96 72l64 76q-55 65 -55 161q0 141 93 226q94 86 230 86zM363 393h-4q-63 0 -102 -42t-39 -109q0 -16 1 -21zM457 297q0 2 -2 20l-143 -171h1q65 0 104.5 42
t39.5 109z" />
    <glyph glyph-name="Oslashacute.smcp" horiz-adv-x="652" 
d="M366 549q59 0 111 -20l74 89l95 -73l-71 -85q57 -66 57 -162q0 -140 -95 -224t-232 -84q-61 0 -108 18l-67 -80l-96 72l64 76q-55 65 -55 161q0 141 93 226q94 86 230 86zM440 752h212l-195 -158h-141zM363 393h-4q-63 0 -102 -42t-39 -109q0 -16 1 -21zM457 297
q0 2 -2 20l-143 -171h1q65 0 104.5 42t39.5 109z" />
    <glyph glyph-name="OE.smcp" horiz-adv-x="839" 
d="M508 539h345l-25 -149h-180l-9 -52h147l-21 -132h-150l-10 -57h178l-25 -149h-345l4 23q-65 -33 -139 -33q-104 0 -170 69q-65 71 -65 175q0 142 92 228q91 87 230 87q83 0 139 -29zM359 393q-63 0 -102 -43.5t-39 -110.5q0 -43 25 -68t70 -25q65 0 106 44q42 44 42 110
q0 44 -26.5 68.5t-75.5 24.5z" />
    <glyph glyph-name="Scedilla.smcp" horiz-adv-x="483" 
d="M289 549q78 0 133 -47q54 -46 48 -128h-161q7 52 -35 52q-32 0 -32 -35q0 -19 17 -33t59 -26q68 -21 97.5 -58t29.5 -95q0 -88 -57 -137.5t-154 -51.5l-12 -32q68 -8 68 -70q0 -51 -36.5 -82t-93.5 -31q-58 0 -90 29l54 65q15 -21 41 -21q13 0 22.5 8.5t9.5 21.5
q0 21 -28 21q-12 0 -23 -4l-15 4l37 97q-73 15 -112 66q-38 51 -30 113h165q-5 -26 6.5 -44t34.5 -18q18 0 29 11t11 30q0 17 -16 29t-57 24q-131 38 -131 155q0 81 62 134q64 53 159 53z" />
    <glyph glyph-name="germandbls.smcp" horiz-adv-x="567" 
d="M335 549q138 0 206 -90l-92 -128q39 -15 62.5 -51.5t23.5 -89.5q0 -87 -64 -141q-65 -54 -168 -54q-23 0 -73 5l25 149q26 -8 49 -8q54 0 54 42q0 23 -26.5 36.5t-71.5 13.5l5 66l74 95l-3 1q-4 1 -10 2t-13 1q-54 0 -64 -58l-61 -340h-168l62 354q34 195 253 195z" />
    <glyph glyph-name="Tbar.smcp" horiz-adv-x="505" 
d="M73 539h481l-26 -156h-156l-17 -95h102l-19 -110h-103l-32 -178h-168l32 178h-99l19 110h100l17 95h-157z" />
    <glyph glyph-name="Eng.smcp" horiz-adv-x="629" 
d="M450 539h168l-91 -521q-31 -184 -240 -184l24 147q43 0 46 27l3 21l-110 203l-16 37l-47 -269h-168l95 539h148l122 -240l17 -36z" />
    <glyph glyph-name="Eth.smcp" horiz-adv-x="619" 
d="M122 539h213q120 0 191 -67q72 -67 72 -167q0 -140 -95 -223q-94 -82 -245 -82h-231l39 225h-37l18 109h39zM318 383h-54l-10 -49h44l-18 -109h-46l-13 -69h55q70 0 108.5 39.5t38.5 108.5q0 79 -105 79z" />
    <glyph glyph-name="Thorn.smcp" horiz-adv-x="525" 
d="M114 539h168l-13 -69h53q84 0 137 -48q54 -46 54 -117q0 -91 -68 -147q-67 -55 -169 -55h-70l-19 -103h-168zM301 328h-57l-16 -84h66q19 0 31.5 13.5t12.5 34.5q0 16 -10 26t-27 10z" />
    <glyph glyph-name="exclam.smcp" horiz-adv-x="268" 
d="M117 539h158l-61 -348h-159zM126 156q32 0 52.5 -19t20.5 -49q0 -39 -30.5 -67.5t-70.5 -28.5q-32 0 -52.5 19t-20.5 49q0 38 30 67q32 29 71 29z" />
    <glyph glyph-name="question.smcp" horiz-adv-x="408" 
d="M246 548q74 0 121 -38q48 -37 48 -98q0 -43 -15 -74.5t-36 -48t-43 -29t-38 -27.5t-18 -34l-1 -8h-159l2 11q7 37 26 64.5t41 42.5t43.5 27.5t35.5 28.5t14 36q0 25 -31 25q-18 0 -31 -10.5t-16 -28.5h-148q10 74 65.5 117.5t139.5 43.5zM179 156q32 0 52.5 -19t20.5 -49
q0 -40 -31 -68t-70 -28q-33 0 -53.5 18t-20.5 47q0 42 31 70q32 29 71 29z" />
    <glyph glyph-name="parenleft.smcp" horiz-adv-x="277" 
d="M207 582l109 -77q-154 -142 -154 -328q0 -85 50 -193l-114 -66q-84 140 -84 262q0 115 50 219.5t143 182.5z" />
    <glyph glyph-name="parenright.smcp" horiz-adv-x="277" 
d="M45 517l113 65q84 -136 84 -262q0 -115 -50 -219.5t-143 -181.5l-109 77q155 143 155 328q0 85 -50 193z" />
    <glyph glyph-name="bracketleft.smcp" horiz-adv-x="329" 
d="M118 551h238l-24 -142h-89l-60 -326h90l-25 -142h-238z" />
    <glyph glyph-name="bracketright.smcp" horiz-adv-x="329" 
d="M72 551h238l-107 -610h-238l23 142h90l60 326h-90z" />
    <glyph glyph-name="braceleft.smcp" horiz-adv-x="309" 
d="M328 551h13l-24 -142h-5q-23 0 -41 -17.5t-23 -44.5l-3 -15q-7 -36 -27.5 -61t-50.5 -32q28 -7 40.5 -32t5.5 -59l-4 -17q-12 -48 43 -48h6l-24 -142h-13q-86 0 -131 53q-45 52 -27 126l3 11q7 26 -4.5 40.5t-38.5 14.5h-5l23 136h5q53 0 61 50v-5q12 97 63.5 140.5
t157.5 43.5z" />
    <glyph glyph-name="braceright.smcp" horiz-adv-x="309" 
d="M75 551h13q85 0 128 -52q43 -51 29 -127l-2 -11q-9 -55 42 -55h5l-23 -136h-5q-51 0 -61 -46q-12 -97 -63.5 -140t-157.5 -43h-13l24 142h6q23 0 40.5 17.5t22.5 44.5l3 15q7 36 27.5 61t50.5 32q-27 7 -39.5 32t-5.5 59l4 17q10 48 -44 48h-5z" />
    <glyph glyph-name="Euro.smcp" horiz-adv-x="558" 
d="M236 250h71l-14 -79h-54q10 -46 48 -46q47 0 64 81h179q-31 -110 -94.5 -163t-167.5 -53q-81 0 -134 48.5t-64 132.5h-64l14 79h48q3 31 5 44h-46l14 79h53q33 84 99.5 130t153.5 46q98 0 153 -61q56 -60 54 -156h-180q11 80 -43 80q-31 0 -57 -39h54l-14 -79h-71
q-1 -6 -7 -44z" />
    <glyph glyph-name="dollar.smcp" horiz-adv-x="493" 
d="M265 631h109l-16 -93q55 -18 85.5 -60.5t26.5 -103.5h-161q7 52 -35 52q-32 0 -32 -35q0 -19 17 -33t59 -26q68 -21 97.5 -58t29.5 -95q0 -82 -49 -130t-134 -57l-14 -84h-110l16 92q-66 18 -101 66.5t-27 108.5h165q-5 -26 6.5 -44t34.5 -18q18 0 29 11t11 30
q0 17 -16 29t-57 24q-131 38 -131 155q0 73 50 123q52 51 132 61z" />
    <glyph glyph-name="cent.smcp" horiz-adv-x="482" 
d="M237 488h110l-17 -93q57 -16 88 -59.5t27 -107.5h-149q-3 33 -41 33q-28 0 -47 -23.5t-19 -54.5q0 -22 13.5 -35t36.5 -13q37 0 48 32h151q-26 -80 -69 -121.5t-109 -50.5l-15 -87h-110l16 92q-58 17 -92.5 63t-34.5 108q0 87 53 152t144 78z" />
    <glyph glyph-name="sterling.smcp" horiz-adv-x="479" 
d="M252 322h87l-16 -100h-50v-13q0 -22 -11 -39l-8 -12h29q19 0 27.5 9t12.5 30h141q-9 -97 -64 -147t-144 -50h-276l5 26l48 46q74 71 74 147v3h-82l16 100h47q-3 18 -3 38q0 82 59 135q60 54 150 54q81 0 129 -53q49 -52 41 -129h-149q2 15 -6 27.5t-22 12.5
q-39 0 -39 -49q0 -23 4 -36z" />
    <glyph glyph-name="florin.smcp" horiz-adv-x="319" 
d="M350 574q23 0 58 -5l-38 -138q-17 6 -29 6q-53 0 -60 -37l-1 -5h78l-38 -143h-80l-77 -262q-23 -79 -81 -121.5t-142 -42.5q-24 0 -59 5l39 138q13 -6 28 -6q48 0 60 37l75 252h-51l39 143h51l4 16q21 78 80 120.5t144 42.5z" />
    <glyph glyph-name="yen.smcp" horiz-adv-x="555" 
d="M423 539h205l-179 -241h43l-17 -99h-100l-4 -6l-7 -40h102l-17 -99h-103l-10 -54h-168l10 54h-103l17 99h104l7 40l-3 6h-99l17 99h43l-95 241h182l46 -143l10 -36l24 36z" />
    <glyph glyph-name="zero.smcp" horiz-adv-x="497" 
d="M288 549q86 0 134 -59.5t48 -164.5q0 -143 -69 -239q-67 -96 -191 -96q-86 0 -133.5 59.5t-47.5 164.5q0 141 68 238q69 97 191 97zM272 393q-30 0 -53 -68q-23 -69 -23 -127q0 -52 31 -52q29 0 52 65q24 66 24 125q0 57 -31 57z" />
    <glyph glyph-name="one.smcp" horiz-adv-x="381" 
d="M257 539h120l-95 -539h-168l55 306h-119l24 141q145 0 183 92z" />
    <glyph glyph-name="two.smcp" horiz-adv-x="430" 
d="M258 549q79 0 127 -42.5t48 -108.5q0 -86 -108 -173l-84 -69h139l-27 -156h-371l19 121l187 159q51 42 63 61q10 16 10 34t-16 18t-22.5 -7t-8.5 -25h-168q11 87 68 137.5t144 50.5z" />
    <glyph glyph-name="three.smcp" horiz-adv-x="475" 
d="M283 549q80 0 127.5 -43.5t47.5 -110.5q0 -84 -77 -128q58 -25 58 -89q0 -92 -64 -140q-63 -48 -160 -48q-93 0 -145 52t-41 140h167q-8 -36 36 -36q17 0 27.5 10t10.5 27q0 14 -10 22.5t-25 8.5h-56l21 122h53q13 0 23 9.5t10 23.5q0 24 -20 24q-27 0 -31 -31h-167
q12 92 68 139.5t147 47.5z" />
    <glyph glyph-name="four.smcp" horiz-adv-x="521" 
d="M265 539h219l-61 -332h60l-22 -135h-59l-13 -72h-168l13 72h-239l23 134zM259 205l27 145l-14 -25l-80 -120h67z" />
    <glyph glyph-name="five.smcp" horiz-adv-x="466" 
d="M110 539h361l-26 -151h-193l-12 -53q24 8 54 8q67 0 108 -38t41 -101q0 -92 -60 -153q-58 -61 -171 -61q-93 0 -145 52q-51 53 -38 133h167q-2 -14 6.5 -21.5t25.5 -7.5q42 0 42 46q0 32 -31 32q-13 0 -37 -11h-150z" />
    <glyph glyph-name="six.smcp" horiz-adv-x="486" 
d="M295 549q85 0 135 -53q51 -52 37 -135h-170q5 32 -28 32q-43 0 -60 -72q25 12 65 12q75 0 122 -36t47 -100q0 -91 -64 -149t-157 -58q-97 0 -147 59q-46 55 -46 162q0 113 53 216q29 56 84.5 89t128.5 33zM231 224q-45 0 -47 -48v-5q0 -18 12 -30.5t30 -12.5
q21 0 34.5 14.5t13.5 40.5q0 18 -11.5 29.5t-31.5 11.5z" />
    <glyph glyph-name="seven.smcp" horiz-adv-x="453" 
d="M89 539h369l-23 -135l-235 -404h-191l226 383h-172z" />
    <glyph glyph-name="eight.smcp" horiz-adv-x="480" 
d="M237 221q-22 0 -39 -17.5t-17 -43.5q0 -40 39 -40q24 0 39.5 16.5t15.5 43.5q0 18 -11 29.5t-27 11.5zM273 419q-20 0 -34.5 -17.5t-14.5 -39.5q0 -16 9 -26t24 -10q19 0 33.5 16t14.5 40q0 16 -8.5 26.5t-23.5 10.5zM290 549q78 0 124 -45q47 -44 47 -108
q0 -34 -17.5 -69t-49.5 -60q42 -31 42 -85q0 -82 -71 -138q-71 -54 -162 -54q-78 0 -130 46q-51 46 -51 113q0 89 81 138q-31 37 -31 82q0 75 67 127q68 53 151 53z" />
    <glyph glyph-name="nine.smcp" horiz-adv-x="486" 
d="M211 -10q-85 0 -136 53q-49 53 -36 135h170q-5 -32 28 -32q22 0 36.5 16t23.5 55q-30 -11 -65 -11q-75 0 -122 36t-47 100q0 90 64 148q65 59 157 59q97 0 147 -59q46 -55 46 -162q0 -113 -53 -216q-29 -56 -84.5 -89t-128.5 -33zM275 315q47 0 47 53q0 18 -12 30.5
t-30 12.5q-21 0 -34.5 -14.5t-13.5 -40.5q0 -18 11.5 -29.5t31.5 -11.5z" />
    <glyph glyph-name="ampersand.smcp" horiz-adv-x="618" 
d="M306 549q78 0 130 -39q52 -37 52 -99q0 -52 -27 -84.5t-87 -61.5l-23 -12l41 -49q14 20 23 58l160 -3q-17 -68 -44 -106q-20 -31 -47 -60l77 -93h-176l-14 16q-67 -26 -146 -26q-99 0 -152.5 39.5t-53.5 107.5q0 54 28.5 88t89.5 64l6 3q-47 58 -47 106q0 69 58 110
t152 41zM240 110q25 0 47 8l-60 73q-37 -19 -37 -44q0 -37 50 -37zM257 397q0 -20 13 -42l10 5q22 9 30.5 17t12.5 25q0 12 -9 20t-22 8q-15 0 -25 -9t-10 -24z" />
    <glyph glyph-name="F.smcp_J.smcp" horiz-adv-x="881" 
d="M114 539h343l-25 -150h-176l-11 -62h145l-21 -136h-148l-34 -191h-168zM719 539h168l-63 -356q-33 -185 -212 -185q-94 0 -146 60q-51 60 -43 146h168q-7 -48 30 -48q31 0 37 39z" />
    <glyph glyph-name="F.smcp_I.smcp" horiz-adv-x="711" 
d="M114 539h343l-25 -150h-176l-11 -62h145l-21 -136h-148l-34 -191h-168zM542 539h168l-95 -539h-168z" />
    <glyph glyph-name="exclamdown.smcp" horiz-adv-x="268" 
d="M180 0h-158l61 348h159zM171 383q-32 0 -52.5 19t-20.5 49q0 39 30.5 67.5t70.5 28.5q32 0 52.5 -19t20.5 -49q0 -40 -31 -68q-29 -28 -70 -28z" />
    <glyph glyph-name="questiondown.smcp" horiz-adv-x="408" 
d="M180 -8q-75 0 -122 37q-47 38 -47 99q0 43 15 74.5t36 48t43 29t38 27.5t18 34l1 8h159l-2 -11q-7 -37 -26 -64.5t-41 -42.5t-43.5 -27.5t-35.5 -28.5t-14 -36q0 -25 31 -25q18 0 31 10.5t16 28.5h148q-10 -74 -65.5 -117.5t-139.5 -43.5zM247 384q-32 0 -52.5 19
t-20.5 49q0 40 31 68t70 28q33 0 53.5 -18t20.5 -47q0 -42 -31 -70q-32 -29 -71 -29z" />
    <glyph glyph-name="Aring.smcp" horiz-adv-x="625" 
d="M272 539h191l111 -539h-178l-13 78h-186l-43 -78h-181zM343 322l-6 33l-15 -33l-60 -123h99zM402 739q-21 0 -36.5 -15t-15.5 -36q0 -15 10.5 -25.5t26.5 -10.5q23 0 37 15.5t14 37.5q0 15 -10 24.5t-26 9.5zM411 809q45 0 73 -27.5t28 -70.5q0 -55 -38 -93
q-37 -37 -96 -37q-45 0 -73.5 28t-28.5 70q0 57 39 93q40 37 96 37z" />
    <glyph glyph-name="Eogonek.smcp" horiz-adv-x="445" 
d="M114 539h345l-25 -149h-180l-9 -52h147l-21 -132h-150l-10 -57h178l-25 -149h-7q-94 -34 -94 -101q0 -34 40 -34q16 0 40 8l3 -69q-23 -12 -56 -12q-55 0 -88.5 28t-33.5 75q0 64 56 105h-205z" />
    <glyph glyph-name="Gcommaaccent.smcp" horiz-adv-x="635" 
d="M364 549q105 0 167 -59q64 -59 74 -144h-183q-4 22 -24 36.5t-52 14.5q-62 0 -95 -48t-33 -117q0 -41 22 -66.5t59 -25.5q69 0 94 45h-76l23 124h256l-10 -58q-46 -261 -292 -261q-116 0 -184 68q-67 67 -67 172q0 138 87 228q88 91 234 91zM262 -44q34 0 55.5 -21
t21.5 -57q0 -49 -37 -104q-39 -60 -89 -101l-41 15q27 39 44 95q-28 4 -45.5 22.5t-17.5 45.5q0 43 33 74q32 31 76 31z" />
    <glyph glyph-name="Kcommaaccent.smcp" horiz-adv-x="582" 
d="M406 539h211l-204 -254l113 -285h-179l-66 171l-77 -79l-17 -92h-168l95 539h168l-37 -205zM255 -33q34 0 55.5 -21t21.5 -57q0 -49 -37 -104q-39 -60 -89 -101l-41 15q27 39 44 95q-28 4 -45.5 22.5t-17.5 45.5q0 42 33 74q32 31 76 31z" />
    <glyph glyph-name="Lcommaaccent.smcp" horiz-adv-x="456" 
d="M114 539h168l-69 -383h207l-26 -156h-375zM206 -35q34 0 55.5 -21t21.5 -57q0 -49 -37 -104q-39 -60 -89 -101l-41 15q27 39 44 95q-28 4 -45.5 22.5t-17.5 45.5q0 42 33 74q32 31 76 31z" />
    <glyph glyph-name="Ncommaaccent.smcp" horiz-adv-x="619" 
d="M450 539h168l-95 -539h-147l-126 232l-16 37l-47 -269h-168l95 539h148l122 -239l17 -37zM271 -33q34 0 55.5 -21t21.5 -57q0 -49 -37 -104q-39 -60 -89 -101l-41 15q27 39 44 95q-28 4 -45.5 22.5t-17.5 45.5q0 42 33 74q32 31 76 31z" />
    <glyph glyph-name="Rcommaaccent.smcp" horiz-adv-x="516" 
d="M111 539h192q90 0 144 -48t54 -122q0 -55 -28.5 -98t-78.5 -68l66 -203h-177l-50 173h-18l-31 -173h-168zM222 -33q34 0 55.5 -21t21.5 -57q0 -49 -37 -104q-39 -60 -89 -101l-41 15q27 39 44 95q-28 4 -45.5 22.5t-17.5 45.5q0 42 33 74q32 31 76 31zM287 391h-33
l-16 -82h34q22 0 37.5 14t15.5 34q0 34 -38 34z" />
    <glyph glyph-name="Scommaaccent.smcp" horiz-adv-x="483" 
d="M290 549q78 0 133 -47q54 -46 48 -128h-161q7 52 -35 52q-32 0 -32 -35q0 -19 17 -33t59 -26q68 -21 97.5 -58t29.5 -95q0 -89 -59 -139t-159 -50q-99 0 -154 55q-56 56 -47 130h165q-5 -26 6.5 -44t34.5 -18q18 0 29 11t11 30q0 17 -16 29t-57 24q-131 38 -131 155
q0 81 62 134q64 53 159 53zM192 -43q34 0 55.5 -21t21.5 -57q0 -49 -37 -104q-39 -60 -89 -101l-41 15q27 39 44 95q-28 4 -45.5 22.5t-17.5 45.5q0 42 33 74q32 31 76 31z" />
    <glyph glyph-name="Tcommaaccent.smcp" horiz-adv-x="505" 
d="M70 539h481l-26 -156h-156l-69 -383h-168l69 383h-157zM205 -33q34 0 55.5 -21t21.5 -57q0 -49 -37 -104q-39 -60 -89 -101l-41 15q27 39 44 95q-28 4 -45.5 22.5t-17.5 45.5q0 42 33 74q32 31 76 31z" />
    <glyph glyph-name="Uogonek.smcp" horiz-adv-x="582" 
d="M438 539h168l-59 -333q-13 -75 -57 -127.5t-113 -74.5q-54 -32 -54 -83q0 -34 40 -34q16 0 40 8l3 -69q-23 -12 -56 -12q-55 0 -88.5 28t-33.5 75q0 45 24 75q-103 8 -149 78q-47 71 -29 172l53 297h169l-57 -316q-14 -77 57 -77t86 77z" />
    <glyph glyph-name="Aacute.smcp" horiz-adv-x="625" 
d="M272 539h191l111 -539h-178l-13 78h-186l-43 -78h-181zM343 322l-6 33l-15 -33l-60 -123h99zM427 762h212l-195 -158h-141z" />
    <glyph glyph-name="Abreve.smcp" horiz-adv-x="625" 
d="M272 539h191l111 -539h-178l-13 78h-186l-43 -78h-181zM343 322l-6 33l-15 -33l-60 -123h99zM454 749h125q-13 -74 -65 -118t-127 -44t-120 45q-44 45 -32 117h125q-5 -27 4.5 -44t31.5 -17q21 0 37 17t21 44z" />
    <glyph glyph-name="Acircumflex.smcp" horiz-adv-x="625" 
d="M272 539h191l111 -539h-178l-13 78h-186l-43 -78h-181zM343 322l-6 33l-15 -33l-60 -123h99zM341 762h126l114 -158h-151l-35 68l-59 -68h-165z" />
    <glyph glyph-name="Adieresis.smcp" horiz-adv-x="625" 
d="M272 539h191l111 -539h-178l-13 78h-186l-43 -78h-181zM343 322l-6 33l-15 -33l-60 -123h99zM298 759q32 0 52 -19t20 -49q0 -40 -31 -68t-70 -28q-31 0 -51 18.5t-20 47.5q0 41 30 69q31 29 70 29zM517 759q32 0 52 -19t20 -49q0 -40 -31 -68t-70 -28q-31 0 -51 18.5
t-20 47.5q0 41 30 69q31 29 70 29z" />
    <glyph glyph-name="Agrave.smcp" horiz-adv-x="625" 
d="M272 539h191l111 -539h-178l-13 78h-186l-43 -78h-181zM343 322l-6 33l-15 -33l-60 -123h99zM182 762h184l84 -158h-130z" />
    <glyph glyph-name="Amacron.smcp" horiz-adv-x="625" 
d="M272 539h191l111 -539h-178l-13 78h-186l-43 -78h-181zM343 322l-6 33l-15 -33l-60 -123h99zM258 729h292l-20 -116h-292z" />
    <glyph glyph-name="Atilde.smcp" horiz-adv-x="625" 
d="M272 539h191l111 -539h-178l-13 78h-186l-43 -78h-181zM343 322l-6 33l-15 -33l-60 -123h99zM336 762q55 0 76 -31q22 -30 49 -30q29 0 39 52h90q-27 -154 -137 -154q-29 0 -49 9.5t-28.5 21t-21 21t-28.5 9.5q-29 0 -39 -52h-90q27 154 139 154z" />
    <glyph glyph-name="Cacute.smcp" horiz-adv-x="609" 
d="M364 549q106 0 168 -59q61 -58 70 -148h-183q-5 28 -21 39.5t-51 11.5q-63 0 -96 -47q-33 -46 -33 -113q0 -87 86 -87q77 0 102 61h174q-76 -217 -287 -217q-116 0 -183 67t-67 174q0 135 88 226q89 92 233 92zM426 762h212l-195 -158h-141z" />
    <glyph glyph-name="Ccaron.smcp" horiz-adv-x="609" 
d="M364 549q106 0 168 -59q61 -58 70 -148h-183q-5 28 -21 39.5t-51 11.5q-63 0 -96 -47q-33 -46 -33 -113q0 -87 86 -87q77 0 102 61h174q-76 -217 -287 -217q-116 0 -183 67t-67 174q0 135 88 226q89 92 233 92zM454 752h164l-170 -158h-126l-114 158h152l35 -68z" />
    <glyph glyph-name="Ccircumflex.smcp" horiz-adv-x="609" 
d="M364 549q106 0 168 -59q61 -58 70 -148h-183q-5 28 -21 39.5t-51 11.5q-63 0 -96 -47q-33 -46 -33 -113q0 -87 86 -87q77 0 102 61h174q-76 -217 -287 -217q-116 0 -183 67t-67 174q0 135 88 226q89 92 233 92zM340 762h126l114 -158h-151l-35 68l-59 -68h-165z" />
    <glyph glyph-name="Cdotaccent.smcp" horiz-adv-x="609" 
d="M364 549q106 0 168 -59q61 -58 70 -148h-183q-5 28 -21 39.5t-51 11.5q-63 0 -96 -47q-33 -46 -33 -113q0 -87 86 -87q77 0 102 61h174q-76 -217 -287 -217q-116 0 -183 67t-67 174q0 135 88 226q89 92 233 92zM411 774q35 0 57 -21t22 -54q0 -45 -34 -76
q-32 -31 -77 -31q-35 0 -57 21t-22 54q0 44 34 75q35 32 77 32z" />
    <glyph glyph-name="Dcaron.smcp" horiz-adv-x="611" 
d="M114 539h213q120 0 191 -67q72 -67 72 -167q0 -140 -95 -223q-94 -82 -245 -82h-231zM310 383h-54l-43 -227h55q70 0 108.5 39.5t38.5 108.5q0 79 -105 79zM442 752h164l-170 -158h-126l-114 158h152l35 -68z" />
    <glyph glyph-name="Eacute.smcp" horiz-adv-x="445" 
d="M114 539h345l-25 -149h-180l-9 -52h147l-21 -132h-150l-10 -57h178l-25 -149h-345zM350 762h212l-195 -158h-141z" />
    <glyph glyph-name="Ebreve.smcp" horiz-adv-x="445" 
d="M114 539h345l-25 -149h-180l-9 -52h147l-21 -132h-150l-10 -57h178l-25 -149h-345zM377 749h125q-13 -74 -65 -118t-127 -44t-120 45q-44 45 -32 117h125q-5 -27 4.5 -44t31.5 -17q21 0 37 17t21 44z" />
    <glyph glyph-name="Ecaron.smcp" horiz-adv-x="445" 
d="M114 539h345l-25 -149h-180l-9 -52h147l-21 -132h-150l-10 -57h178l-25 -149h-345zM378 752h164l-170 -158h-126l-114 158h152l35 -68z" />
    <glyph glyph-name="Ecircumflex.smcp" horiz-adv-x="445" 
d="M114 539h345l-25 -149h-180l-9 -52h147l-21 -132h-150l-10 -57h178l-25 -149h-345zM264 762h126l114 -158h-151l-35 68l-59 -68h-165z" />
    <glyph glyph-name="Edieresis.smcp" horiz-adv-x="445" 
d="M221 759q32 0 52 -19t20 -49q0 -40 -31 -68t-70 -28q-31 0 -51 18.5t-20 47.5q0 41 30 69q31 29 70 29zM440 759q32 0 52 -19t20 -49q0 -40 -31 -68t-70 -28q-31 0 -51 18.5t-20 47.5q0 41 30 69q31 29 70 29zM114 539h345l-25 -149h-180l-9 -52h147l-21 -132h-150
l-10 -57h178l-25 -149h-345z" />
    <glyph glyph-name="Edotaccent.smcp" horiz-adv-x="445" 
d="M114 539h345l-25 -149h-180l-9 -52h147l-21 -132h-150l-10 -57h178l-25 -149h-345zM335 774q35 0 57 -21t22 -54q0 -45 -34 -76q-32 -31 -77 -31q-35 0 -57 21t-22 54q0 44 34 75q35 32 77 32z" />
    <glyph glyph-name="Egrave.smcp" horiz-adv-x="445" 
d="M114 539h345l-25 -149h-180l-9 -52h147l-21 -132h-150l-10 -57h178l-25 -149h-345zM105 762h184l84 -158h-130z" />
    <glyph glyph-name="Emacron.smcp" horiz-adv-x="445" 
d="M114 539h345l-25 -149h-180l-9 -52h147l-21 -132h-150l-10 -57h178l-25 -149h-345zM181 729h292l-20 -116h-292z" />
    <glyph glyph-name="Gbreve.smcp" horiz-adv-x="635" 
d="M364 549q105 0 167 -59q64 -59 74 -144h-183q-4 22 -24 36.5t-52 14.5q-62 0 -95 -48t-33 -117q0 -41 22 -66.5t59 -25.5q69 0 94 45h-76l23 124h256l-10 -58q-46 -261 -292 -261q-116 0 -184 68q-67 67 -67 172q0 138 87 228q88 91 234 91zM450 749h125
q-13 -74 -65 -118t-127 -44t-120 45q-44 45 -32 117h125q-5 -27 4.5 -44t31.5 -17q21 0 37 17t21 44z" />
    <glyph glyph-name="Gcircumflex.smcp" horiz-adv-x="635" 
d="M364 549q105 0 167 -59q64 -59 74 -144h-183q-4 22 -24 36.5t-52 14.5q-62 0 -95 -48t-33 -117q0 -41 22 -66.5t59 -25.5q69 0 94 45h-76l23 124h256l-10 -58q-46 -261 -292 -261q-116 0 -184 68q-67 67 -67 172q0 138 87 228q88 91 234 91zM337 762h126l114 -158h-151
l-35 68l-59 -68h-165z" />
    <glyph glyph-name="Gdotaccent.smcp" horiz-adv-x="635" 
d="M364 549q105 0 167 -59q64 -59 74 -144h-183q-4 22 -24 36.5t-52 14.5q-62 0 -95 -48t-33 -117q0 -41 22 -66.5t59 -25.5q69 0 94 45h-76l23 124h256l-10 -58q-46 -261 -292 -261q-116 0 -184 68q-67 67 -67 172q0 138 87 228q88 91 234 91zM408 774q35 0 57 -21t22 -54
q0 -45 -34 -76q-32 -31 -77 -31q-35 0 -57 21t-22 54q0 44 34 75q35 32 77 32z" />
    <glyph glyph-name="Hcircumflex.smcp" horiz-adv-x="604" 
d="M435 539h168l-95 -539h-168l35 201h-153l-35 -201h-168l95 539h168l-33 -182h153zM331 762h126l114 -158h-151l-35 68l-59 -68h-165z" />
    <glyph glyph-name="Iacute.smcp" horiz-adv-x="283" 
d="M114 539h168l-95 -539h-168zM255 762h212l-195 -158h-141z" />
    <glyph glyph-name="Ibreve.smcp" horiz-adv-x="283" 
d="M114 539h168l-95 -539h-168zM282 749h125q-13 -74 -65 -118t-127 -44t-120 45q-44 45 -32 117h125q-5 -27 4.5 -44t31.5 -17q21 0 37 17t21 44z" />
    <glyph glyph-name="Idotaccent.smcp" horiz-adv-x="283" 
d="M114 539h168l-95 -539h-168zM240 774q35 0 57 -21t22 -54q0 -45 -34 -76q-32 -31 -77 -31q-35 0 -57 21t-22 54q0 44 34 75q35 32 77 32z" />
    <glyph glyph-name="Icircumflex.smcp" horiz-adv-x="283" 
d="M114 539h168l-95 -539h-168zM169 762h126l114 -158h-151l-35 68l-59 -68h-165z" />
    <glyph glyph-name="Idieresis.smcp" horiz-adv-x="283" 
d="M126 759q32 0 52 -19t20 -49q0 -40 -31 -68t-70 -28q-31 0 -51 18.5t-20 47.5q0 41 30 69q31 29 70 29zM345 759q32 0 52 -19t20 -49q0 -40 -31 -68t-70 -28q-31 0 -51 18.5t-20 47.5q0 41 30 69q31 29 70 29zM114 539h168l-95 -539h-168z" />
    <glyph glyph-name="Igrave.smcp" horiz-adv-x="283" 
d="M114 539h168l-95 -539h-168zM10 762h184l84 -158h-130z" />
    <glyph glyph-name="Imacron.smcp" horiz-adv-x="283" 
d="M114 539h168l-95 -539h-168zM86 729h292l-20 -116h-292z" />
    <glyph glyph-name="Itilde.smcp" horiz-adv-x="283" 
d="M164 762q55 0 76 -31q22 -30 49 -30q29 0 39 52h90q-27 -154 -137 -154q-29 0 -49 9.5t-28.5 21t-21 21t-28.5 9.5q-29 0 -39 -52h-90q27 154 139 154zM114 539h168l-95 -539h-168z" />
    <glyph glyph-name="Jcircumflex.smcp" horiz-adv-x="483" 
d="M329 539h168l-63 -356q-33 -185 -212 -185q-94 0 -146 60q-51 60 -43 146h168q-7 -48 30 -48q31 0 37 39zM389 762h126l114 -158h-151l-35 68l-59 -68h-165z" />
    <glyph glyph-name="Lacute.smcp" horiz-adv-x="456" 
d="M114 539h168l-69 -383h207l-26 -156h-375zM257 762h212l-195 -158h-141z" />
    <glyph glyph-name="Nacute.smcp" horiz-adv-x="619" 
d="M450 539h168l-95 -539h-147l-126 232l-16 37l-47 -269h-168l95 539h148l122 -239l17 -37zM421 762h212l-195 -158h-141z" />
    <glyph glyph-name="Ncaron.smcp" horiz-adv-x="619" 
d="M450 539h168l-95 -539h-147l-126 232l-16 37l-47 -269h-168l95 539h148l122 -239l17 -37zM449 752h164l-170 -158h-126l-114 158h152l35 -68z" />
    <glyph glyph-name="Ntilde.smcp" horiz-adv-x="619" 
d="M450 539h168l-95 -539h-147l-126 232l-16 37l-47 -269h-168l95 539h148l122 -239l17 -37zM330 762q55 0 76 -31q22 -30 49 -30q29 0 39 52h90q-27 -154 -137 -154q-29 0 -49 9.5t-28.5 21t-21 21t-28.5 9.5q-29 0 -39 -52h-90q27 154 139 154z" />
    <glyph glyph-name="Oacute.smcp" horiz-adv-x="652" 
d="M366 549q121 0 193 -72q73 -70 73 -179q0 -140 -95 -224t-232 -84q-121 0 -191 70q-71 71 -71 177q0 141 93 226q94 86 230 86zM359 393q-63 0 -102 -42t-39 -109q0 -45 25 -70.5t70 -25.5q65 0 104.5 42t39.5 109q0 45 -25.5 70.5t-72.5 25.5zM439 762h212l-195 -158
h-141z" />
    <glyph glyph-name="Obreve.smcp" horiz-adv-x="652" 
d="M366 549q121 0 193 -72q73 -70 73 -179q0 -140 -95 -224t-232 -84q-121 0 -191 70q-71 71 -71 177q0 141 93 226q94 86 230 86zM359 393q-63 0 -102 -42t-39 -109q0 -45 25 -70.5t70 -25.5q65 0 104.5 42t39.5 109q0 45 -25.5 70.5t-72.5 25.5zM466 749h125
q-13 -74 -65 -118t-127 -44t-120 45q-44 45 -32 117h125q-5 -27 4.5 -44t31.5 -17q21 0 37 17t21 44z" />
    <glyph glyph-name="Ocircumflex.smcp" horiz-adv-x="652" 
d="M366 549q121 0 193 -72q73 -70 73 -179q0 -140 -95 -224t-232 -84q-121 0 -191 70q-71 71 -71 177q0 141 93 226q94 86 230 86zM359 393q-63 0 -102 -42t-39 -109q0 -45 25 -70.5t70 -25.5q65 0 104.5 42t39.5 109q0 45 -25.5 70.5t-72.5 25.5zM353 762h126l114 -158
h-151l-35 68l-59 -68h-165z" />
    <glyph glyph-name="Odieresis.smcp" horiz-adv-x="652" 
d="M366 549q121 0 193 -72q73 -70 73 -179q0 -140 -95 -224t-232 -84q-121 0 -191 70q-71 71 -71 177q0 141 93 226q94 86 230 86zM359 393q-63 0 -102 -42t-39 -109q0 -45 25 -70.5t70 -25.5q65 0 104.5 42t39.5 109q0 45 -25.5 70.5t-72.5 25.5zM310 759q32 0 52 -19
t20 -49q0 -40 -31 -68t-70 -28q-31 0 -51 18.5t-20 47.5q0 41 30 69q31 29 70 29zM529 759q32 0 52 -19t20 -49q0 -40 -31 -68t-70 -28q-31 0 -51 18.5t-20 47.5q0 41 30 69q31 29 70 29z" />
    <glyph glyph-name="Ograve.smcp" horiz-adv-x="652" 
d="M366 549q121 0 193 -72q73 -70 73 -179q0 -140 -95 -224t-232 -84q-121 0 -191 70q-71 71 -71 177q0 141 93 226q94 86 230 86zM359 393q-63 0 -102 -42t-39 -109q0 -45 25 -70.5t70 -25.5q65 0 104.5 42t39.5 109q0 45 -25.5 70.5t-72.5 25.5zM194 762h184l84 -158h-130
z" />
    <glyph glyph-name="Ohungarumlaut.smcp" horiz-adv-x="652" 
d="M366 549q121 0 193 -72q73 -70 73 -179q0 -140 -95 -224t-232 -84q-121 0 -191 70q-71 71 -71 177q0 141 93 226q94 86 230 86zM359 393q-63 0 -102 -42t-39 -109q0 -45 25 -70.5t70 -25.5q65 0 104.5 42t39.5 109q0 45 -25.5 70.5t-72.5 25.5zM318 762h160l-135 -158
h-130zM532 762h160l-135 -158h-130z" />
    <glyph glyph-name="Omacron.smcp" horiz-adv-x="652" 
d="M366 549q121 0 193 -72q73 -70 73 -179q0 -140 -95 -224t-232 -84q-121 0 -191 70q-71 71 -71 177q0 141 93 226q94 86 230 86zM359 393q-63 0 -102 -42t-39 -109q0 -45 25 -70.5t70 -25.5q65 0 104.5 42t39.5 109q0 45 -25.5 70.5t-72.5 25.5zM270 729h292l-20 -116
h-292z" />
    <glyph glyph-name="Otilde.smcp" horiz-adv-x="652" 
d="M348 762q55 0 76 -31q22 -30 49 -30q29 0 39 52h90q-27 -154 -137 -154q-29 0 -49 9.5t-28.5 21t-21 21t-28.5 9.5q-29 0 -39 -52h-90q27 154 139 154zM366 549q121 0 193 -72q73 -70 73 -179q0 -140 -95 -224t-232 -84q-121 0 -191 70q-71 71 -71 177q0 141 93 226
q94 86 230 86zM359 393q-63 0 -102 -42t-39 -109q0 -45 25 -70.5t70 -25.5q65 0 104.5 42t39.5 109q0 45 -25.5 70.5t-72.5 25.5z" />
    <glyph glyph-name="Racute.smcp" horiz-adv-x="516" 
d="M111 539h192q90 0 144 -48t54 -122q0 -55 -28.5 -98t-78.5 -68l66 -203h-177l-50 173h-18l-31 -173h-168zM371 762h212l-195 -158h-141zM287 391h-33l-16 -82h34q22 0 37.5 14t15.5 34q0 34 -38 34z" />
    <glyph glyph-name="Rcaron.smcp" horiz-adv-x="516" 
d="M111 539h192q90 0 144 -48t54 -122q0 -55 -28.5 -98t-78.5 -68l66 -203h-177l-50 173h-18l-31 -173h-168zM399 752h164l-170 -158h-126l-114 158h152l35 -68zM287 391h-33l-16 -82h34q22 0 37.5 14t15.5 34q0 34 -38 34z" />
    <glyph glyph-name="Sacute.smcp" horiz-adv-x="483" 
d="M290 549q78 0 133 -47q54 -46 48 -128h-161q7 52 -35 52q-32 0 -32 -35q0 -19 17 -33t59 -26q68 -21 97.5 -58t29.5 -95q0 -89 -59 -139t-159 -50q-99 0 -154 55q-56 56 -47 130h165q-5 -26 6.5 -44t34.5 -18q18 0 29 11t11 30q0 17 -16 29t-57 24q-131 38 -131 155
q0 81 62 134q64 53 159 53zM360 762h212l-195 -158h-141z" />
    <glyph glyph-name="Scaron.smcp" horiz-adv-x="483" 
d="M290 549q78 0 133 -47q54 -46 48 -128h-161q7 52 -35 52q-32 0 -32 -35q0 -19 17 -33t59 -26q68 -21 97.5 -58t29.5 -95q0 -89 -59 -139t-159 -50q-99 0 -154 55q-56 56 -47 130h165q-5 -26 6.5 -44t34.5 -18q18 0 29 11t11 30q0 17 -16 29t-57 24q-131 38 -131 155
q0 81 62 134q64 53 159 53zM388 752h164l-170 -158h-126l-114 158h152l35 -68z" />
    <glyph glyph-name="Scircumflex.smcp" horiz-adv-x="483" 
d="M290 549q78 0 133 -47q54 -46 48 -128h-161q7 52 -35 52q-32 0 -32 -35q0 -19 17 -33t59 -26q68 -21 97.5 -58t29.5 -95q0 -89 -59 -139t-159 -50q-99 0 -154 55q-56 56 -47 130h165q-5 -26 6.5 -44t34.5 -18q18 0 29 11t11 30q0 17 -16 29t-57 24q-131 38 -131 155
q0 81 62 134q64 53 159 53zM274 762h126l114 -158h-151l-35 68l-59 -68h-165z" />
    <glyph glyph-name="Tcaron.smcp" horiz-adv-x="505" 
d="M70 539h481l-26 -156h-156l-69 -383h-168l69 383h-157zM397 752h164l-170 -158h-126l-114 158h152l35 -68z" />
    <glyph glyph-name="Uacute.smcp" horiz-adv-x="582" 
d="M439 539h168l-59 -333q-18 -100 -88 -158t-180 -58q-114 0 -170 71q-54 72 -35 181l53 297h169l-57 -316q-14 -77 57 -77t86 77zM426 762h212l-195 -158h-141z" />
    <glyph glyph-name="Ubreve.smcp" horiz-adv-x="582" 
d="M439 539h168l-59 -333q-18 -100 -88 -158t-180 -58q-114 0 -170 71q-54 72 -35 181l53 297h169l-57 -316q-14 -77 57 -77t86 77zM453 749h125q-13 -74 -65 -118t-127 -44t-120 45q-44 45 -32 117h125q-5 -27 4.5 -44t31.5 -17q21 0 37 17t21 44z" />
    <glyph glyph-name="Ucircumflex.smcp" horiz-adv-x="582" 
d="M439 539h168l-59 -333q-18 -100 -88 -158t-180 -58q-114 0 -170 71q-54 72 -35 181l53 297h169l-57 -316q-14 -77 57 -77t86 77zM340 762h126l114 -158h-151l-35 68l-59 -68h-165z" />
    <glyph glyph-name="Udieresis.smcp" horiz-adv-x="582" 
d="M439 539h168l-59 -333q-18 -100 -88 -158t-180 -58q-114 0 -170 71q-54 72 -35 181l53 297h169l-57 -316q-14 -77 57 -77t86 77zM297 759q32 0 52 -19t20 -49q0 -40 -31 -68t-70 -28q-31 0 -51 18.5t-20 47.5q0 41 30 69q31 29 70 29zM516 759q32 0 52 -19t20 -49
q0 -40 -31 -68t-70 -28q-31 0 -51 18.5t-20 47.5q0 41 30 69q31 29 70 29z" />
    <glyph glyph-name="Ugrave.smcp" horiz-adv-x="582" 
d="M439 539h168l-59 -333q-18 -100 -88 -158t-180 -58q-114 0 -170 71q-54 72 -35 181l53 297h169l-57 -316q-14 -77 57 -77t86 77zM181 762h184l84 -158h-130z" />
    <glyph glyph-name="Uhungarumlaut.smcp" horiz-adv-x="582" 
d="M439 539h168l-59 -333q-18 -100 -88 -158t-180 -58q-114 0 -170 71q-54 72 -35 181l53 297h169l-57 -316q-14 -77 57 -77t86 77zM305 762h160l-135 -158h-130zM519 762h160l-135 -158h-130z" />
    <glyph glyph-name="Umacron.smcp" horiz-adv-x="582" 
d="M439 539h168l-59 -333q-18 -100 -88 -158t-180 -58q-114 0 -170 71q-54 72 -35 181l53 297h169l-57 -316q-14 -77 57 -77t86 77zM257 729h292l-20 -116h-292z" />
    <glyph glyph-name="Uring.smcp" horiz-adv-x="582" 
d="M439 539h168l-59 -333q-18 -100 -88 -158t-180 -58q-114 0 -170 71q-54 72 -35 181l53 297h169l-57 -316q-14 -77 57 -77t86 77zM404 739q-21 0 -36.5 -15t-15.5 -36q0 -15 10.5 -25.5t26.5 -10.5q23 0 37 15.5t14 37.5q0 15 -10 24.5t-26 9.5zM413 809q45 0 73 -27.5
t28 -70.5q0 -55 -38 -93q-37 -37 -96 -37q-45 0 -73.5 28t-28.5 70q0 57 39 93q40 37 96 37z" />
    <glyph glyph-name="Utilde.smcp" horiz-adv-x="582" 
d="M439 539h168l-59 -333q-18 -100 -88 -158t-180 -58q-114 0 -170 71q-54 72 -35 181l53 297h169l-57 -316q-14 -77 57 -77t86 77zM335 762q55 0 76 -31q22 -30 49 -30q29 0 39 52h90q-27 -154 -137 -154q-29 0 -49 9.5t-28.5 21t-21 21t-28.5 9.5q-29 0 -39 -52h-90
q27 154 139 154z" />
    <glyph glyph-name="Wacute.smcp" horiz-adv-x="829" 
d="M695 539h181l-252 -539h-187l-18 211l1 38l-12 -38l-91 -211h-183l-63 539h172l22 -260l-1 -40l13 40l112 260h160l18 -260l-3 -40l15 40zM528 762h212l-195 -158h-141z" />
    <glyph glyph-name="Wcircumflex.smcp" horiz-adv-x="829" 
d="M695 539h181l-252 -539h-187l-18 211l1 38l-12 -38l-91 -211h-183l-63 539h172l22 -260l-1 -40l13 40l112 260h160l18 -260l-3 -40l15 40zM442 762h126l114 -158h-151l-35 68l-59 -68h-165z" />
    <glyph glyph-name="Wdieresis.smcp" horiz-adv-x="829" 
d="M695 539h181l-252 -539h-187l-18 211l1 38l-12 -38l-91 -211h-183l-63 539h172l22 -260l-1 -40l13 40l112 260h160l18 -260l-3 -40l15 40zM399 759q32 0 52 -19t20 -49q0 -40 -31 -68t-70 -28q-31 0 -51 18.5t-20 47.5q0 41 30 69q31 29 70 29zM618 759q32 0 52 -19
t20 -49q0 -40 -31 -68t-70 -28q-31 0 -51 18.5t-20 47.5q0 41 30 69q31 29 70 29z" />
    <glyph glyph-name="Wgrave.smcp" horiz-adv-x="829" 
d="M695 539h181l-252 -539h-187l-18 211l1 38l-12 -38l-91 -211h-183l-63 539h172l22 -260l-1 -40l13 40l112 260h160l18 -260l-3 -40l15 40zM283 762h184l84 -158h-130z" />
    <glyph glyph-name="Yacute.smcp" horiz-adv-x="574" 
d="M422 539h205l-257 -346l-35 -193h-168l35 193l-137 346h182l46 -143l10 -36l24 36zM391 762h212l-195 -158h-141z" />
    <glyph glyph-name="Ycircumflex.smcp" horiz-adv-x="574" 
d="M422 539h205l-257 -346l-35 -193h-168l35 193l-137 346h182l46 -143l10 -36l24 36zM305 762h126l114 -158h-151l-35 68l-59 -68h-165z" />
    <glyph glyph-name="Ydieresis.smcp" horiz-adv-x="574" 
d="M262 759q32 0 52 -19t20 -49q0 -40 -31 -68t-70 -28q-31 0 -51 18.5t-20 47.5q0 41 30 69q31 29 70 29zM481 759q32 0 52 -19t20 -49q0 -40 -31 -68t-70 -28q-31 0 -51 18.5t-20 47.5q0 41 30 69q31 29 70 29zM422 539h205l-257 -346l-35 -193h-168l35 193l-137 346h182
l46 -143l10 -36l24 36z" />
    <glyph glyph-name="Ygrave.smcp" horiz-adv-x="574" 
d="M422 539h205l-257 -346l-35 -193h-168l35 193l-137 346h182l46 -143l10 -36l24 36zM146 762h184l84 -158h-130z" />
    <glyph glyph-name="Zacute.smcp" horiz-adv-x="508" 
d="M98 539h411l-23 -137l-230 -246h198l-26 -156h-423l23 137l230 246h-186zM372 762h212l-195 -158h-141z" />
    <glyph glyph-name="Zcaron.smcp" horiz-adv-x="508" 
d="M98 539h411l-23 -137l-230 -246h198l-26 -156h-423l23 137l230 246h-186zM400 752h164l-170 -158h-126l-114 158h152l35 -68z" />
    <glyph glyph-name="Zdotaccent.smcp" horiz-adv-x="508" 
d="M98 539h411l-23 -137l-230 -246h198l-26 -156h-423l23 137l230 246h-186zM357 774q35 0 57 -21t22 -54q0 -45 -34 -76q-32 -31 -77 -31q-35 0 -57 21t-22 54q0 44 34 75q35 32 77 32z" />
    <glyph glyph-name="uni021B" horiz-adv-x="401" 
d="M157 630h164l-23 -120h106l-26 -148h-107l-30 -156q-6 -36 6 -51t45 -15q28 0 48 6l-25 -142q-35 -11 -89 -11q-95 0 -133.5 41t-21.5 130l37 198h-75l26 148h76zM172 -41q34 0 55.5 -21t21.5 -57q0 -49 -37 -104q-39 -60 -89 -101l-41 15q27 39 44 95q-28 4 -45.5 22.5
t-17.5 45.5q0 42 33 74q32 31 76 31z" />
    <glyph glyph-name="uni021A" horiz-adv-x="621" 
d="M93 700h597l-28 -161h-212l-95 -539h-173l95 539h-212zM262 -33q34 0 55.5 -21t21.5 -57q0 -49 -37 -104q-39 -60 -89 -101l-41 15q27 39 44 95q-28 4 -45.5 22.5t-17.5 45.5q0 42 33 74q32 31 76 31z" />
    <glyph glyph-name="Dotlessi.sc" horiz-adv-x="0" 
 />
    <glyph glyph-name="I.sc" horiz-adv-x="0" 
 />
    </font>
</defs>
</svg>
